STARTFONT 2.1
COMMENT
COMMENT Converted from OpenType font "UbuntuMono-Bold.ttf" by "otf2bdf 3.0".
COMMENT
FONT -FreeType-Ubuntu Mono-Bold-R-Normal--19-140-100-100-P-87-ISO10646-1
SIZE 14 100 100
FONTBOUNDINGBOX 20 19 -7 -3
STARTPROPERTIES 19
FOUNDRY "FreeType"
FAMILY_NAME "Ubuntu Mono"
WEIGHT_NAME "Bold"
SLANT "R"
SETWIDTH_NAME "Normal"
ADD_STYLE_NAME ""
PIXEL_SIZE 19
POINT_SIZE 140
RESOLUTION_X 100
RESOLUTION_Y 100
SPACING "P"
AVERAGE_WIDTH 87
CHARSET_REGISTRY "ISO10646"
CHARSET_ENCODING "1"
FONT_ASCENT 15
FONT_DESCENT 3
COPYRIGHT "Copyright 2011 Canonical Ltd.  Licensed under the Ubuntu Font Licence 1.0"
_OTF_FONTFILE "UbuntuMono-Bold.ttf"
_OTF_PSNAME "UbuntuMono-Bold"
ENDPROPERTIES
CHARS 1224
STARTCHAR 0000
ENCODING 0
SWIDTH 514 0
DWIDTH 10 0
BBX 0 0 0 0
BITMAP
ENDCHAR
STARTCHAR 0008
ENCODING 8
SWIDTH 514 0
DWIDTH 10 0
BBX 0 0 0 0
BITMAP
ENDCHAR
STARTCHAR 0009
ENCODING 9
SWIDTH 514 0
DWIDTH 10 0
BBX 0 0 0 0
BITMAP
ENDCHAR
STARTCHAR 000D
ENCODING 13
SWIDTH 514 0
DWIDTH 10 0
BBX 0 0 0 0
BITMAP
ENDCHAR
STARTCHAR 001D
ENCODING 29
SWIDTH 514 0
DWIDTH 10 0
BBX 0 0 0 0
BITMAP
ENDCHAR
STARTCHAR 0020
ENCODING 32
SWIDTH 514 0
DWIDTH 10 0
BBX 0 0 0 0
BITMAP
ENDCHAR
STARTCHAR 0021
ENCODING 33
SWIDTH 514 0
DWIDTH 10 0
BBX 3 12 3 0
BITMAP
E0
E0
E0
E0
E0
E0
60
60
60
00
E0
E0
ENDCHAR
STARTCHAR 0022
ENCODING 34
SWIDTH 514 0
DWIDTH 10 0
BBX 6 5 2 8
BITMAP
DC
DC
CC
CC
C8
ENDCHAR
STARTCHAR 0023
ENCODING 35
SWIDTH 514 0
DWIDTH 10 0
BBX 9 12 0 0
BITMAP
1900
1B00
1B00
FF80
FF80
3300
3600
FF80
FF80
6600
6600
6C00
ENDCHAR
STARTCHAR 0024
ENCODING 36
SWIDTH 514 0
DWIDTH 10 0
BBX 8 15 1 -2
BITMAP
18
18
7E
FE
E0
E0
F8
7E
0F
07
87
FE
FC
18
18
ENDCHAR
STARTCHAR 0025
ENCODING 37
SWIDTH 514 0
DWIDTH 10 0
BBX 9 12 0 0
BITMAP
7180
F180
F300
D200
F600
7C00
0B80
1F80
3680
2780
6780
C380
ENDCHAR
STARTCHAR 0026
ENCODING 38
SWIDTH 514 0
DWIDTH 10 0
BBX 9 12 0 0
BITMAP
3C00
3E00
6600
6600
3C00
3980
7D80
6D00
C700
6700
7F80
3D80
ENDCHAR
STARTCHAR 0027
ENCODING 39
SWIDTH 514 0
DWIDTH 10 0
BBX 2 6 4 7
BITMAP
C0
C0
C0
C0
C0
C0
ENDCHAR
STARTCHAR 0028
ENCODING 40
SWIDTH 514 0
DWIDTH 10 0
BBX 6 16 2 -3
BITMAP
08
18
30
60
E0
C0
C0
C0
C0
C0
C0
E0
60
30
1C
08
ENDCHAR
STARTCHAR 0029
ENCODING 41
SWIDTH 514 0
DWIDTH 10 0
BBX 6 16 2 -3
BITMAP
C0
E0
30
38
18
18
1C
0C
0C
1C
18
18
38
70
E0
C0
ENDCHAR
STARTCHAR 002A
ENCODING 42
SWIDTH 514 0
DWIDTH 10 0
BBX 8 7 1 5
BITMAP
18
18
D6
FF
38
6E
24
ENDCHAR
STARTCHAR 002B
ENCODING 43
SWIDTH 514 0
DWIDTH 10 0
BBX 8 8 1 1
BITMAP
18
18
18
FF
FF
18
18
18
ENDCHAR
STARTCHAR 002C
ENCODING 44
SWIDTH 514 0
DWIDTH 10 0
BBX 5 6 2 -3
BITMAP
30
78
38
30
F0
40
ENDCHAR
STARTCHAR 002D
ENCODING 45
SWIDTH 514 0
DWIDTH 10 0
BBX 5 2 2 4
BITMAP
F8
F8
ENDCHAR
STARTCHAR 002E
ENCODING 46
SWIDTH 514 0
DWIDTH 10 0
BBX 3 3 3 0
BITMAP
E0
E0
E0
ENDCHAR
STARTCHAR 002F
ENCODING 47
SWIDTH 514 0
DWIDTH 10 0
BBX 7 16 1 -3
BITMAP
06
06
0E
0C
0C
1C
18
18
38
30
30
70
60
60
E0
C0
ENDCHAR
STARTCHAR 0030
ENCODING 48
SWIDTH 514 0
DWIDTH 10 0
BBX 8 12 1 0
BITMAP
3C
7E
E6
C7
C3
DB
DB
C3
C7
E6
7E
3C
ENDCHAR
STARTCHAR 0031
ENCODING 49
SWIDTH 514 0
DWIDTH 10 0
BBX 8 12 1 0
BITMAP
18
38
F8
F8
18
18
18
18
18
18
7F
7F
ENDCHAR
STARTCHAR 0032
ENCODING 50
SWIDTH 514 0
DWIDTH 10 0
BBX 8 12 1 0
BITMAP
7C
FE
C6
06
06
0C
1C
38
70
E0
FF
FF
ENDCHAR
STARTCHAR 0033
ENCODING 51
SWIDTH 514 0
DWIDTH 10 0
BBX 8 12 1 0
BITMAP
78
FE
0E
06
0E
3C
3E
06
07
86
FE
FC
ENDCHAR
STARTCHAR 0034
ENCODING 52
SWIDTH 514 0
DWIDTH 10 0
BBX 8 12 1 0
BITMAP
0E
1E
1E
3E
6E
EE
CE
FF
FF
0E
0E
0E
ENDCHAR
STARTCHAR 0035
ENCODING 53
SWIDTH 514 0
DWIDTH 10 0
BBX 7 12 1 0
BITMAP
7E
7E
60
60
78
7E
0E
06
06
06
FE
F8
ENDCHAR
STARTCHAR 0036
ENCODING 54
SWIDTH 514 0
DWIDTH 10 0
BBX 8 12 1 0
BITMAP
0E
3E
70
60
F8
FE
C6
C7
C7
E6
7E
3C
ENDCHAR
STARTCHAR 0037
ENCODING 55
SWIDTH 514 0
DWIDTH 10 0
BBX 8 12 1 0
BITMAP
FF
FF
06
0E
0C
1C
18
38
38
30
30
30
ENDCHAR
STARTCHAR 0038
ENCODING 56
SWIDTH 514 0
DWIDTH 10 0
BBX 8 12 1 0
BITMAP
3C
7E
E6
C6
E6
7E
7C
CE
C3
C7
FE
7C
ENDCHAR
STARTCHAR 0039
ENCODING 57
SWIDTH 514 0
DWIDTH 10 0
BBX 8 12 1 0
BITMAP
3C
7E
E6
C7
C7
E7
7F
3E
0E
1C
78
70
ENDCHAR
STARTCHAR 003A
ENCODING 58
SWIDTH 514 0
DWIDTH 10 0
BBX 3 9 3 0
BITMAP
E0
E0
E0
00
00
00
E0
E0
E0
ENDCHAR
STARTCHAR 003B
ENCODING 59
SWIDTH 514 0
DWIDTH 10 0
BBX 4 12 2 -3
BITMAP
70
70
70
00
00
00
70
70
70
30
F0
C0
ENDCHAR
STARTCHAR 003C
ENCODING 60
SWIDTH 514 0
DWIDTH 10 0
BBX 8 8 1 1
BITMAP
02
1F
7C
F0
F0
7C
1F
02
ENDCHAR
STARTCHAR 003D
ENCODING 61
SWIDTH 514 0
DWIDTH 10 0
BBX 8 6 1 2
BITMAP
FF
FF
00
00
FF
FF
ENDCHAR
STARTCHAR 003E
ENCODING 62
SWIDTH 514 0
DWIDTH 10 0
BBX 8 8 1 1
BITMAP
C0
F0
7E
0F
0F
7E
F0
C0
ENDCHAR
STARTCHAR 003F
ENCODING 63
SWIDTH 514 0
DWIDTH 10 0
BBX 6 12 2 0
BITMAP
F8
FC
0C
0C
1C
3C
38
70
60
00
70
70
ENDCHAR
STARTCHAR 0040
ENCODING 64
SWIDTH 514 0
DWIDTH 10 0
BBX 9 15 0 -3
BITMAP
1E00
3F00
7380
6180
4F80
CF80
D980
D980
D980
D980
4F80
6780
7000
3F00
0F80
ENDCHAR
STARTCHAR 0041
ENCODING 65
SWIDTH 514 0
DWIDTH 10 0
BBX 9 12 0 0
BITMAP
1C00
1E00
1E00
3600
3600
3300
3300
7F00
7F00
6380
6180
E180
ENDCHAR
STARTCHAR 0042
ENCODING 66
SWIDTH 514 0
DWIDTH 10 0
BBX 8 12 1 0
BITMAP
FC
FE
C6
C6
C6
FC
FE
C7
C3
C7
FE
FC
ENDCHAR
STARTCHAR 0043
ENCODING 67
SWIDTH 514 0
DWIDTH 10 0
BBX 8 12 1 0
BITMAP
3E
7F
E1
C0
C0
C0
C0
C0
C0
E1
7F
3E
ENDCHAR
STARTCHAR 0044
ENCODING 68
SWIDTH 514 0
DWIDTH 10 0
BBX 8 12 1 0
BITMAP
F8
FE
C6
C7
C7
C3
C3
C7
C7
CE
FE
F8
ENDCHAR
STARTCHAR 0045
ENCODING 69
SWIDTH 514 0
DWIDTH 10 0
BBX 8 12 1 0
BITMAP
FE
FE
E0
E0
E0
FE
FE
E0
E0
E0
FF
FF
ENDCHAR
STARTCHAR 0046
ENCODING 70
SWIDTH 514 0
DWIDTH 10 0
BBX 7 12 1 0
BITMAP
FE
FE
E0
E0
E0
FE
FE
E0
E0
E0
E0
E0
ENDCHAR
STARTCHAR 0047
ENCODING 71
SWIDTH 514 0
DWIDTH 10 0
BBX 8 12 1 0
BITMAP
3F
7F
E2
C0
C0
C0
C7
C7
C7
E7
7F
3F
ENDCHAR
STARTCHAR 0048
ENCODING 72
SWIDTH 514 0
DWIDTH 10 0
BBX 8 12 1 0
BITMAP
C7
C7
C7
C7
C7
FF
FF
C7
C7
C7
C7
C7
ENDCHAR
STARTCHAR 0049
ENCODING 73
SWIDTH 514 0
DWIDTH 10 0
BBX 8 12 1 0
BITMAP
FF
FF
18
18
18
18
18
18
18
18
FF
FF
ENDCHAR
STARTCHAR 004A
ENCODING 74
SWIDTH 514 0
DWIDTH 10 0
BBX 7 12 1 0
BITMAP
7E
7E
06
06
06
06
06
06
06
8E
FE
78
ENDCHAR
STARTCHAR 004B
ENCODING 75
SWIDTH 514 0
DWIDTH 10 0
BBX 8 12 1 0
BITMAP
C7
CE
CC
DC
D8
F0
F8
DC
CE
CE
C7
C7
ENDCHAR
STARTCHAR 004C
ENCODING 76
SWIDTH 514 0
DWIDTH 10 0
BBX 8 12 1 0
BITMAP
E0
E0
E0
E0
E0
E0
E0
E0
E0
E0
FF
FF
ENDCHAR
STARTCHAR 004D
ENCODING 77
SWIDTH 514 0
DWIDTH 10 0
BBX 9 12 0 0
BITMAP
6300
7300
7380
5780
7780
7D80
7D80
6D80
6180
6180
E180
E180
ENDCHAR
STARTCHAR 004E
ENCODING 78
SWIDTH 514 0
DWIDTH 10 0
BBX 8 12 1 0
BITMAP
C3
E3
E3
F3
F3
DB
DB
CF
CF
C7
C7
C3
ENDCHAR
STARTCHAR 004F
ENCODING 79
SWIDTH 514 0
DWIDTH 10 0
BBX 8 12 1 0
BITMAP
3C
7E
E6
C7
C3
C3
C3
C3
C7
E6
7E
3C
ENDCHAR
STARTCHAR 0050
ENCODING 80
SWIDTH 514 0
DWIDTH 10 0
BBX 8 12 1 0
BITMAP
FC
FE
C7
C3
C3
C7
FE
FC
C0
C0
C0
C0
ENDCHAR
STARTCHAR 0051
ENCODING 81
SWIDTH 514 0
DWIDTH 10 0
BBX 8 15 1 -3
BITMAP
3C
7E
E6
C7
C3
C3
C3
C3
C7
E6
7E
3C
18
1F
07
ENDCHAR
STARTCHAR 0052
ENCODING 82
SWIDTH 514 0
DWIDTH 10 0
BBX 8 12 1 0
BITMAP
FC
FE
C6
C6
C7
C6
FE
FC
CC
C6
C7
C3
ENDCHAR
STARTCHAR 0053
ENCODING 83
SWIDTH 514 0
DWIDTH 10 0
BBX 8 12 1 0
BITMAP
3C
FE
E2
C0
E0
7C
3E
07
07
87
FE
7C
ENDCHAR
STARTCHAR 0054
ENCODING 84
SWIDTH 514 0
DWIDTH 10 0
BBX 9 12 0 0
BITMAP
FF80
FF80
0C00
0C00
0C00
0C00
0C00
0C00
0C00
0C00
0C00
0C00
ENDCHAR
STARTCHAR 0055
ENCODING 85
SWIDTH 514 0
DWIDTH 10 0
BBX 8 12 1 0
BITMAP
C7
C7
C7
C7
C7
C7
C7
C7
C7
C7
FE
7C
ENDCHAR
STARTCHAR 0056
ENCODING 86
SWIDTH 514 0
DWIDTH 10 0
BBX 9 12 0 0
BITMAP
E180
6180
6380
6300
7300
3300
3300
3600
3600
1E00
1C00
1C00
ENDCHAR
STARTCHAR 0057
ENCODING 87
SWIDTH 514 0
DWIDTH 10 0
BBX 9 12 0 0
BITMAP
E180
E180
6180
6180
6D80
6D80
7D80
5F80
5780
7380
7380
6300
ENDCHAR
STARTCHAR 0058
ENCODING 88
SWIDTH 514 0
DWIDTH 10 0
BBX 9 12 0 0
BITMAP
6380
7300
3700
3E00
1E00
1C00
1E00
3E00
3700
7300
6380
E180
ENDCHAR
STARTCHAR 0059
ENCODING 89
SWIDTH 514 0
DWIDTH 10 0
BBX 9 12 0 0
BITMAP
E180
6380
7300
3300
3600
1E00
1C00
0C00
0C00
0C00
0C00
0C00
ENDCHAR
STARTCHAR 005A
ENCODING 90
SWIDTH 514 0
DWIDTH 10 0
BBX 8 12 1 0
BITMAP
FE
FE
0E
0C
1C
18
38
70
60
E0
FF
FF
ENDCHAR
STARTCHAR 005B
ENCODING 91
SWIDTH 514 0
DWIDTH 10 0
BBX 5 16 2 -3
BITMAP
F8
F8
C0
C0
C0
C0
C0
C0
C0
C0
C0
C0
C0
C0
F8
F8
ENDCHAR
STARTCHAR 005C
ENCODING 92
SWIDTH 514 0
DWIDTH 10 0
BBX 7 16 1 -3
BITMAP
C0
E0
60
60
70
30
30
38
18
18
1C
0C
0C
0E
06
06
ENDCHAR
STARTCHAR 005D
ENCODING 93
SWIDTH 514 0
DWIDTH 10 0
BBX 5 16 2 -3
BITMAP
F8
F8
18
18
18
18
18
18
18
18
18
18
18
18
F8
F8
ENDCHAR
STARTCHAR 005E
ENCODING 94
SWIDTH 514 0
DWIDTH 10 0
BBX 8 6 1 6
BITMAP
38
3C
7E
E6
C7
C2
ENDCHAR
STARTCHAR 005F
ENCODING 95
SWIDTH 514 0
DWIDTH 10 0
BBX 9 2 0 -3
BITMAP
FF80
FF80
ENDCHAR
STARTCHAR 0060
ENCODING 96
SWIDTH 514 0
DWIDTH 10 0
BBX 4 3 3 10
BITMAP
40
E0
30
ENDCHAR
STARTCHAR 0061
ENCODING 97
SWIDTH 514 0
DWIDTH 10 0
BBX 7 9 1 0
BITMAP
7C
7E
06
7E
FE
C6
C6
FE
7E
ENDCHAR
STARTCHAR 0062
ENCODING 98
SWIDTH 514 0
DWIDTH 10 0
BBX 8 13 1 0
BITMAP
E0
E0
E0
E0
FC
FE
E7
E7
E3
E7
E7
FE
FC
ENDCHAR
STARTCHAR 0063
ENCODING 99
SWIDTH 514 0
DWIDTH 10 0
BBX 8 9 1 0
BITMAP
3F
7E
E0
C0
C0
C0
E0
7F
3F
ENDCHAR
STARTCHAR 0064
ENCODING 100
SWIDTH 514 0
DWIDTH 10 0
BBX 7 13 1 0
BITMAP
06
06
06
06
7E
FE
C6
C6
C6
C6
E6
FE
7E
ENDCHAR
STARTCHAR 0065
ENCODING 101
SWIDTH 514 0
DWIDTH 10 0
BBX 8 9 1 0
BITMAP
3C
7E
E6
C3
FF
FF
C0
7E
3E
ENDCHAR
STARTCHAR 0066
ENCODING 102
SWIDTH 514 0
DWIDTH 10 0
BBX 8 13 1 0
BITMAP
1F
3F
30
30
FF
FF
30
30
30
30
30
30
30
ENDCHAR
STARTCHAR 0067
ENCODING 103
SWIDTH 514 0
DWIDTH 10 0
BBX 7 12 1 -3
BITMAP
3E
FE
E6
C6
C6
C6
FE
7E
06
8E
FE
FC
ENDCHAR
STARTCHAR 0068
ENCODING 104
SWIDTH 514 0
DWIDTH 10 0
BBX 7 13 1 0
BITMAP
E0
E0
E0
E0
FC
FE
E6
E6
E6
E6
E6
E6
E6
ENDCHAR
STARTCHAR 0069
ENCODING 105
SWIDTH 514 0
DWIDTH 10 0
BBX 8 13 1 0
BITMAP
30
30
00
F0
F0
30
30
30
30
30
38
1F
1F
ENDCHAR
STARTCHAR 006A
ENCODING 106
SWIDTH 514 0
DWIDTH 10 0
BBX 7 16 1 -3
BITMAP
0C
0C
00
7E
7E
0E
0E
0E
0E
0E
0E
0E
0E
8C
FC
78
ENDCHAR
STARTCHAR 006B
ENCODING 107
SWIDTH 514 0
DWIDTH 10 0
BBX 8 13 1 0
BITMAP
E0
E0
E0
E0
E7
EE
FC
F8
F8
FC
EE
E6
E7
ENDCHAR
STARTCHAR 006C
ENCODING 108
SWIDTH 514 0
DWIDTH 10 0
BBX 8 13 1 0
BITMAP
F0
F0
30
30
30
30
30
30
30
30
38
1F
1F
ENDCHAR
STARTCHAR 006D
ENCODING 109
SWIDTH 514 0
DWIDTH 10 0
BBX 8 9 1 0
BITMAP
FE
FF
9B
9B
9B
9B
83
83
83
ENDCHAR
STARTCHAR 006E
ENCODING 110
SWIDTH 514 0
DWIDTH 10 0
BBX 7 9 1 0
BITMAP
FC
FE
E6
E6
E6
E6
E6
E6
E6
ENDCHAR
STARTCHAR 006F
ENCODING 111
SWIDTH 514 0
DWIDTH 10 0
BBX 8 9 1 0
BITMAP
3C
FE
E7
C7
C3
C7
C7
7E
3C
ENDCHAR
STARTCHAR 0070
ENCODING 112
SWIDTH 514 0
DWIDTH 10 0
BBX 8 12 1 -3
BITMAP
FC
FE
E7
E7
E3
E7
E7
FE
FC
E0
E0
E0
ENDCHAR
STARTCHAR 0071
ENCODING 113
SWIDTH 514 0
DWIDTH 10 0
BBX 7 12 1 -3
BITMAP
3E
FE
E6
C6
C6
C6
C6
FE
7E
06
06
06
ENDCHAR
STARTCHAR 0072
ENCODING 114
SWIDTH 514 0
DWIDTH 10 0
BBX 7 9 2 0
BITMAP
FE
FC
C0
C0
C0
C0
C0
C0
C0
ENDCHAR
STARTCHAR 0073
ENCODING 115
SWIDTH 514 0
DWIDTH 10 0
BBX 7 9 1 0
BITMAP
3E
7E
E0
F0
7C
0E
86
FE
7C
ENDCHAR
STARTCHAR 0074
ENCODING 116
SWIDTH 514 0
DWIDTH 10 0
BBX 8 12 1 0
BITMAP
30
30
30
FF
FF
30
30
30
30
30
3F
1F
ENDCHAR
STARTCHAR 0075
ENCODING 117
SWIDTH 514 0
DWIDTH 10 0
BBX 7 9 1 0
BITMAP
C6
C6
C6
C6
C6
E6
E6
7E
3E
ENDCHAR
STARTCHAR 0076
ENCODING 118
SWIDTH 514 0
DWIDTH 10 0
BBX 9 9 0 0
BITMAP
E180
6380
6300
7300
3700
3600
1E00
1C00
1C00
ENDCHAR
STARTCHAR 0077
ENCODING 119
SWIDTH 514 0
DWIDTH 10 0
BBX 9 9 0 0
BITMAP
C180
C180
CD80
4D80
5D80
7F80
7700
7300
7300
ENDCHAR
STARTCHAR 0078
ENCODING 120
SWIDTH 514 0
DWIDTH 10 0
BBX 8 9 1 0
BITMAP
C7
E6
7C
3C
38
3C
6E
E6
C7
ENDCHAR
STARTCHAR 0079
ENCODING 121
SWIDTH 514 0
DWIDTH 10 0
BBX 9 12 0 -3
BITMAP
6380
7380
7300
3300
3300
1E00
1E00
1E00
0C00
1C00
7800
F000
ENDCHAR
STARTCHAR 007A
ENCODING 122
SWIDTH 514 0
DWIDTH 10 0
BBX 7 9 1 0
BITMAP
FE
FE
0E
1C
38
30
60
FE
FE
ENDCHAR
STARTCHAR 007B
ENCODING 123
SWIDTH 514 0
DWIDTH 10 0
BBX 7 16 1 -3
BITMAP
1E
1E
38
30
30
30
30
F0
F0
30
30
30
30
38
1E
1E
ENDCHAR
STARTCHAR 007C
ENCODING 124
SWIDTH 514 0
DWIDTH 10 0
BBX 2 16 4 -3
BITMAP
C0
C0
C0
C0
C0
C0
C0
C0
C0
C0
C0
C0
C0
C0
C0
C0
ENDCHAR
STARTCHAR 007D
ENCODING 125
SWIDTH 514 0
DWIDTH 10 0
BBX 7 16 1 -3
BITMAP
F0
F8
18
18
18
18
18
0E
0E
18
18
18
18
18
F8
F0
ENDCHAR
STARTCHAR 007E
ENCODING 126
SWIDTH 514 0
DWIDTH 10 0
BBX 9 3 0 4
BITMAP
3980
7F80
C700
ENDCHAR
STARTCHAR 00A0
ENCODING 160
SWIDTH 514 0
DWIDTH 10 0
BBX 0 0 0 0
BITMAP
ENDCHAR
STARTCHAR 00A1
ENCODING 161
SWIDTH 514 0
DWIDTH 10 0
BBX 3 12 3 -3
BITMAP
E0
E0
00
60
60
60
E0
E0
E0
E0
E0
E0
ENDCHAR
STARTCHAR 00A2
ENCODING 162
SWIDTH 514 0
DWIDTH 10 0
BBX 8 13 1 -1
BITMAP
1C
1C
3E
7E
E0
C0
C0
C0
E0
7E
3F
1C
1C
ENDCHAR
STARTCHAR 00A3
ENCODING 163
SWIDTH 514 0
DWIDTH 10 0
BBX 8 12 1 0
BITMAP
1E
3E
72
60
60
FC
FC
60
60
60
7F
7F
ENDCHAR
STARTCHAR 00A4
ENCODING 164
SWIDTH 514 0
DWIDTH 10 0
BBX 9 8 0 2
BITMAP
4100
FF80
3F00
7300
7300
3F00
FF80
4100
ENDCHAR
STARTCHAR 00A5
ENCODING 165
SWIDTH 514 0
DWIDTH 10 0
BBX 9 12 0 0
BITMAP
E180
6380
7300
3300
1E00
7F80
7F80
0C00
7F80
7F80
0C00
0C00
ENDCHAR
STARTCHAR 00A6
ENCODING 166
SWIDTH 514 0
DWIDTH 10 0
BBX 2 16 4 -3
BITMAP
C0
C0
C0
C0
C0
C0
C0
00
00
C0
C0
C0
C0
C0
C0
C0
ENDCHAR
STARTCHAR 00A7
ENCODING 167
SWIDTH 514 0
DWIDTH 10 0
BBX 7 14 1 -2
BITMAP
3E
7E
62
60
7C
CE
C6
C6
76
3C
0E
86
FE
7C
ENDCHAR
STARTCHAR 00A8
ENCODING 168
SWIDTH 514 0
DWIDTH 10 0
BBX 6 3 2 10
BITMAP
CC
DC
CC
ENDCHAR
STARTCHAR 00A9
ENCODING 169
SWIDTH 514 0
DWIDTH 10 0
BBX 9 9 0 0
BITMAP
1E00
6300
4D80
5080
D080
5080
5D80
6300
1E00
ENDCHAR
STARTCHAR 00AA
ENCODING 170
SWIDTH 514 0
DWIDTH 10 0
BBX 6 7 2 5
BITMAP
78
7C
0C
FC
CC
FC
7C
ENDCHAR
STARTCHAR 00AB
ENCODING 171
SWIDTH 514 0
DWIDTH 10 0
BBX 7 8 1 1
BITMAP
22
26
66
CC
CC
66
26
22
ENDCHAR
STARTCHAR 00AC
ENCODING 172
SWIDTH 514 0
DWIDTH 10 0
BBX 8 6 1 1
BITMAP
FF
FF
03
03
03
03
ENDCHAR
STARTCHAR 00AD
ENCODING 173
SWIDTH 514 0
DWIDTH 10 0
BBX 5 2 2 4
BITMAP
F8
F8
ENDCHAR
STARTCHAR 00AE
ENCODING 174
SWIDTH 514 0
DWIDTH 10 0
BBX 9 9 0 0
BITMAP
1E00
6300
5D80
5280
DC80
5480
5780
6300
1E00
ENDCHAR
STARTCHAR 00AF
ENCODING 175
SWIDTH 514 0
DWIDTH 10 0
BBX 6 2 2 10
BITMAP
FC
FC
ENDCHAR
STARTCHAR 00B0
ENCODING 176
SWIDTH 514 0
DWIDTH 10 0
BBX 6 6 2 7
BITMAP
70
F8
CC
CC
F8
70
ENDCHAR
STARTCHAR 00B1
ENCODING 177
SWIDTH 514 0
DWIDTH 10 0
BBX 8 11 1 0
BITMAP
18
18
18
FF
FF
18
18
18
00
FF
FF
ENDCHAR
STARTCHAR 00B2
ENCODING 178
SWIDTH 514 0
DWIDTH 10 0
BBX 5 7 2 5
BITMAP
78
F8
58
38
60
78
F8
ENDCHAR
STARTCHAR 00B3
ENCODING 179
SWIDTH 514 0
DWIDTH 10 0
BBX 5 7 2 5
BITMAP
70
F8
58
38
B8
F8
F0
ENDCHAR
STARTCHAR 00B4
ENCODING 180
SWIDTH 514 0
DWIDTH 10 0
BBX 4 3 3 10
BITMAP
20
F0
C0
ENDCHAR
STARTCHAR 00B5
ENCODING 181
SWIDTH 514 0
DWIDTH 10 0
BBX 7 12 1 -3
BITMAP
C6
C6
C6
C6
C6
C6
E6
FE
FE
C0
C0
C0
ENDCHAR
STARTCHAR 00B6
ENCODING 182
SWIDTH 514 0
DWIDTH 10 0
BBX 9 15 0 -3
BITMAP
3F80
7F80
7980
F980
F980
7980
3980
1980
1980
1980
1980
1980
1980
1980
1980
ENDCHAR
STARTCHAR 00B7
ENCODING 183
SWIDTH 514 0
DWIDTH 10 0
BBX 3 3 3 4
BITMAP
E0
E0
E0
ENDCHAR
STARTCHAR 00B8
ENCODING 184
SWIDTH 514 0
DWIDTH 10 0
BBX 4 3 3 -3
BITMAP
60
30
E0
ENDCHAR
STARTCHAR 00B9
ENCODING 185
SWIDTH 514 0
DWIDTH 10 0
BBX 5 7 3 5
BITMAP
60
E0
A0
20
20
F8
F8
ENDCHAR
STARTCHAR 00BA
ENCODING 186
SWIDTH 514 0
DWIDTH 10 0
BBX 7 7 1 5
BITMAP
3C
7E
66
C6
66
7E
3C
ENDCHAR
STARTCHAR 00BB
ENCODING 187
SWIDTH 514 0
DWIDTH 10 0
BBX 7 8 1 1
BITMAP
88
CC
66
66
66
66
CC
C8
ENDCHAR
STARTCHAR 00BC
ENCODING 188
SWIDTH 514 0
DWIDTH 10 0
BBX 9 12 0 0
BITMAP
6300
E300
A600
2600
2C00
0C00
1800
1B80
3380
3580
6780
6180
ENDCHAR
STARTCHAR 00BD
ENCODING 189
SWIDTH 514 0
DWIDTH 10 0
BBX 9 12 0 0
BITMAP
6300
E300
2600
2600
2C00
0C00
1800
1B80
3280
3180
6300
6780
ENDCHAR
STARTCHAR 00BE
ENCODING 190
SWIDTH 514 0
DWIDTH 10 0
BBX 9 12 0 0
BITMAP
F180
1300
7300
1600
F600
0C00
0C00
1B80
1B80
3580
3780
6180
ENDCHAR
STARTCHAR 00BF
ENCODING 191
SWIDTH 514 0
DWIDTH 10 0
BBX 7 12 1 -3
BITMAP
1C
1C
00
18
18
38
70
E0
E0
E2
7E
3C
ENDCHAR
STARTCHAR 00C0
ENCODING 192
SWIDTH 514 0
DWIDTH 10 0
BBX 9 16 0 0
BITMAP
1800
1C00
0400
0000
1C00
1E00
1E00
3600
3600
3300
3300
7F00
7F00
6380
6180
E180
ENDCHAR
STARTCHAR 00C1
ENCODING 193
SWIDTH 514 0
DWIDTH 10 0
BBX 9 16 0 0
BITMAP
0400
1E00
1800
0000
1C00
1E00
1E00
3600
3600
3300
3300
7F00
7F00
6380
6180
E180
ENDCHAR
STARTCHAR 00C2
ENCODING 194
SWIDTH 514 0
DWIDTH 10 0
BBX 9 16 0 0
BITMAP
0800
1E00
1200
0000
1C00
1E00
1E00
3600
3600
3300
3300
7F00
7F00
6380
6180
E180
ENDCHAR
STARTCHAR 00C3
ENCODING 195
SWIDTH 514 0
DWIDTH 10 0
BBX 9 16 0 0
BITMAP
1A00
3F00
2600
0000
1C00
1E00
1E00
3600
3600
3300
3300
7F00
7F00
6380
6180
E180
ENDCHAR
STARTCHAR 00C4
ENCODING 196
SWIDTH 514 0
DWIDTH 10 0
BBX 9 16 0 0
BITMAP
3300
3700
3300
0000
1C00
1E00
1E00
3600
3600
3300
3300
7F00
7F00
6380
6180
E180
ENDCHAR
STARTCHAR 00C5
ENCODING 197
SWIDTH 514 0
DWIDTH 10 0
BBX 9 15 0 0
BITMAP
1C00
1600
1600
1C00
1C00
1E00
1E00
3600
3300
3300
7F00
7F00
6380
6180
E180
ENDCHAR
STARTCHAR 00C6
ENCODING 198
SWIDTH 514 0
DWIDTH 10 0
BBX 9 12 0 0
BITMAP
0F80
1F80
1E00
1600
3600
3780
3780
7E00
7E00
6600
6780
E780
ENDCHAR
STARTCHAR 00C7
ENCODING 199
SWIDTH 514 0
DWIDTH 10 0
BBX 8 15 1 -3
BITMAP
3E
7F
E1
C0
C0
C0
C0
C0
C0
E0
7F
3E
18
0C
38
ENDCHAR
STARTCHAR 00C8
ENCODING 200
SWIDTH 514 0
DWIDTH 10 0
BBX 8 16 1 0
BITMAP
30
38
08
00
FE
FE
E0
E0
E0
FE
FE
E0
E0
E0
FF
FF
ENDCHAR
STARTCHAR 00C9
ENCODING 201
SWIDTH 514 0
DWIDTH 10 0
BBX 8 16 1 0
BITMAP
08
3C
30
00
FE
FE
E0
E0
E0
FE
FE
E0
E0
E0
FF
FF
ENDCHAR
STARTCHAR 00CA
ENCODING 202
SWIDTH 514 0
DWIDTH 10 0
BBX 8 16 1 0
BITMAP
10
3C
24
00
FE
FE
E0
E0
E0
FE
FE
E0
E0
E0
FF
FF
ENDCHAR
STARTCHAR 00CB
ENCODING 203
SWIDTH 514 0
DWIDTH 10 0
BBX 8 16 1 0
BITMAP
66
6E
66
00
FE
FE
E0
E0
E0
FE
FE
E0
E0
E0
FF
FF
ENDCHAR
STARTCHAR 00CC
ENCODING 204
SWIDTH 514 0
DWIDTH 10 0
BBX 8 16 1 0
BITMAP
30
38
08
00
FF
FF
18
18
18
18
18
18
18
18
FF
FF
ENDCHAR
STARTCHAR 00CD
ENCODING 205
SWIDTH 514 0
DWIDTH 10 0
BBX 8 16 1 0
BITMAP
08
3C
30
00
FF
FF
18
18
18
18
18
18
18
18
FF
FF
ENDCHAR
STARTCHAR 00CE
ENCODING 206
SWIDTH 514 0
DWIDTH 10 0
BBX 8 16 1 0
BITMAP
10
3C
24
00
FF
FF
18
18
18
18
18
18
18
18
FF
FF
ENDCHAR
STARTCHAR 00CF
ENCODING 207
SWIDTH 514 0
DWIDTH 10 0
BBX 8 16 1 0
BITMAP
66
6E
66
00
FF
FF
18
18
18
18
18
18
18
18
FF
FF
ENDCHAR
STARTCHAR 00D0
ENCODING 208
SWIDTH 514 0
DWIDTH 10 0
BBX 9 12 0 0
BITMAP
7C00
7F00
7300
7380
7180
F980
F980
7380
7380
7300
7F00
7C00
ENDCHAR
STARTCHAR 00D1
ENCODING 209
SWIDTH 514 0
DWIDTH 10 0
BBX 8 16 1 0
BITMAP
34
7E
4C
00
C3
E3
E3
F3
F3
DB
DB
CF
CF
C7
C7
C3
ENDCHAR
STARTCHAR 00D2
ENCODING 210
SWIDTH 514 0
DWIDTH 10 0
BBX 8 16 1 0
BITMAP
30
38
08
00
3C
7E
E6
C7
C3
C3
C3
C3
C7
E6
7E
3C
ENDCHAR
STARTCHAR 00D3
ENCODING 211
SWIDTH 514 0
DWIDTH 10 0
BBX 8 16 1 0
BITMAP
08
3C
30
00
3C
7E
E6
C7
C3
C3
C3
C3
C7
E6
7E
3C
ENDCHAR
STARTCHAR 00D4
ENCODING 212
SWIDTH 514 0
DWIDTH 10 0
BBX 8 16 1 0
BITMAP
10
3C
24
00
3C
7E
E6
C7
C3
C3
C3
C3
C7
E6
7E
3C
ENDCHAR
STARTCHAR 00D5
ENCODING 213
SWIDTH 514 0
DWIDTH 10 0
BBX 8 16 1 0
BITMAP
34
7E
4C
00
3C
7E
E6
C7
C3
C3
C3
C3
C7
E6
7E
3C
ENDCHAR
STARTCHAR 00D6
ENCODING 214
SWIDTH 514 0
DWIDTH 10 0
BBX 8 16 1 0
BITMAP
66
6E
66
00
3C
7E
E6
C7
C3
C3
C3
C3
C7
E6
7E
3C
ENDCHAR
STARTCHAR 00D7
ENCODING 215
SWIDTH 514 0
DWIDTH 10 0
BBX 7 8 1 1
BITMAP
42
E6
7C
38
3C
6E
C6
40
ENDCHAR
STARTCHAR 00D8
ENCODING 216
SWIDTH 514 0
DWIDTH 10 0
BBX 8 14 1 -1
BITMAP
02
3E
7E
EE
CF
DB
DB
F3
F3
E7
E6
FE
FC
40
ENDCHAR
STARTCHAR 00D9
ENCODING 217
SWIDTH 514 0
DWIDTH 10 0
BBX 8 16 1 0
BITMAP
20
78
08
00
C7
C7
C7
C7
C7
C7
C7
C7
C7
C7
FE
7C
ENDCHAR
STARTCHAR 00DA
ENCODING 218
SWIDTH 514 0
DWIDTH 10 0
BBX 8 16 1 0
BITMAP
08
1C
30
00
C7
C7
C7
C7
C7
C7
C7
C7
C7
C7
FE
7C
ENDCHAR
STARTCHAR 00DB
ENCODING 219
SWIDTH 514 0
DWIDTH 10 0
BBX 8 16 1 0
BITMAP
10
3C
24
00
C7
C7
C7
C7
C7
C7
C7
C7
C7
C7
FE
7C
ENDCHAR
STARTCHAR 00DC
ENCODING 220
SWIDTH 514 0
DWIDTH 10 0
BBX 8 16 1 0
BITMAP
66
6E
66
00
C7
C7
C7
C7
C7
C7
C7
C7
C7
C7
FE
7C
ENDCHAR
STARTCHAR 00DD
ENCODING 221
SWIDTH 514 0
DWIDTH 10 0
BBX 9 16 0 0
BITMAP
0400
0E00
1800
0000
E180
6380
7300
3300
3600
1E00
1C00
0C00
0C00
0C00
0C00
0C00
ENDCHAR
STARTCHAR 00DE
ENCODING 222
SWIDTH 514 0
DWIDTH 10 0
BBX 8 12 1 0
BITMAP
C0
C0
FC
FE
C7
C3
C3
C7
FE
FC
C0
C0
ENDCHAR
STARTCHAR 00DF
ENCODING 223
SWIDTH 514 0
DWIDTH 10 0
BBX 8 13 1 0
BITMAP
7C
FC
CE
CE
CC
DC
DC
DC
CF
C3
D3
DF
DE
ENDCHAR
STARTCHAR 00E0
ENCODING 224
SWIDTH 514 0
DWIDTH 10 0
BBX 7 13 1 0
BITMAP
30
38
08
00
7C
7E
06
7E
FE
C6
C6
FE
7E
ENDCHAR
STARTCHAR 00E1
ENCODING 225
SWIDTH 514 0
DWIDTH 10 0
BBX 7 13 1 0
BITMAP
08
3C
30
00
7C
7E
06
7E
FE
C6
C6
FE
7E
ENDCHAR
STARTCHAR 00E2
ENCODING 226
SWIDTH 514 0
DWIDTH 10 0
BBX 7 13 1 0
BITMAP
10
3C
24
00
7C
7E
06
7E
FE
C6
C6
FE
7E
ENDCHAR
STARTCHAR 00E3
ENCODING 227
SWIDTH 514 0
DWIDTH 10 0
BBX 7 13 1 0
BITMAP
34
7E
4C
00
7C
7E
06
7E
FE
C6
C6
FE
7E
ENDCHAR
STARTCHAR 00E4
ENCODING 228
SWIDTH 514 0
DWIDTH 10 0
BBX 7 13 1 0
BITMAP
66
6E
66
00
7C
7E
06
7E
FE
C6
C6
FE
7E
ENDCHAR
STARTCHAR 00E5
ENCODING 229
SWIDTH 514 0
DWIDTH 10 0
BBX 7 14 1 0
BITMAP
38
2C
2C
38
00
7C
7E
06
7E
FE
C6
C6
FE
7E
ENDCHAR
STARTCHAR 00E6
ENCODING 230
SWIDTH 514 0
DWIDTH 10 0
BBX 9 9 0 0
BITMAP
7B00
7F80
0D80
7C80
7F80
CC00
CC00
7F80
3B80
ENDCHAR
STARTCHAR 00E7
ENCODING 231
SWIDTH 514 0
DWIDTH 10 0
BBX 8 12 1 -3
BITMAP
3F
7E
E0
C0
C0
C0
E0
7F
3F
18
0C
38
ENDCHAR
STARTCHAR 00E8
ENCODING 232
SWIDTH 514 0
DWIDTH 10 0
BBX 8 13 1 0
BITMAP
30
38
08
00
3C
7E
E6
C3
FF
FF
C0
7E
3E
ENDCHAR
STARTCHAR 00E9
ENCODING 233
SWIDTH 514 0
DWIDTH 10 0
BBX 8 13 1 0
BITMAP
08
1C
10
00
3C
7E
E6
C3
FF
FF
C0
7E
3E
ENDCHAR
STARTCHAR 00EA
ENCODING 234
SWIDTH 514 0
DWIDTH 10 0
BBX 8 13 1 0
BITMAP
18
3C
24
00
3C
7E
E6
C3
FF
FF
C0
7E
3E
ENDCHAR
STARTCHAR 00EB
ENCODING 235
SWIDTH 514 0
DWIDTH 10 0
BBX 8 13 1 0
BITMAP
66
6E
66
00
3C
7E
E6
C3
FF
FF
C0
7E
3E
ENDCHAR
STARTCHAR 00EC
ENCODING 236
SWIDTH 514 0
DWIDTH 10 0
BBX 8 13 1 0
BITMAP
20
78
18
00
F0
F0
30
30
30
30
39
1F
1E
ENDCHAR
STARTCHAR 00ED
ENCODING 237
SWIDTH 514 0
DWIDTH 10 0
BBX 8 13 1 0
BITMAP
08
3C
30
00
F0
F0
30
30
30
30
39
1F
1E
ENDCHAR
STARTCHAR 00EE
ENCODING 238
SWIDTH 514 0
DWIDTH 10 0
BBX 8 13 1 0
BITMAP
10
78
6C
00
F0
F0
30
30
30
30
39
1F
1E
ENDCHAR
STARTCHAR 00EF
ENCODING 239
SWIDTH 514 0
DWIDTH 10 0
BBX 8 13 1 0
BITMAP
6C
EE
6C
00
F0
F0
30
30
30
30
39
1F
1E
ENDCHAR
STARTCHAR 00F0
ENCODING 240
SWIDTH 514 0
DWIDTH 10 0
BBX 8 13 1 0
BITMAP
18
1F
3E
3E
06
1E
7F
E7
C7
C6
E6
FE
3C
ENDCHAR
STARTCHAR 00F1
ENCODING 241
SWIDTH 514 0
DWIDTH 10 0
BBX 7 13 1 0
BITMAP
34
7E
4C
00
FC
FE
E6
E6
E6
E6
E6
E6
E6
ENDCHAR
STARTCHAR 00F2
ENCODING 242
SWIDTH 514 0
DWIDTH 10 0
BBX 8 13 1 0
BITMAP
30
38
08
00
3C
FE
E7
C7
C3
C7
C7
7E
3C
ENDCHAR
STARTCHAR 00F3
ENCODING 243
SWIDTH 514 0
DWIDTH 10 0
BBX 8 13 1 0
BITMAP
08
3C
30
00
3C
FE
E7
C7
C3
C7
C7
7E
3C
ENDCHAR
STARTCHAR 00F4
ENCODING 244
SWIDTH 514 0
DWIDTH 10 0
BBX 8 13 1 0
BITMAP
10
3C
24
00
3C
FE
E7
C7
C3
C7
C7
7E
3C
ENDCHAR
STARTCHAR 00F5
ENCODING 245
SWIDTH 514 0
DWIDTH 10 0
BBX 8 13 1 0
BITMAP
34
7E
4C
00
3C
FE
E7
C7
C3
C7
C7
7E
3C
ENDCHAR
STARTCHAR 00F6
ENCODING 246
SWIDTH 514 0
DWIDTH 10 0
BBX 8 13 1 0
BITMAP
66
6E
66
00
3C
FE
E7
C7
C3
C7
C7
7E
3C
ENDCHAR
STARTCHAR 00F7
ENCODING 247
SWIDTH 514 0
DWIDTH 10 0
BBX 8 10 1 0
BITMAP
18
38
18
00
FF
FF
00
18
38
18
ENDCHAR
STARTCHAR 00F8
ENCODING 248
SWIDTH 514 0
DWIDTH 10 0
BBX 8 9 1 0
BITMAP
3F
FE
EF
CB
DB
F7
E7
FE
FC
ENDCHAR
STARTCHAR 00F9
ENCODING 249
SWIDTH 514 0
DWIDTH 10 0
BBX 7 13 1 0
BITMAP
30
38
08
00
C6
C6
C6
C6
C6
E6
E6
7E
3E
ENDCHAR
STARTCHAR 00FA
ENCODING 250
SWIDTH 514 0
DWIDTH 10 0
BBX 7 13 1 0
BITMAP
08
3C
30
00
C6
C6
C6
C6
C6
E6
E6
7E
3E
ENDCHAR
STARTCHAR 00FB
ENCODING 251
SWIDTH 514 0
DWIDTH 10 0
BBX 7 13 1 0
BITMAP
10
3C
24
00
C6
C6
C6
C6
C6
E6
E6
7E
3E
ENDCHAR
STARTCHAR 00FC
ENCODING 252
SWIDTH 514 0
DWIDTH 10 0
BBX 7 13 1 0
BITMAP
66
6E
66
00
C6
C6
C6
C6
C6
E6
E6
7E
3E
ENDCHAR
STARTCHAR 00FD
ENCODING 253
SWIDTH 514 0
DWIDTH 10 0
BBX 9 16 0 -3
BITMAP
0400
1E00
1800
0000
6380
7380
7300
3300
3300
1E00
1E00
1E00
0C00
1C00
7800
F000
ENDCHAR
STARTCHAR 00FE
ENCODING 254
SWIDTH 514 0
DWIDTH 10 0
BBX 8 16 1 -3
BITMAP
E0
E0
E0
E0
FC
FE
E7
E7
E3
E7
E7
FE
FC
E0
E0
E0
ENDCHAR
STARTCHAR 00FF
ENCODING 255
SWIDTH 514 0
DWIDTH 10 0
BBX 9 16 0 -3
BITMAP
3300
3700
3300
0000
6380
7380
7300
3300
3300
1E00
1E00
1E00
0C00
1C00
7800
F000
ENDCHAR
STARTCHAR 0100
ENCODING 256
SWIDTH 514 0
DWIDTH 10 0
BBX 9 15 0 0
BITMAP
3F00
3F00
0000
1C00
1E00
1E00
3600
3600
3300
3300
7F00
7F00
6380
6180
E180
ENDCHAR
STARTCHAR 0101
ENCODING 257
SWIDTH 514 0
DWIDTH 10 0
BBX 7 12 1 0
BITMAP
7E
7E
00
7C
7E
06
7E
FE
C6
C6
FE
7E
ENDCHAR
STARTCHAR 0102
ENCODING 258
SWIDTH 514 0
DWIDTH 10 0
BBX 9 16 0 0
BITMAP
3200
3E00
1C00
0000
1C00
1E00
1E00
3600
3600
3300
3300
7F00
7F00
6380
6180
E180
ENDCHAR
STARTCHAR 0103
ENCODING 259
SWIDTH 514 0
DWIDTH 10 0
BBX 7 13 1 0
BITMAP
64
7C
38
00
7C
7E
06
7E
FE
C6
C6
FE
7E
ENDCHAR
STARTCHAR 0104
ENCODING 260
SWIDTH 514 0
DWIDTH 10 0
BBX 10 15 0 -3
BITMAP
1C00
1E00
1E00
3600
3600
3300
3300
7F00
7F00
6380
6180
E180
0180
0300
03C0
ENDCHAR
STARTCHAR 0105
ENCODING 261
SWIDTH 514 0
DWIDTH 10 0
BBX 7 12 1 -3
BITMAP
7C
7E
06
7E
FE
C6
C6
FE
7E
0C
0C
0E
ENDCHAR
STARTCHAR 0106
ENCODING 262
SWIDTH 514 0
DWIDTH 10 0
BBX 8 16 1 0
BITMAP
04
1E
18
00
3E
7F
E1
C0
C0
C0
C0
C0
C0
E1
7F
3E
ENDCHAR
STARTCHAR 0107
ENCODING 263
SWIDTH 514 0
DWIDTH 10 0
BBX 8 13 1 0
BITMAP
04
1E
10
00
3F
7E
E0
C0
C0
C0
E0
7F
3F
ENDCHAR
STARTCHAR 0108
ENCODING 264
SWIDTH 514 0
DWIDTH 10 0
BBX 8 16 1 0
BITMAP
08
1E
12
00
3E
7F
E1
C0
C0
C0
C0
C0
C0
E1
7F
3E
ENDCHAR
STARTCHAR 0109
ENCODING 265
SWIDTH 514 0
DWIDTH 10 0
BBX 8 13 1 0
BITMAP
08
1E
36
00
3F
7E
E0
C0
C0
C0
E0
7F
3F
ENDCHAR
STARTCHAR 010A
ENCODING 266
SWIDTH 514 0
DWIDTH 10 0
BBX 8 16 1 0
BITMAP
0C
1C
0C
00
3E
7F
E1
C0
C0
C0
C0
C0
C0
E1
7F
3E
ENDCHAR
STARTCHAR 010B
ENCODING 267
SWIDTH 514 0
DWIDTH 10 0
BBX 8 13 1 0
BITMAP
0C
1C
0C
00
3F
7E
E0
C0
C0
C0
E0
7F
3F
ENDCHAR
STARTCHAR 010C
ENCODING 268
SWIDTH 514 0
DWIDTH 10 0
BBX 8 16 1 0
BITMAP
12
1E
08
00
3E
7F
E1
C0
C0
C0
C0
C0
C0
E1
7F
3E
ENDCHAR
STARTCHAR 010D
ENCODING 269
SWIDTH 514 0
DWIDTH 10 0
BBX 8 13 1 0
BITMAP
12
1E
08
00
3F
7E
E0
C0
C0
C0
E0
7F
3F
ENDCHAR
STARTCHAR 010E
ENCODING 270
SWIDTH 514 0
DWIDTH 10 0
BBX 8 16 1 0
BITMAP
48
78
30
00
F8
FE
C6
C7
C7
C3
C3
C7
C7
CE
FE
F8
ENDCHAR
STARTCHAR 010F
ENCODING 271
SWIDTH 514 0
DWIDTH 10 0
BBX 10 13 0 0
BITMAP
06C0
06C0
06C0
0680
3E00
7E00
E600
E600
E600
E600
6600
7E00
3E00
ENDCHAR
STARTCHAR 0110
ENCODING 272
SWIDTH 514 0
DWIDTH 10 0
BBX 9 12 0 0
BITMAP
7C00
7F00
7300
7380
7180
F980
F980
7380
7380
7300
7F00
7C00
ENDCHAR
STARTCHAR 0111
ENCODING 273
SWIDTH 514 0
DWIDTH 10 0
BBX 8 13 1 0
BITMAP
06
3F
3F
06
7E
FE
C6
C6
C6
C6
C6
FE
7E
ENDCHAR
STARTCHAR 0112
ENCODING 274
SWIDTH 514 0
DWIDTH 10 0
BBX 8 15 1 0
BITMAP
7E
7E
00
FE
FE
E0
E0
E0
FE
FE
E0
E0
E0
FF
FF
ENDCHAR
STARTCHAR 0113
ENCODING 275
SWIDTH 514 0
DWIDTH 10 0
BBX 8 12 1 0
BITMAP
7E
7E
00
3C
7E
E6
C3
FF
FF
C0
7E
3E
ENDCHAR
STARTCHAR 0114
ENCODING 276
SWIDTH 514 0
DWIDTH 10 0
BBX 8 16 1 0
BITMAP
64
7C
38
00
FE
FE
E0
E0
E0
FE
FE
E0
E0
E0
FF
FF
ENDCHAR
STARTCHAR 0115
ENCODING 277
SWIDTH 514 0
DWIDTH 10 0
BBX 8 13 1 0
BITMAP
64
7C
38
00
3C
7E
E6
C3
FF
FF
C0
7E
3E
ENDCHAR
STARTCHAR 0116
ENCODING 278
SWIDTH 514 0
DWIDTH 10 0
BBX 8 16 1 0
BITMAP
18
38
18
00
FE
FE
E0
E0
E0
FE
FE
E0
E0
E0
FF
FF
ENDCHAR
STARTCHAR 0117
ENCODING 279
SWIDTH 514 0
DWIDTH 10 0
BBX 8 13 1 0
BITMAP
18
38
18
00
3C
7E
E6
C3
FF
FF
C0
7E
3E
ENDCHAR
STARTCHAR 0118
ENCODING 280
SWIDTH 514 0
DWIDTH 10 0
BBX 8 15 1 -3
BITMAP
FE
FE
E0
E0
E0
FE
FE
E0
E0
E0
FF
FF
06
06
07
ENDCHAR
STARTCHAR 0119
ENCODING 281
SWIDTH 514 0
DWIDTH 10 0
BBX 8 12 1 -3
BITMAP
3C
7E
E6
C3
FF
FF
C0
7E
3E
0C
0C
0E
ENDCHAR
STARTCHAR 011A
ENCODING 282
SWIDTH 514 0
DWIDTH 10 0
BBX 8 16 1 0
BITMAP
24
3C
10
00
FE
FE
E0
E0
E0
FE
FE
E0
E0
E0
FF
FF
ENDCHAR
STARTCHAR 011B
ENCODING 283
SWIDTH 514 0
DWIDTH 10 0
BBX 8 13 1 0
BITMAP
24
3C
10
00
3C
7E
E6
C3
FF
FF
C0
7E
3E
ENDCHAR
STARTCHAR 011C
ENCODING 284
SWIDTH 514 0
DWIDTH 10 0
BBX 8 16 1 0
BITMAP
08
1E
36
00
3F
7F
E2
C0
C0
C0
C7
C7
C7
E7
7F
3F
ENDCHAR
STARTCHAR 011D
ENCODING 285
SWIDTH 514 0
DWIDTH 10 0
BBX 7 16 1 -3
BITMAP
10
3C
24
00
3E
FE
E6
C6
C6
C6
FE
7E
06
8E
FE
FC
ENDCHAR
STARTCHAR 011E
ENCODING 286
SWIDTH 514 0
DWIDTH 10 0
BBX 8 16 1 0
BITMAP
32
3E
1C
00
3F
7F
E2
C0
C0
C0
C7
C7
C7
E7
7F
3F
ENDCHAR
STARTCHAR 011F
ENCODING 287
SWIDTH 514 0
DWIDTH 10 0
BBX 7 16 1 -3
BITMAP
64
7C
38
00
3E
FE
E6
C6
C6
C6
FE
7E
06
8E
FE
FC
ENDCHAR
STARTCHAR 0120
ENCODING 288
SWIDTH 514 0
DWIDTH 10 0
BBX 8 16 1 0
BITMAP
0C
1C
0C
00
3F
7F
E2
C0
C0
C0
C7
C7
C7
E7
7F
3F
ENDCHAR
STARTCHAR 0121
ENCODING 289
SWIDTH 514 0
DWIDTH 10 0
BBX 7 16 1 -3
BITMAP
18
38
18
00
3E
FE
E6
C6
C6
C6
FE
7E
06
8E
FE
FC
ENDCHAR
STARTCHAR 0122
ENCODING 290
SWIDTH 514 0
DWIDTH 10 0
BBX 8 15 1 -3
BITMAP
3F
7F
E2
C0
C0
C0
C7
C7
C7
E7
7F
3F
00
18
38
ENDCHAR
STARTCHAR 0123
ENCODING 291
SWIDTH 514 0
DWIDTH 10 0
BBX 7 16 1 -3
BITMAP
0C
18
18
00
3E
FE
E6
C6
C6
C6
FE
7E
06
8E
FE
FC
ENDCHAR
STARTCHAR 0124
ENCODING 292
SWIDTH 514 0
DWIDTH 10 0
BBX 8 16 1 0
BITMAP
10
3C
24
00
C7
C7
C7
C7
C7
FF
FF
C7
C7
C7
C7
C7
ENDCHAR
STARTCHAR 0125
ENCODING 293
SWIDTH 514 0
DWIDTH 10 0
BBX 7 16 1 0
BITMAP
20
78
D8
00
E0
E0
E0
FC
FE
E6
E6
E6
E6
E6
E6
E6
ENDCHAR
STARTCHAR 0126
ENCODING 294
SWIDTH 514 0
DWIDTH 10 0
BBX 9 12 0 0
BITMAP
7300
FF80
FF80
7300
7300
7F00
7F00
7300
7300
7300
7300
7300
ENDCHAR
STARTCHAR 0127
ENCODING 295
SWIDTH 514 0
DWIDTH 10 0
BBX 8 13 0 0
BITMAP
30
FC
FC
30
3E
3F
33
33
33
33
33
33
33
ENDCHAR
STARTCHAR 0128
ENCODING 296
SWIDTH 514 0
DWIDTH 10 0
BBX 8 16 1 0
BITMAP
34
7E
4C
00
FF
FF
18
18
18
18
18
18
18
18
FF
FF
ENDCHAR
STARTCHAR 0129
ENCODING 297
SWIDTH 514 0
DWIDTH 10 0
BBX 8 13 1 0
BITMAP
64
7C
5C
00
F0
F0
30
30
30
30
39
1F
1E
ENDCHAR
STARTCHAR 012A
ENCODING 298
SWIDTH 514 0
DWIDTH 10 0
BBX 8 15 1 0
BITMAP
7E
7E
00
FF
FF
18
18
18
18
18
18
18
18
FF
FF
ENDCHAR
STARTCHAR 012B
ENCODING 299
SWIDTH 514 0
DWIDTH 10 0
BBX 8 12 1 0
BITMAP
7C
7C
00
F0
F0
30
30
30
30
39
1F
1E
ENDCHAR
STARTCHAR 012C
ENCODING 300
SWIDTH 514 0
DWIDTH 10 0
BBX 8 16 1 0
BITMAP
64
7C
38
00
FF
FF
18
18
18
18
18
18
18
18
FF
FF
ENDCHAR
STARTCHAR 012D
ENCODING 301
SWIDTH 514 0
DWIDTH 10 0
BBX 8 13 1 0
BITMAP
4C
7C
38
00
F0
F0
30
30
30
30
39
1F
1E
ENDCHAR
STARTCHAR 012E
ENCODING 302
SWIDTH 514 0
DWIDTH 10 0
BBX 8 15 1 -3
BITMAP
FF
FF
18
18
18
18
18
18
18
18
FF
FF
38
30
38
ENDCHAR
STARTCHAR 012F
ENCODING 303
SWIDTH 514 0
DWIDTH 10 0
BBX 8 16 1 -3
BITMAP
30
30
00
F0
F0
30
30
30
30
30
38
1F
1F
06
0C
07
ENDCHAR
STARTCHAR 0130
ENCODING 304
SWIDTH 514 0
DWIDTH 10 0
BBX 8 16 1 0
BITMAP
18
38
18
00
FF
FF
18
18
18
18
18
18
18
18
FF
FF
ENDCHAR
STARTCHAR 0131
ENCODING 305
SWIDTH 514 0
DWIDTH 10 0
BBX 8 9 1 0
BITMAP
F0
F0
30
30
30
30
39
1F
1E
ENDCHAR
STARTCHAR 0132
ENCODING 306
SWIDTH 514 0
DWIDTH 10 0
BBX 9 12 0 0
BITMAP
E180
E180
E180
E180
E180
E180
E180
E180
E180
E180
EF80
EF00
ENDCHAR
STARTCHAR 0133
ENCODING 307
SWIDTH 514 0
DWIDTH 10 0
BBX 7 16 1 -3
BITMAP
E6
E6
00
E6
E6
E6
E6
E6
E6
E6
E6
E6
E6
06
1E
3C
ENDCHAR
STARTCHAR 0134
ENCODING 308
SWIDTH 514 0
DWIDTH 10 0
BBX 7 16 1 0
BITMAP
08
1E
12
00
7E
7E
06
06
06
06
06
06
06
8E
FE
78
ENDCHAR
STARTCHAR 0135
ENCODING 309
SWIDTH 514 0
DWIDTH 10 0
BBX 7 16 1 -3
BITMAP
18
3C
24
00
7E
7E
0E
0E
0E
0E
0E
0E
0E
8C
FC
78
ENDCHAR
STARTCHAR 0136
ENCODING 310
SWIDTH 514 0
DWIDTH 10 0
BBX 8 15 1 -3
BITMAP
C7
CE
CC
DC
D8
F0
F8
DC
CE
CE
C7
C7
00
18
38
ENDCHAR
STARTCHAR 0137
ENCODING 311
SWIDTH 514 0
DWIDTH 10 0
BBX 8 16 1 -3
BITMAP
E0
E0
E0
E0
E7
EE
FC
F8
F8
FC
EE
E6
E7
00
18
38
ENDCHAR
STARTCHAR 0138
ENCODING 312
SWIDTH 514 0
DWIDTH 10 0
BBX 8 9 1 0
BITMAP
E7
EE
FC
F8
F8
FC
EE
E6
E7
ENDCHAR
STARTCHAR 0139
ENCODING 313
SWIDTH 514 0
DWIDTH 10 0
BBX 8 16 1 0
BITMAP
10
78
60
00
E0
E0
E0
E0
E0
E0
E0
E0
E0
E0
FF
FF
ENDCHAR
STARTCHAR 013A
ENCODING 314
SWIDTH 514 0
DWIDTH 10 0
BBX 8 16 1 0
BITMAP
08
3C
30
00
F0
F0
30
30
30
30
30
30
30
38
1F
1F
ENDCHAR
STARTCHAR 013B
ENCODING 315
SWIDTH 514 0
DWIDTH 10 0
BBX 8 15 1 -3
BITMAP
E0
E0
E0
E0
E0
E0
E0
E0
E0
E0
FF
FF
00
18
38
ENDCHAR
STARTCHAR 013C
ENCODING 316
SWIDTH 514 0
DWIDTH 10 0
BBX 8 16 1 -3
BITMAP
F0
F0
30
30
30
30
30
30
30
30
38
1F
1F
00
0C
1C
ENDCHAR
STARTCHAR 013D
ENCODING 317
SWIDTH 514 0
DWIDTH 10 0
BBX 8 12 1 0
BITMAP
EC
EC
EC
EC
E0
E0
E0
E0
E0
E0
FF
FF
ENDCHAR
STARTCHAR 013E
ENCODING 318
SWIDTH 514 0
DWIDTH 10 0
BBX 8 13 1 0
BITMAP
F3
F3
33
33
30
30
30
30
30
30
38
1F
1F
ENDCHAR
STARTCHAR 013F
ENCODING 319
SWIDTH 514 0
DWIDTH 10 0
BBX 8 12 1 0
BITMAP
E0
E0
E0
E7
E7
E0
E0
E0
E0
E0
FF
FF
ENDCHAR
STARTCHAR 0140
ENCODING 320
SWIDTH 514 0
DWIDTH 10 0
BBX 10 13 1 0
BITMAP
F000
F000
3000
3000
31C0
31C0
3000
3000
3000
3000
3800
1F00
1F00
ENDCHAR
STARTCHAR 0141
ENCODING 321
SWIDTH 514 0
DWIDTH 10 0
BBX 9 12 0 0
BITMAP
3000
3000
3000
3400
3E00
7800
F000
B000
3000
3000
3F80
3F80
ENDCHAR
STARTCHAR 0142
ENCODING 322
SWIDTH 514 0
DWIDTH 10 0
BBX 8 13 1 0
BITMAP
F0
F0
30
30
3C
3C
F0
70
30
30
38
1F
1F
ENDCHAR
STARTCHAR 0143
ENCODING 323
SWIDTH 514 0
DWIDTH 10 0
BBX 8 16 1 0
BITMAP
08
3C
30
00
C3
E3
E3
F3
F3
DB
DB
CF
CF
C7
C7
C3
ENDCHAR
STARTCHAR 0144
ENCODING 324
SWIDTH 514 0
DWIDTH 10 0
BBX 7 13 1 0
BITMAP
08
3C
30
00
FC
FE
E6
E6
E6
E6
E6
E6
E6
ENDCHAR
STARTCHAR 0145
ENCODING 325
SWIDTH 514 0
DWIDTH 10 0
BBX 8 15 1 -3
BITMAP
C3
E3
E3
F3
F3
DB
DB
CF
CF
C7
C7
C3
00
18
38
ENDCHAR
STARTCHAR 0146
ENCODING 326
SWIDTH 514 0
DWIDTH 10 0
BBX 7 12 1 -3
BITMAP
FC
FE
E6
E6
E6
E6
E6
E6
E6
00
18
30
ENDCHAR
STARTCHAR 0147
ENCODING 327
SWIDTH 514 0
DWIDTH 10 0
BBX 8 16 1 0
BITMAP
24
3C
10
00
C3
E3
E3
F3
F3
DB
DB
CF
CF
C7
C7
C3
ENDCHAR
STARTCHAR 0148
ENCODING 328
SWIDTH 514 0
DWIDTH 10 0
BBX 7 13 1 0
BITMAP
24
3C
10
00
FC
FE
E6
E6
E6
E6
E6
E6
E6
ENDCHAR
STARTCHAR 0149
ENCODING 329
SWIDTH 514 0
DWIDTH 10 0
BBX 9 14 0 0
BITMAP
C000
C000
C000
8000
0000
3E00
3F00
3380
3380
3380
3380
3380
3380
3380
ENDCHAR
STARTCHAR 014A
ENCODING 330
SWIDTH 514 0
DWIDTH 10 0
BBX 8 15 1 -3
BITMAP
C3
E3
E3
F3
F3
DB
DB
CF
CF
C7
C7
C3
07
0E
0E
ENDCHAR
STARTCHAR 014B
ENCODING 331
SWIDTH 514 0
DWIDTH 10 0
BBX 7 12 1 -3
BITMAP
FC
FE
E6
E6
E6
E6
E6
E6
E6
06
1E
1C
ENDCHAR
STARTCHAR 014C
ENCODING 332
SWIDTH 514 0
DWIDTH 10 0
BBX 8 15 1 0
BITMAP
7E
7E
00
3C
7E
E6
C7
C3
C3
C3
C3
C7
E6
7E
3C
ENDCHAR
STARTCHAR 014D
ENCODING 333
SWIDTH 514 0
DWIDTH 10 0
BBX 8 12 1 0
BITMAP
7E
7E
00
3C
FE
E7
C7
C3
C7
C7
7E
3C
ENDCHAR
STARTCHAR 014E
ENCODING 334
SWIDTH 514 0
DWIDTH 10 0
BBX 8 16 1 0
BITMAP
64
7C
38
00
3C
7E
E6
C7
C3
C3
C3
C3
C7
E6
7E
3C
ENDCHAR
STARTCHAR 014F
ENCODING 335
SWIDTH 514 0
DWIDTH 10 0
BBX 8 13 1 0
BITMAP
64
7C
38
00
3C
FE
E7
C7
C3
C7
C7
7E
3C
ENDCHAR
STARTCHAR 0150
ENCODING 336
SWIDTH 514 0
DWIDTH 10 0
BBX 8 16 1 0
BITMAP
13
36
64
00
3C
7E
E6
C7
C3
C3
C3
C3
C7
E6
7E
3C
ENDCHAR
STARTCHAR 0151
ENCODING 337
SWIDTH 514 0
DWIDTH 10 0
BBX 8 13 1 0
BITMAP
13
36
64
00
3C
FE
E7
C7
C3
C7
C7
7E
3C
ENDCHAR
STARTCHAR 0152
ENCODING 338
SWIDTH 514 0
DWIDTH 10 0
BBX 9 12 0 0
BITMAP
3F80
7F80
6600
6600
E600
E780
E780
E600
6600
6600
7F80
3F80
ENDCHAR
STARTCHAR 0153
ENCODING 339
SWIDTH 514 0
DWIDTH 10 0
BBX 9 9 0 0
BITMAP
3300
7F80
4D80
CC80
CF80
CF80
6C00
7F80
3380
ENDCHAR
STARTCHAR 0154
ENCODING 340
SWIDTH 514 0
DWIDTH 10 0
BBX 8 16 1 0
BITMAP
08
3C
30
00
FC
FE
C6
C6
C7
C6
FE
FC
CC
C6
C7
C3
ENDCHAR
STARTCHAR 0155
ENCODING 341
SWIDTH 514 0
DWIDTH 10 0
BBX 7 13 2 0
BITMAP
08
3C
20
00
FE
FC
C0
C0
C0
C0
C0
C0
C0
ENDCHAR
STARTCHAR 0156
ENCODING 342
SWIDTH 514 0
DWIDTH 10 0
BBX 8 15 1 -3
BITMAP
FC
FE
C6
C6
C7
C6
FE
FC
CC
C6
C7
C3
00
18
38
ENDCHAR
STARTCHAR 0157
ENCODING 343
SWIDTH 514 0
DWIDTH 10 0
BBX 8 12 1 -3
BITMAP
7F
7E
60
60
60
60
60
60
60
00
60
E0
ENDCHAR
STARTCHAR 0158
ENCODING 344
SWIDTH 514 0
DWIDTH 10 0
BBX 8 16 1 0
BITMAP
6C
78
10
00
FC
FE
C6
C6
C7
C6
FE
FC
CC
C6
C7
C3
ENDCHAR
STARTCHAR 0159
ENCODING 345
SWIDTH 514 0
DWIDTH 10 0
BBX 7 13 2 0
BITMAP
6C
78
10
00
FE
FC
C0
C0
C0
C0
C0
C0
C0
ENDCHAR
STARTCHAR 015A
ENCODING 346
SWIDTH 514 0
DWIDTH 10 0
BBX 8 16 1 0
BITMAP
08
3C
30
00
3C
FE
E2
C0
E0
7C
3E
07
07
87
FE
7C
ENDCHAR
STARTCHAR 015B
ENCODING 347
SWIDTH 514 0
DWIDTH 10 0
BBX 7 13 1 0
BITMAP
08
3C
30
00
3E
7E
E0
F0
7C
0E
86
FE
7C
ENDCHAR
STARTCHAR 015C
ENCODING 348
SWIDTH 514 0
DWIDTH 10 0
BBX 8 16 1 0
BITMAP
10
3C
24
00
3C
FE
E2
C0
E0
7C
3E
07
07
87
FE
7C
ENDCHAR
STARTCHAR 015D
ENCODING 349
SWIDTH 514 0
DWIDTH 10 0
BBX 7 13 1 0
BITMAP
10
3C
24
00
3E
7E
E0
F0
7C
0E
86
FE
7C
ENDCHAR
STARTCHAR 015E
ENCODING 350
SWIDTH 514 0
DWIDTH 10 0
BBX 8 15 1 -3
BITMAP
3C
FE
E2
C0
F0
7C
3E
07
07
87
FE
7C
38
18
78
ENDCHAR
STARTCHAR 015F
ENCODING 351
SWIDTH 514 0
DWIDTH 10 0
BBX 7 12 1 -3
BITMAP
3E
7E
E2
F0
7C
0E
86
FE
7C
18
08
38
ENDCHAR
STARTCHAR 0160
ENCODING 352
SWIDTH 514 0
DWIDTH 10 0
BBX 8 16 1 0
BITMAP
24
3C
10
00
3C
FE
E2
C0
E0
7C
3E
07
07
87
FE
7C
ENDCHAR
STARTCHAR 0161
ENCODING 353
SWIDTH 514 0
DWIDTH 10 0
BBX 7 13 1 0
BITMAP
24
3C
10
00
3E
7E
E0
F0
7C
0E
86
FE
7C
ENDCHAR
STARTCHAR 0162
ENCODING 354
SWIDTH 514 0
DWIDTH 10 0
BBX 9 15 0 -3
BITMAP
FF80
FF80
0C00
0C00
0C00
0C00
0C00
0C00
0C00
0C00
0C00
0C00
0800
0400
1C00
ENDCHAR
STARTCHAR 0163
ENCODING 355
SWIDTH 514 0
DWIDTH 10 0
BBX 8 15 1 -3
BITMAP
30
30
30
FF
FF
30
30
30
30
30
3F
1F
0C
06
1C
ENDCHAR
STARTCHAR 0164
ENCODING 356
SWIDTH 514 0
DWIDTH 10 0
BBX 9 16 0 0
BITMAP
1200
1E00
0800
0000
FF80
FF80
0C00
0C00
0C00
0C00
0C00
0C00
0C00
0C00
0C00
0C00
ENDCHAR
STARTCHAR 0165
ENCODING 357
SWIDTH 514 0
DWIDTH 10 0
BBX 8 13 1 0
BITMAP
06
36
36
30
FF
FF
30
30
30
30
30
3F
1F
ENDCHAR
STARTCHAR 0166
ENCODING 358
SWIDTH 514 0
DWIDTH 10 0
BBX 9 12 0 0
BITMAP
FF80
FF80
0C00
0C00
0C00
7F00
7F00
0C00
0C00
0C00
0C00
0C00
ENDCHAR
STARTCHAR 0167
ENCODING 359
SWIDTH 514 0
DWIDTH 10 0
BBX 8 12 1 0
BITMAP
30
30
30
FF
FF
30
30
FF
FF
30
3F
1F
ENDCHAR
STARTCHAR 0168
ENCODING 360
SWIDTH 514 0
DWIDTH 10 0
BBX 8 16 1 0
BITMAP
34
7E
4C
00
C7
C7
C7
C7
C7
C7
C7
C7
C7
C7
FE
7C
ENDCHAR
STARTCHAR 0169
ENCODING 361
SWIDTH 514 0
DWIDTH 10 0
BBX 7 13 1 0
BITMAP
34
7E
4C
00
C6
C6
C6
C6
C6
E6
E6
7E
3E
ENDCHAR
STARTCHAR 016A
ENCODING 362
SWIDTH 514 0
DWIDTH 10 0
BBX 8 15 1 0
BITMAP
7E
7E
00
C7
C7
C7
C7
C7
C7
C7
C7
C7
C7
FE
7C
ENDCHAR
STARTCHAR 016B
ENCODING 363
SWIDTH 514 0
DWIDTH 10 0
BBX 7 12 1 0
BITMAP
7E
7E
00
C6
C6
C6
C6
C6
E6
E6
7E
3E
ENDCHAR
STARTCHAR 016C
ENCODING 364
SWIDTH 514 0
DWIDTH 10 0
BBX 8 16 1 0
BITMAP
64
7C
38
00
C7
C7
C7
C7
C7
C7
C7
C7
C7
C7
FE
7C
ENDCHAR
STARTCHAR 016D
ENCODING 365
SWIDTH 514 0
DWIDTH 10 0
BBX 7 13 1 0
BITMAP
64
7C
38
00
C6
C6
C6
C6
C6
E6
E6
7E
3E
ENDCHAR
STARTCHAR 016E
ENCODING 366
SWIDTH 514 0
DWIDTH 10 0
BBX 8 16 1 0
BITMAP
38
2C
2C
38
C7
C7
C7
C7
C7
C7
C7
C7
C7
C7
FE
7C
ENDCHAR
STARTCHAR 016F
ENCODING 367
SWIDTH 514 0
DWIDTH 10 0
BBX 7 13 1 0
BITMAP
38
2C
2C
38
C6
C6
C6
C6
C6
E6
E6
7E
3E
ENDCHAR
STARTCHAR 0170
ENCODING 368
SWIDTH 514 0
DWIDTH 10 0
BBX 8 16 1 0
BITMAP
13
36
64
00
C7
C7
C7
C7
C7
C7
C7
C7
C7
C7
FE
7C
ENDCHAR
STARTCHAR 0171
ENCODING 369
SWIDTH 514 0
DWIDTH 10 0
BBX 7 13 1 0
BITMAP
12
36
44
00
C6
C6
C6
C6
C6
E6
E6
7E
3E
ENDCHAR
STARTCHAR 0172
ENCODING 370
SWIDTH 514 0
DWIDTH 10 0
BBX 8 15 1 -3
BITMAP
C7
C7
C7
C7
C7
C7
C7
C7
C7
C7
FE
7C
18
18
1C
ENDCHAR
STARTCHAR 0173
ENCODING 371
SWIDTH 514 0
DWIDTH 10 0
BBX 7 12 1 -3
BITMAP
C6
C6
C6
C6
C6
E6
E6
7E
3E
0C
0C
0E
ENDCHAR
STARTCHAR 0174
ENCODING 372
SWIDTH 514 0
DWIDTH 10 0
BBX 9 16 0 0
BITMAP
0800
1E00
1200
0000
E180
E180
6180
6180
6D80
6D80
7D80
5F80
5780
7380
7380
6300
ENDCHAR
STARTCHAR 0175
ENCODING 373
SWIDTH 514 0
DWIDTH 10 0
BBX 9 13 0 0
BITMAP
0800
1E00
1200
0000
C180
C180
CD80
4D80
5D80
7F80
7700
7300
7300
ENDCHAR
STARTCHAR 0176
ENCODING 374
SWIDTH 514 0
DWIDTH 10 0
BBX 9 16 0 0
BITMAP
0800
1E00
1200
0000
E180
6380
7300
3300
3600
1E00
1C00
0C00
0C00
0C00
0C00
0C00
ENDCHAR
STARTCHAR 0177
ENCODING 375
SWIDTH 514 0
DWIDTH 10 0
BBX 9 16 0 -3
BITMAP
0800
1E00
1200
0000
6380
7380
7300
3300
3300
1E00
1E00
1E00
0C00
1C00
7800
F000
ENDCHAR
STARTCHAR 0178
ENCODING 376
SWIDTH 514 0
DWIDTH 10 0
BBX 9 16 0 0
BITMAP
3300
3700
3300
0000
E180
6380
7300
3300
3600
1E00
1C00
0C00
0C00
0C00
0C00
0C00
ENDCHAR
STARTCHAR 0179
ENCODING 377
SWIDTH 514 0
DWIDTH 10 0
BBX 8 16 1 0
BITMAP
08
3C
30
00
FE
FE
0E
0C
1C
18
38
70
60
E0
FF
FF
ENDCHAR
STARTCHAR 017A
ENCODING 378
SWIDTH 514 0
DWIDTH 10 0
BBX 7 13 1 0
BITMAP
08
3C
30
00
FE
FE
0E
1C
38
30
60
FE
FE
ENDCHAR
STARTCHAR 017B
ENCODING 379
SWIDTH 514 0
DWIDTH 10 0
BBX 8 16 1 0
BITMAP
18
38
18
00
FE
FE
0E
0C
1C
18
38
70
60
E0
FF
FF
ENDCHAR
STARTCHAR 017C
ENCODING 380
SWIDTH 514 0
DWIDTH 10 0
BBX 7 13 1 0
BITMAP
18
38
18
00
FE
FE
0E
1C
38
30
60
FE
FE
ENDCHAR
STARTCHAR 017D
ENCODING 381
SWIDTH 514 0
DWIDTH 10 0
BBX 8 16 1 0
BITMAP
24
3C
10
00
FE
FE
0E
0C
1C
18
38
70
60
E0
FF
FF
ENDCHAR
STARTCHAR 017E
ENCODING 382
SWIDTH 514 0
DWIDTH 10 0
BBX 7 13 1 0
BITMAP
24
3C
10
00
FE
FE
0E
1C
38
30
60
FE
FE
ENDCHAR
STARTCHAR 017F
ENCODING 383
SWIDTH 514 0
DWIDTH 10 0
BBX 6 13 3 0
BITMAP
7C
FC
C0
C0
C0
C0
C0
C0
C0
C0
C0
C0
C0
ENDCHAR
STARTCHAR 0180
ENCODING 384
SWIDTH 514 0
DWIDTH 10 0
BBX 9 13 0 0
BITMAP
7000
FC00
FC00
7000
7E00
7F00
7380
7380
7180
7380
7380
7F00
7E00
ENDCHAR
STARTCHAR 0181
ENCODING 385
SWIDTH 514 0
DWIDTH 10 0
BBX 9 12 0 0
BITMAP
7E00
FF00
D980
D980
1B00
1E00
1F80
1980
1980
1980
1F80
1F00
ENDCHAR
STARTCHAR 0182
ENCODING 386
SWIDTH 514 0
DWIDTH 10 0
BBX 8 12 1 0
BITMAP
FE
FE
C0
C0
FC
FE
C7
C3
C3
C7
FE
FC
ENDCHAR
STARTCHAR 0183
ENCODING 387
SWIDTH 514 0
DWIDTH 10 0
BBX 8 13 1 0
BITMAP
FE
FE
E0
E0
FC
FE
E7
E7
E3
E7
E7
FE
FC
ENDCHAR
STARTCHAR 0184
ENCODING 388
SWIDTH 514 0
DWIDTH 10 0
BBX 9 13 0 0
BITMAP
3000
F000
F000
7000
7E00
7F00
7380
7380
7180
7380
7380
7F00
7E00
ENDCHAR
STARTCHAR 0185
ENCODING 389
SWIDTH 514 0
DWIDTH 10 0
BBX 9 12 0 0
BITMAP
3000
7000
F000
7000
7E00
7F00
7380
7180
7180
7380
7F00
7E00
ENDCHAR
STARTCHAR 0186
ENCODING 390
SWIDTH 514 0
DWIDTH 10 0
BBX 8 12 1 0
BITMAP
F8
FE
8E
07
07
03
03
07
07
8E
FE
F8
ENDCHAR
STARTCHAR 0187
ENCODING 391
SWIDTH 514 0
DWIDTH 10 0
BBX 9 13 1 0
BITMAP
0380
3F80
7E00
E200
C000
C000
C000
C000
C000
C000
E200
7E00
3C00
ENDCHAR
STARTCHAR 0188
ENCODING 392
SWIDTH 514 0
DWIDTH 10 0
BBX 9 11 1 0
BITMAP
0380
0380
3E00
7C00
E000
C000
C000
C000
E000
7E00
3E00
ENDCHAR
STARTCHAR 0189
ENCODING 393
SWIDTH 514 0
DWIDTH 10 0
BBX 9 12 0 0
BITMAP
7C00
7F00
7300
7380
7180
F980
F980
7380
7380
7300
7F00
7C00
ENDCHAR
STARTCHAR 018A
ENCODING 394
SWIDTH 514 0
DWIDTH 10 0
BBX 9 12 0 0
BITMAP
7E00
FF00
DB80
D980
1980
1980
1980
1980
1980
1B80
1F00
1E00
ENDCHAR
STARTCHAR 018B
ENCODING 395
SWIDTH 514 0
DWIDTH 10 0
BBX 7 12 1 0
BITMAP
7E
7E
06
06
7E
FE
C6
C6
C6
E6
FE
3E
ENDCHAR
STARTCHAR 018C
ENCODING 396
SWIDTH 514 0
DWIDTH 10 0
BBX 7 13 1 0
BITMAP
FE
FE
06
06
7E
FE
C6
C6
C6
C6
E6
FE
7E
ENDCHAR
STARTCHAR 018D
ENCODING 397
SWIDTH 514 0
DWIDTH 10 0
BBX 8 12 1 -3
BITMAP
7C
FE
C7
C3
C3
C6
E4
7C
1E
0E
7C
78
ENDCHAR
STARTCHAR 018E
ENCODING 398
SWIDTH 514 0
DWIDTH 10 0
BBX 8 12 1 0
BITMAP
7F
7F
07
07
07
7F
7F
07
07
07
FF
FF
ENDCHAR
STARTCHAR 018F
ENCODING 399
SWIDTH 514 0
DWIDTH 10 0
BBX 9 12 0 0
BITMAP
7C00
7E00
0300
0380
0180
FF80
FF80
6180
6380
6300
3F00
1E00
ENDCHAR
STARTCHAR 0190
ENCODING 400
SWIDTH 514 0
DWIDTH 10 0
BBX 8 12 1 0
BITMAP
3E
7F
E2
C0
60
3C
FC
C0
C0
C1
FF
3E
ENDCHAR
STARTCHAR 0191
ENCODING 401
SWIDTH 514 0
DWIDTH 10 0
BBX 9 15 -1 -3
BITMAP
3F80
3F80
3800
3800
3800
3F80
3F80
3800
3800
3800
3800
3800
3000
F000
F000
ENDCHAR
STARTCHAR 0192
ENCODING 402
SWIDTH 514 0
DWIDTH 10 0
BBX 9 16 0 -3
BITMAP
0F80
1F80
1800
1800
7F80
7F80
1800
1800
1800
1800
1800
1800
1800
3800
F800
F000
ENDCHAR
STARTCHAR 0193
ENCODING 403
SWIDTH 514 0
DWIDTH 10 0
BBX 9 13 1 0
BITMAP
0380
3F80
7E00
E200
C000
C000
C000
C700
C700
C700
E700
7F00
3F00
ENDCHAR
STARTCHAR 0194
ENCODING 404
SWIDTH 514 0
DWIDTH 10 0
BBX 9 15 0 -3
BITMAP
E180
6380
6300
3300
3600
3E00
1E00
1C00
1C00
1E00
3600
3300
3300
3F00
1E00
ENDCHAR
STARTCHAR 0195
ENCODING 405
SWIDTH 514 0
DWIDTH 10 0
BBX 8 13 1 0
BITMAP
80
80
80
80
F3
FB
9B
9B
9B
9B
9B
9F
8E
ENDCHAR
STARTCHAR 0196
ENCODING 406
SWIDTH 514 0
DWIDTH 10 0
BBX 8 12 1 0
BITMAP
FE
FE
30
30
30
30
30
30
30
30
3E
1F
ENDCHAR
STARTCHAR 0197
ENCODING 407
SWIDTH 514 0
DWIDTH 10 0
BBX 8 12 1 0
BITMAP
FF
FF
18
18
18
7E
7E
18
18
18
FF
FF
ENDCHAR
STARTCHAR 0198
ENCODING 408
SWIDTH 514 0
DWIDTH 10 0
BBX 9 12 1 0
BITMAP
C380
C700
CC00
DC00
D800
F000
F800
DC00
CE00
CE00
C700
C700
ENDCHAR
STARTCHAR 0199
ENCODING 409
SWIDTH 514 0
DWIDTH 10 0
BBX 8 13 1 0
BITMAP
78
F0
E0
E0
E7
EE
EC
F8
F8
FC
EE
E6
E7
ENDCHAR
STARTCHAR 019A
ENCODING 410
SWIDTH 514 0
DWIDTH 10 0
BBX 8 13 1 0
BITMAP
F8
F8
18
18
18
18
FE
FE
18
18
18
1F
0F
ENDCHAR
STARTCHAR 019B
ENCODING 411
SWIDTH 514 0
DWIDTH 10 0
BBX 9 13 0 0
BITMAP
F000
7800
1F00
7C00
6C00
0E00
1E00
1E00
3700
3300
7300
6380
6380
ENDCHAR
STARTCHAR 019C
ENCODING 412
SWIDTH 514 0
DWIDTH 10 0
BBX 9 12 0 0
BITMAP
C180
C180
C180
C180
CD80
CD80
CD80
CD80
CD80
CD80
7F80
7F80
ENDCHAR
STARTCHAR 019D
ENCODING 413
SWIDTH 514 0
DWIDTH 10 0
BBX 10 15 -1 -3
BITMAP
30C0
38C0
38C0
3CC0
3CC0
36C0
36C0
33C0
33C0
31C0
31C0
30C0
3000
F000
E000
ENDCHAR
STARTCHAR 019E
ENCODING 414
SWIDTH 514 0
DWIDTH 10 0
BBX 7 12 1 -3
BITMAP
FC
FE
E6
E6
E6
E6
E6
E6
E6
06
06
06
ENDCHAR
STARTCHAR 019F
ENCODING 415
SWIDTH 514 0
DWIDTH 10 0
BBX 8 12 1 0
BITMAP
3C
7E
E6
C7
C3
FF
FF
C3
C7
E6
7E
3C
ENDCHAR
STARTCHAR 01A0
ENCODING 416
SWIDTH 514 0
DWIDTH 10 0
BBX 8 13 1 0
BITMAP
03
3F
7F
E6
C7
C3
C3
C3
C3
C7
E6
7E
3C
ENDCHAR
STARTCHAR 01A1
ENCODING 417
SWIDTH 514 0
DWIDTH 10 0
BBX 8 11 1 0
BITMAP
03
03
3F
FE
E7
C7
C3
C7
C7
7E
3C
ENDCHAR
STARTCHAR 01A2
ENCODING 418
SWIDTH 514 0
DWIDTH 10 0
BBX 8 12 1 0
BITMAP
7E
FF
DB
9B
9B
9B
9B
9B
9B
DB
F3
73
ENDCHAR
STARTCHAR 01A3
ENCODING 419
SWIDTH 514 0
DWIDTH 10 0
BBX 9 12 0 -3
BITMAP
3F00
7F80
6D80
CD80
CD80
CD80
6D80
7D80
3980
0180
0180
0180
ENDCHAR
STARTCHAR 01A4
ENCODING 420
SWIDTH 514 0
DWIDTH 10 0
BBX 9 12 0 0
BITMAP
7E00
FF00
D980
D980
1980
1980
1F00
1F00
1800
1800
1800
1800
ENDCHAR
STARTCHAR 01A5
ENCODING 421
SWIDTH 514 0
DWIDTH 10 0
BBX 8 16 1 -3
BITMAP
70
F0
E0
E0
FC
FE
E7
E7
E3
E7
E7
FE
FC
E0
E0
E0
ENDCHAR
STARTCHAR 01A6
ENCODING 422
SWIDTH 514 0
DWIDTH 10 0
BBX 9 15 1 -2
BITMAP
C000
FC00
FE00
C600
C700
C600
C600
FE00
FC00
CC00
CE00
C600
C700
0300
0380
ENDCHAR
STARTCHAR 01A7
ENCODING 423
SWIDTH 514 0
DWIDTH 10 0
BBX 8 12 1 0
BITMAP
7C
FE
46
07
0E
3E
F8
E0
C0
C2
FF
7E
ENDCHAR
STARTCHAR 01A8
ENCODING 424
SWIDTH 514 0
DWIDTH 10 0
BBX 7 9 1 0
BITMAP
7C
7E
46
3E
7C
E0
C2
FE
7E
ENDCHAR
STARTCHAR 01A9
ENCODING 425
SWIDTH 514 0
DWIDTH 10 0
BBX 8 12 1 0
BITMAP
FF
FF
60
30
38
1C
1C
38
70
E0
FF
FF
ENDCHAR
STARTCHAR 01AA
ENCODING 426
SWIDTH 514 0
DWIDTH 10 0
BBX 9 16 0 -3
BITMAP
7800
FC00
CC00
FC00
7C00
0C00
0C00
0C00
0C00
0C00
0C00
0C00
0C00
0E00
0F80
0780
ENDCHAR
STARTCHAR 01AB
ENCODING 427
SWIDTH 514 0
DWIDTH 10 0
BBX 8 15 1 -3
BITMAP
30
30
30
FF
FF
30
30
30
30
30
3F
1F
03
0F
0E
ENDCHAR
STARTCHAR 01AC
ENCODING 428
SWIDTH 514 0
DWIDTH 10 0
BBX 9 12 0 0
BITMAP
7F80
FF80
CC00
CC00
0C00
0C00
0C00
0C00
0C00
0C00
0C00
0C00
ENDCHAR
STARTCHAR 01AD
ENCODING 429
SWIDTH 514 0
DWIDTH 10 0
BBX 8 13 1 0
BITMAP
1F
3F
30
30
FF
FF
30
30
30
30
31
3F
1F
ENDCHAR
STARTCHAR 01AE
ENCODING 430
SWIDTH 514 0
DWIDTH 10 0
BBX 9 15 0 -3
BITMAP
FF80
FF80
0C00
0C00
0C00
0C00
0C00
0C00
0C00
0C00
0C00
0C00
0C00
0F00
0700
ENDCHAR
STARTCHAR 01AF
ENCODING 431
SWIDTH 514 0
DWIDTH 10 0
BBX 9 13 1 0
BITMAP
0180
C780
C700
C600
C600
C600
C600
C600
C600
C600
CE00
FC00
7800
ENDCHAR
STARTCHAR 01B0
ENCODING 432
SWIDTH 514 0
DWIDTH 10 0
BBX 8 11 1 0
BITMAP
03
03
CF
CC
CC
CC
CC
CC
CC
FC
7C
ENDCHAR
STARTCHAR 01B1
ENCODING 433
SWIDTH 514 0
DWIDTH 10 0
BBX 9 12 0 0
BITMAP
F780
F780
7300
6380
6180
E180
E180
E180
E180
6380
7F00
1E00
ENDCHAR
STARTCHAR 01B2
ENCODING 434
SWIDTH 514 0
DWIDTH 10 0
BBX 8 12 1 0
BITMAP
DC
DE
C7
C7
C3
C3
C3
C3
C7
C7
FE
7C
ENDCHAR
STARTCHAR 01B3
ENCODING 435
SWIDTH 514 0
DWIDTH 10 0
BBX 10 12 0 0
BITMAP
E1C0
6380
7300
3600
3600
3C00
1C00
1C00
1C00
1C00
1C00
1C00
ENDCHAR
STARTCHAR 01B4
ENCODING 436
SWIDTH 514 0
DWIDTH 10 0
BBX 10 12 0 -3
BITMAP
63C0
6380
7300
3600
3600
3E00
1E00
1C00
0C00
1C00
7800
F000
ENDCHAR
STARTCHAR 01B5
ENCODING 437
SWIDTH 514 0
DWIDTH 10 0
BBX 8 12 1 0
BITMAP
FE
FE
0E
0C
1C
FE
FE
30
60
E0
FF
FF
ENDCHAR
STARTCHAR 01B6
ENCODING 438
SWIDTH 514 0
DWIDTH 10 0
BBX 7 9 1 0
BITMAP
FE
FE
0E
1C
7E
7E
70
7E
FE
ENDCHAR
STARTCHAR 01B7
ENCODING 439
SWIDTH 514 0
DWIDTH 10 0
BBX 8 12 1 0
BITMAP
FF
FF
06
0C
18
3C
3F
07
03
87
FF
FC
ENDCHAR
STARTCHAR 01B8
ENCODING 440
SWIDTH 514 0
DWIDTH 10 0
BBX 8 12 1 0
BITMAP
FF
FF
60
30
18
7C
E0
C0
C0
E1
FF
3E
ENDCHAR
STARTCHAR 01B9
ENCODING 441
SWIDTH 514 0
DWIDTH 10 0
BBX 8 12 1 -3
BITMAP
FE
FE
70
30
18
3C
60
C0
C0
E1
7F
3E
ENDCHAR
STARTCHAR 01BA
ENCODING 442
SWIDTH 514 0
DWIDTH 10 0
BBX 8 12 1 -3
BITMAP
FE
FE
0E
18
3C
06
07
0E
7E
F0
C0
C0
ENDCHAR
STARTCHAR 01BB
ENCODING 443
SWIDTH 514 0
DWIDTH 10 0
BBX 8 12 1 0
BITMAP
7C
FE
86
06
0E
FF
FF
70
60
E0
FF
FF
ENDCHAR
STARTCHAR 01BC
ENCODING 444
SWIDTH 514 0
DWIDTH 10 0
BBX 8 12 1 0
BITMAP
FF
FF
60
60
78
7E
0E
07
03
87
FE
7C
ENDCHAR
STARTCHAR 01BD
ENCODING 445
SWIDTH 514 0
DWIDTH 10 0
BBX 8 9 1 0
BITMAP
FE
FE
60
7C
7E
07
07
FE
FC
ENDCHAR
STARTCHAR 01BE
ENCODING 446
SWIDTH 514 0
DWIDTH 10 0
BBX 8 12 1 0
BITMAP
70
70
70
FE
FE
70
3C
1F
07
43
7F
7C
ENDCHAR
STARTCHAR 01BF
ENCODING 447
SWIDTH 514 0
DWIDTH 10 0
BBX 8 12 1 -3
BITMAP
7C
FE
E7
E7
E7
E7
E6
EE
FC
F0
E0
E0
ENDCHAR
STARTCHAR 01C0
ENCODING 448
SWIDTH 514 0
DWIDTH 10 0
BBX 2 16 4 -3
BITMAP
C0
C0
C0
C0
C0
C0
C0
C0
C0
C0
C0
C0
C0
C0
C0
C0
ENDCHAR
STARTCHAR 01C1
ENCODING 449
SWIDTH 514 0
DWIDTH 10 0
BBX 6 16 2 -3
BITMAP
DC
DC
DC
DC
DC
DC
DC
DC
DC
DC
DC
DC
DC
DC
DC
DC
ENDCHAR
STARTCHAR 01C2
ENCODING 450
SWIDTH 514 0
DWIDTH 10 0
BBX 9 16 0 -3
BITMAP
0C00
0C00
0C00
0C00
0C00
FF80
FF80
0C00
0C00
FF80
FF80
0C00
0C00
0C00
0C00
0C00
ENDCHAR
STARTCHAR 01C3
ENCODING 451
SWIDTH 514 0
DWIDTH 10 0
BBX 3 12 3 0
BITMAP
E0
E0
E0
E0
E0
E0
60
60
60
00
E0
E0
ENDCHAR
STARTCHAR 01C4
ENCODING 452
SWIDTH 514 0
DWIDTH 10 0
BBX 10 15 0 0
BITMAP
02C0
0380
0100
F380
FB80
D980
C980
C980
C900
CB00
CB00
CB00
DA00
FF80
F780
ENDCHAR
STARTCHAR 01C5
ENCODING 453
SWIDTH 514 0
DWIDTH 10 0
BBX 10 13 0 0
BITMAP
02C0
F380
F900
D800
CB80
CB80
C980
C980
C900
CB00
DB00
FB80
F380
ENDCHAR
STARTCHAR 01C6
ENCODING 454
SWIDTH 514 0
DWIDTH 10 0
BBX 10 13 0 0
BITMAP
1AC0
1B80
1900
1800
7B80
7B80
D980
D980
D900
DB00
DB00
7B80
7B80
ENDCHAR
STARTCHAR 01C7
ENCODING 455
SWIDTH 514 0
DWIDTH 10 0
BBX 9 12 0 0
BITMAP
C180
C180
C180
C180
C180
C180
C180
C180
C180
C180
FB80
FB00
ENDCHAR
STARTCHAR 01C8
ENCODING 456
SWIDTH 514 0
DWIDTH 10 0
BBX 8 16 1 -3
BITMAP
03
C3
C0
C0
C3
C3
C3
C3
C3
C3
C3
FB
FB
03
0E
1E
ENDCHAR
STARTCHAR 01C9
ENCODING 457
SWIDTH 514 0
DWIDTH 10 0
BBX 8 16 1 -3
BITMAP
C7
C7
C0
C0
C2
C2
C2
C2
C2
C2
C2
F2
72
02
1E
1C
ENDCHAR
STARTCHAR 01CA
ENCODING 458
SWIDTH 514 0
DWIDTH 10 0
BBX 9 12 0 0
BITMAP
C980
C980
C980
E980
E980
E980
E980
D980
D980
D980
DB80
CB00
ENDCHAR
STARTCHAR 01CB
ENCODING 459
SWIDTH 514 0
DWIDTH 10 0
BBX 9 16 0 -3
BITMAP
0380
CB80
C800
C800
E900
E900
E900
E900
D900
D900
D900
D900
C900
0100
0F00
0E00
ENDCHAR
STARTCHAR 01CC
ENCODING 460
SWIDTH 514 0
DWIDTH 10 0
BBX 9 15 0 -3
BITMAP
0180
0180
0000
F980
FD80
CD80
CD80
CD80
CD80
CD80
CD80
CD80
0180
0700
0F00
ENDCHAR
STARTCHAR 01CD
ENCODING 461
SWIDTH 514 0
DWIDTH 10 0
BBX 9 16 0 0
BITMAP
1200
1E00
0800
0000
1C00
1E00
1E00
3600
3600
3300
3300
7F00
7F00
6380
6180
E180
ENDCHAR
STARTCHAR 01CE
ENCODING 462
SWIDTH 514 0
DWIDTH 10 0
BBX 7 13 1 0
BITMAP
24
3C
10
00
7C
7E
06
7E
FE
C6
C6
FE
7E
ENDCHAR
STARTCHAR 01CF
ENCODING 463
SWIDTH 514 0
DWIDTH 10 0
BBX 8 16 1 0
BITMAP
24
3C
10
00
FF
FF
18
18
18
18
18
18
18
18
FF
FF
ENDCHAR
STARTCHAR 01D0
ENCODING 464
SWIDTH 514 0
DWIDTH 10 0
BBX 8 13 1 0
BITMAP
6C
78
10
00
F0
F0
30
30
30
30
39
1F
1E
ENDCHAR
STARTCHAR 01D1
ENCODING 465
SWIDTH 514 0
DWIDTH 10 0
BBX 8 16 1 0
BITMAP
24
3C
10
00
3C
7E
E6
C7
C3
C3
C3
C3
C7
E6
7E
3C
ENDCHAR
STARTCHAR 01D2
ENCODING 466
SWIDTH 514 0
DWIDTH 10 0
BBX 8 13 1 0
BITMAP
24
3C
10
00
3C
FE
E7
C7
C3
C7
C7
7E
3C
ENDCHAR
STARTCHAR 01D3
ENCODING 467
SWIDTH 514 0
DWIDTH 10 0
BBX 8 16 1 0
BITMAP
24
3C
10
00
C7
C7
C7
C7
C7
C7
C7
C7
C7
C7
FE
7C
ENDCHAR
STARTCHAR 01D4
ENCODING 468
SWIDTH 514 0
DWIDTH 10 0
BBX 7 13 1 0
BITMAP
24
3C
10
00
C6
C6
C6
C6
C6
E6
E6
7E
3E
ENDCHAR
STARTCHAR 01D5
ENCODING 469
SWIDTH 514 0
DWIDTH 10 0
BBX 8 16 1 0
BITMAP
3C
00
6C
6C
00
C7
C7
C7
C7
C7
C7
C7
C7
C7
FE
7C
ENDCHAR
STARTCHAR 01D6
ENCODING 470
SWIDTH 514 0
DWIDTH 10 0
BBX 7 14 1 0
BITMAP
3C
00
6C
6C
00
C6
C6
C6
C6
C6
E6
E6
7E
3E
ENDCHAR
STARTCHAR 01D7
ENCODING 471
SWIDTH 514 0
DWIDTH 10 0
BBX 8 16 1 0
BITMAP
08
18
76
66
00
C7
C7
C7
C7
C7
C7
C7
C7
C7
FE
7C
ENDCHAR
STARTCHAR 01D8
ENCODING 472
SWIDTH 514 0
DWIDTH 10 0
BBX 7 15 1 0
BITMAP
08
0C
18
56
46
00
C6
C6
C6
C6
C6
E6
E6
7E
3E
ENDCHAR
STARTCHAR 01D9
ENCODING 473
SWIDTH 514 0
DWIDTH 10 0
BBX 8 16 1 0
BITMAP
28
38
76
66
00
C7
C7
C7
C7
C7
C7
C7
C7
C7
FE
7C
ENDCHAR
STARTCHAR 01DA
ENCODING 474
SWIDTH 514 0
DWIDTH 10 0
BBX 7 14 1 0
BITMAP
24
3C
56
46
00
C6
C6
C6
C6
C6
E6
E6
7E
3E
ENDCHAR
STARTCHAR 01DB
ENCODING 475
SWIDTH 514 0
DWIDTH 10 0
BBX 8 16 1 0
BITMAP
10
38
76
66
00
C7
C7
C7
C7
C7
C7
C7
C7
C7
FE
7C
ENDCHAR
STARTCHAR 01DC
ENCODING 476
SWIDTH 514 0
DWIDTH 10 0
BBX 7 15 1 0
BITMAP
20
30
30
56
46
00
C6
C6
C6
C6
C6
E6
E6
7E
3E
ENDCHAR
STARTCHAR 01DD
ENCODING 477
SWIDTH 514 0
DWIDTH 10 0
BBX 8 9 1 0
BITMAP
FC
FE
06
07
FF
C7
C6
FE
7C
ENDCHAR
STARTCHAR 01DE
ENCODING 478
SWIDTH 514 0
DWIDTH 10 0
BBX 9 16 0 0
BITMAP
1E00
0000
3600
3600
0000
1C00
1E00
1E00
3600
3700
3300
7300
7F00
7F80
6380
E180
ENDCHAR
STARTCHAR 01DF
ENCODING 479
SWIDTH 514 0
DWIDTH 10 0
BBX 7 14 1 0
BITMAP
3C
00
6C
6C
00
7C
7E
06
7E
FE
C6
C6
FE
7E
ENDCHAR
STARTCHAR 01E0
ENCODING 480
SWIDTH 514 0
DWIDTH 10 0
BBX 9 16 0 0
BITMAP
1E00
0000
0C00
0C00
0000
1C00
1E00
1E00
3600
3700
3300
7300
7F00
7F80
6380
E180
ENDCHAR
STARTCHAR 01E1
ENCODING 481
SWIDTH 514 0
DWIDTH 10 0
BBX 7 14 1 0
BITMAP
3C
00
18
18
00
7C
7E
06
7E
FE
C6
C6
FE
7E
ENDCHAR
STARTCHAR 01E2
ENCODING 482
SWIDTH 514 0
DWIDTH 10 0
BBX 9 15 0 0
BITMAP
1F80
1F80
0000
0F80
1F80
1E00
1600
3600
3780
3780
7E00
7E00
6600
6780
E780
ENDCHAR
STARTCHAR 01E3
ENCODING 483
SWIDTH 514 0
DWIDTH 10 0
BBX 9 12 0 0
BITMAP
3F00
3F00
0000
7B00
7F80
0D80
7C80
7F80
CC00
CC00
7F80
3B80
ENDCHAR
STARTCHAR 01E4
ENCODING 484
SWIDTH 514 0
DWIDTH 10 0
BBX 8 12 1 0
BITMAP
3E
7E
E2
C0
C0
C6
CF
CF
C6
E6
7E
3E
ENDCHAR
STARTCHAR 01E5
ENCODING 485
SWIDTH 514 0
DWIDTH 10 0
BBX 8 12 1 -3
BITMAP
3E
FE
C6
DF
DF
C6
FE
7E
06
8E
FC
F8
ENDCHAR
STARTCHAR 01E6
ENCODING 486
SWIDTH 514 0
DWIDTH 10 0
BBX 8 16 1 0
BITMAP
36
3C
08
00
3F
7F
E2
C0
C0
C0
C7
C7
C7
E7
7F
3F
ENDCHAR
STARTCHAR 01E7
ENCODING 487
SWIDTH 514 0
DWIDTH 10 0
BBX 7 16 1 -3
BITMAP
24
3C
18
00
3E
FE
E6
C6
C6
C6
FE
7E
06
8E
FE
FC
ENDCHAR
STARTCHAR 01E8
ENCODING 488
SWIDTH 514 0
DWIDTH 10 0
BBX 8 16 1 0
BITMAP
24
3C
10
00
C7
CE
CC
DC
D8
F0
F8
DC
CE
CE
C7
C7
ENDCHAR
STARTCHAR 01E9
ENCODING 489
SWIDTH 514 0
DWIDTH 10 0
BBX 8 16 1 0
BITMAP
D8
78
20
00
E0
E0
E0
E7
EE
FC
F8
F8
FC
EE
E6
E7
ENDCHAR
STARTCHAR 01EA
ENCODING 490
SWIDTH 514 0
DWIDTH 10 0
BBX 8 15 1 -3
BITMAP
3C
7E
E6
C7
C3
C3
C3
C3
C7
E6
7E
3C
18
30
3C
ENDCHAR
STARTCHAR 01EB
ENCODING 491
SWIDTH 514 0
DWIDTH 10 0
BBX 8 12 1 -3
BITMAP
3C
7E
E7
C7
C3
C7
C7
FE
3C
18
30
1C
ENDCHAR
STARTCHAR 01EC
ENCODING 492
SWIDTH 514 0
DWIDTH 10 0
BBX 8 18 1 -3
BITMAP
7E
7E
00
3C
7E
E6
C7
C3
C3
C3
C3
C7
E6
7E
3C
18
30
3C
ENDCHAR
STARTCHAR 01ED
ENCODING 493
SWIDTH 514 0
DWIDTH 10 0
BBX 8 15 1 -3
BITMAP
7E
7E
00
3C
7E
E7
C7
C3
C7
C7
FE
3C
18
30
1C
ENDCHAR
STARTCHAR 01EE
ENCODING 494
SWIDTH 514 0
DWIDTH 10 0
BBX 8 16 1 0
BITMAP
24
3C
10
00
FF
FF
06
0C
18
3C
3F
07
03
87
FF
FC
ENDCHAR
STARTCHAR 01EF
ENCODING 495
SWIDTH 514 0
DWIDTH 10 0
BBX 7 16 1 -3
BITMAP
24
3C
10
00
FE
FE
0C
1C
38
3C
0E
06
06
8E
FE
FC
ENDCHAR
STARTCHAR 01F0
ENCODING 496
SWIDTH 514 0
DWIDTH 10 0
BBX 7 16 1 -3
BITMAP
24
3C
10
00
7E
7E
0E
0E
0E
0E
0E
0E
0E
8C
FC
78
ENDCHAR
STARTCHAR 01F1
ENCODING 497
SWIDTH 514 0
DWIDTH 10 0
BBX 9 12 0 0
BITMAP
F380
FB80
D980
C980
C980
C900
CB00
CB00
CB00
DA00
FF80
F780
ENDCHAR
STARTCHAR 01F2
ENCODING 498
SWIDTH 514 0
DWIDTH 10 0
BBX 9 12 0 0
BITMAP
F000
F800
D800
CB80
CB80
C980
C980
C900
CB00
DB00
FB80
F380
ENDCHAR
STARTCHAR 01F3
ENCODING 499
SWIDTH 514 0
DWIDTH 10 0
BBX 9 13 0 0
BITMAP
1800
1800
1800
1800
7B80
7B80
D980
D980
D900
DB00
DB00
7B80
7B80
ENDCHAR
STARTCHAR 01F4
ENCODING 500
SWIDTH 514 0
DWIDTH 10 0
BBX 8 16 1 0
BITMAP
08
1C
10
00
3F
7F
E2
C0
C0
C0
C7
C7
C7
E7
7F
3F
ENDCHAR
STARTCHAR 01F5
ENCODING 501
SWIDTH 514 0
DWIDTH 10 0
BBX 7 16 1 -3
BITMAP
08
3C
30
00
3E
FE
E6
C6
C6
C6
FE
7E
06
8E
FE
FC
ENDCHAR
STARTCHAR 01F6
ENCODING 502
SWIDTH 514 0
DWIDTH 10 0
BBX 8 12 1 0
BITMAP
98
98
98
9B
9B
FB
FB
9B
9B
9B
9F
8E
ENDCHAR
STARTCHAR 01F7
ENCODING 503
SWIDTH 514 0
DWIDTH 10 0
BBX 8 15 1 -3
BITMAP
FC
FE
C7
C3
C3
C3
C7
C6
CE
DC
F8
E0
C0
C0
C0
ENDCHAR
STARTCHAR 01F8
ENCODING 504
SWIDTH 514 0
DWIDTH 10 0
BBX 8 16 1 0
BITMAP
30
38
08
00
C3
E3
E3
F3
F3
DB
DB
CF
CF
C7
C7
C3
ENDCHAR
STARTCHAR 01F9
ENCODING 505
SWIDTH 514 0
DWIDTH 10 0
BBX 7 13 1 0
BITMAP
20
78
18
00
FC
FE
E6
E6
E6
E6
E6
E6
E6
ENDCHAR
STARTCHAR 01FA
ENCODING 506
SWIDTH 514 0
DWIDTH 10 0
BBX 9 16 0 0
BITMAP
0400
1800
0000
1C00
1400
1C00
1E00
1E00
3600
3600
3300
7F00
7F00
6380
6180
E180
ENDCHAR
STARTCHAR 01FB
ENCODING 507
SWIDTH 514 0
DWIDTH 10 0
BBX 7 16 1 0
BITMAP
08
30
00
38
2C
38
00
7C
7E
06
7E
FE
C6
C6
FE
7E
ENDCHAR
STARTCHAR 01FC
ENCODING 508
SWIDTH 514 0
DWIDTH 10 0
BBX 9 16 0 0
BITMAP
0300
0700
0400
0000
0F80
1F80
1E00
1600
3600
3780
3780
7E00
7E00
6600
6780
E780
ENDCHAR
STARTCHAR 01FD
ENCODING 509
SWIDTH 514 0
DWIDTH 10 0
BBX 9 13 0 0
BITMAP
0600
0E00
0800
0000
7B00
7F80
0D80
7C80
7F80
CC00
CC00
7F80
3B80
ENDCHAR
STARTCHAR 01FE
ENCODING 510
SWIDTH 514 0
DWIDTH 10 0
BBX 8 17 1 -1
BITMAP
08
3C
30
02
3E
7E
EE
CF
DB
DB
F3
F3
E7
E6
FE
FC
40
ENDCHAR
STARTCHAR 01FF
ENCODING 511
SWIDTH 514 0
DWIDTH 10 0
BBX 8 13 1 0
BITMAP
08
3C
30
00
3F
FE
EF
CB
DB
F7
E7
FE
FC
ENDCHAR
STARTCHAR 0200
ENCODING 512
SWIDTH 514 0
DWIDTH 10 0
BBX 9 16 0 0
BITMAP
2400
3600
1200
0000
1C00
1E00
1E00
3600
3600
3300
3300
7F00
7F00
6380
6180
E180
ENDCHAR
STARTCHAR 0201
ENCODING 513
SWIDTH 514 0
DWIDTH 10 0
BBX 7 13 1 0
BITMAP
48
6C
26
00
7C
7E
06
7E
FE
C6
C6
FE
7E
ENDCHAR
STARTCHAR 0202
ENCODING 514
SWIDTH 514 0
DWIDTH 10 0
BBX 9 16 0 0
BITMAP
1C00
3E00
3200
0000
1C00
1E00
1E00
3600
3600
3300
3300
7F00
7F00
6380
6180
E180
ENDCHAR
STARTCHAR 0203
ENCODING 515
SWIDTH 514 0
DWIDTH 10 0
BBX 7 13 1 0
BITMAP
38
7C
64
00
7C
7E
06
7E
FE
C6
C6
FE
7E
ENDCHAR
STARTCHAR 0204
ENCODING 516
SWIDTH 514 0
DWIDTH 10 0
BBX 8 16 1 0
BITMAP
48
6C
24
00
FE
FE
E0
E0
E0
FE
FE
E0
E0
E0
FF
FF
ENDCHAR
STARTCHAR 0205
ENCODING 517
SWIDTH 514 0
DWIDTH 10 0
BBX 8 13 1 0
BITMAP
48
6C
26
00
3C
7E
E6
C3
FF
FF
C0
7E
3E
ENDCHAR
STARTCHAR 0206
ENCODING 518
SWIDTH 514 0
DWIDTH 10 0
BBX 8 16 1 0
BITMAP
3C
7C
66
00
FE
FE
E0
E0
E0
FE
FE
E0
E0
E0
FF
FF
ENDCHAR
STARTCHAR 0207
ENCODING 519
SWIDTH 514 0
DWIDTH 10 0
BBX 8 13 1 0
BITMAP
38
7C
64
00
3C
7E
E6
C3
FF
FF
C0
7E
3E
ENDCHAR
STARTCHAR 0208
ENCODING 520
SWIDTH 514 0
DWIDTH 10 0
BBX 8 16 1 0
BITMAP
48
6C
24
00
FF
FF
18
18
18
18
18
18
18
18
FF
FF
ENDCHAR
STARTCHAR 0209
ENCODING 521
SWIDTH 514 0
DWIDTH 10 0
BBX 8 13 1 0
BITMAP
C8
DC
64
00
F0
F0
30
30
30
30
39
1F
1E
ENDCHAR
STARTCHAR 020A
ENCODING 522
SWIDTH 514 0
DWIDTH 10 0
BBX 8 16 1 0
BITMAP
38
7C
64
00
FF
FF
18
18
18
18
18
18
18
18
FF
FF
ENDCHAR
STARTCHAR 020B
ENCODING 523
SWIDTH 514 0
DWIDTH 10 0
BBX 8 13 1 0
BITMAP
78
7C
CC
00
F0
F0
30
30
30
30
39
1F
1E
ENDCHAR
STARTCHAR 020C
ENCODING 524
SWIDTH 514 0
DWIDTH 10 0
BBX 8 16 1 0
BITMAP
48
6C
24
00
3C
7E
E6
C7
C3
C3
C3
C3
C7
E6
7E
3C
ENDCHAR
STARTCHAR 020D
ENCODING 525
SWIDTH 514 0
DWIDTH 10 0
BBX 8 13 1 0
BITMAP
48
6C
24
00
3C
FE
E7
C7
C3
C7
C7
7E
3C
ENDCHAR
STARTCHAR 020E
ENCODING 526
SWIDTH 514 0
DWIDTH 10 0
BBX 8 16 1 0
BITMAP
38
7C
64
00
3C
7E
E6
C7
C3
C3
C3
C3
C7
E6
7E
3C
ENDCHAR
STARTCHAR 020F
ENCODING 527
SWIDTH 514 0
DWIDTH 10 0
BBX 8 13 1 0
BITMAP
38
7C
64
00
3C
FE
E7
C7
C3
C7
C7
7E
3C
ENDCHAR
STARTCHAR 0210
ENCODING 528
SWIDTH 514 0
DWIDTH 10 0
BBX 8 16 1 0
BITMAP
48
CC
24
00
FC
FE
C6
C6
C7
C6
FE
FC
CC
C6
C7
C3
ENDCHAR
STARTCHAR 0211
ENCODING 529
SWIDTH 514 0
DWIDTH 10 0
BBX 7 13 2 0
BITMAP
90
D8
6C
00
FE
FC
C0
C0
C0
C0
C0
C0
C0
ENDCHAR
STARTCHAR 0212
ENCODING 530
SWIDTH 514 0
DWIDTH 10 0
BBX 8 16 1 0
BITMAP
38
7C
4C
00
FC
FE
C6
C6
C7
C6
FE
FC
CC
C6
C7
C3
ENDCHAR
STARTCHAR 0213
ENCODING 531
SWIDTH 514 0
DWIDTH 10 0
BBX 7 13 2 0
BITMAP
38
7C
4C
00
FE
FC
C0
C0
C0
C0
C0
C0
C0
ENDCHAR
STARTCHAR 0214
ENCODING 532
SWIDTH 514 0
DWIDTH 10 0
BBX 8 16 1 0
BITMAP
48
6C
24
00
C7
C7
C7
C7
C7
C7
C7
C7
C7
C7
FE
7C
ENDCHAR
STARTCHAR 0215
ENCODING 533
SWIDTH 514 0
DWIDTH 10 0
BBX 7 13 1 0
BITMAP
48
6C
24
00
C6
C6
C6
C6
C6
E6
E6
7E
3E
ENDCHAR
STARTCHAR 0216
ENCODING 534
SWIDTH 514 0
DWIDTH 10 0
BBX 8 16 1 0
BITMAP
38
7C
64
00
C7
C7
C7
C7
C7
C7
C7
C7
C7
C7
FE
7C
ENDCHAR
STARTCHAR 0217
ENCODING 535
SWIDTH 514 0
DWIDTH 10 0
BBX 7 13 1 0
BITMAP
38
7C
64
00
C6
C6
C6
C6
C6
E6
E6
7E
3E
ENDCHAR
STARTCHAR 0218
ENCODING 536
SWIDTH 514 0
DWIDTH 10 0
BBX 8 15 1 -3
BITMAP
3C
FE
E2
C0
E0
7C
3E
07
07
87
FE
7C
00
18
70
ENDCHAR
STARTCHAR 0219
ENCODING 537
SWIDTH 514 0
DWIDTH 10 0
BBX 7 12 1 -3
BITMAP
3E
7E
E0
F0
7C
0E
86
FE
7C
00
18
70
ENDCHAR
STARTCHAR 021A
ENCODING 538
SWIDTH 514 0
DWIDTH 10 0
BBX 9 15 0 -3
BITMAP
FF80
FF80
0C00
0C00
0C00
0C00
0C00
0C00
0C00
0C00
0C00
0C00
0000
0C00
1800
ENDCHAR
STARTCHAR 021B
ENCODING 539
SWIDTH 514 0
DWIDTH 10 0
BBX 8 15 1 -3
BITMAP
30
30
30
FF
FF
30
30
30
30
30
3F
1F
00
0C
1C
ENDCHAR
STARTCHAR 021C
ENCODING 540
SWIDTH 514 0
DWIDTH 10 0
BBX 8 15 1 -3
BITMAP
F8
FE
8E
06
06
0E
7C
7E
07
07
03
07
0E
FC
F8
ENDCHAR
STARTCHAR 021D
ENCODING 541
SWIDTH 514 0
DWIDTH 10 0
BBX 7 12 1 -3
BITMAP
7C
7E
06
0E
3E
38
06
06
06
1E
FC
70
ENDCHAR
STARTCHAR 021E
ENCODING 542
SWIDTH 514 0
DWIDTH 10 0
BBX 8 16 1 0
BITMAP
24
3C
10
00
C7
C7
C7
C7
C7
FF
FF
C7
C7
C7
C7
C7
ENDCHAR
STARTCHAR 021F
ENCODING 543
SWIDTH 514 0
DWIDTH 10 0
BBX 7 16 1 0
BITMAP
D8
78
20
00
E0
E0
E0
FC
FE
E6
E6
E6
E6
E6
E6
E6
ENDCHAR
STARTCHAR 0220
ENCODING 544
SWIDTH 514 0
DWIDTH 10 0
BBX 8 15 1 -3
BITMAP
FC
FE
C6
C7
C7
C7
C7
C7
C7
C7
C7
C7
07
07
07
ENDCHAR
STARTCHAR 0221
ENCODING 545
SWIDTH 514 0
DWIDTH 10 0
BBX 10 16 0 -3
BITMAP
0600
0600
0600
0600
3E00
7E00
6600
C600
C600
C600
6780
7FC0
3EC0
0EC0
1BC0
1380
ENDCHAR
STARTCHAR 0222
ENCODING 546
SWIDTH 514 0
DWIDTH 10 0
BBX 8 12 1 0
BITMAP
E6
E6
E6
E6
7E
7C
C6
C3
C3
C7
FE
7C
ENDCHAR
STARTCHAR 0223
ENCODING 547
SWIDTH 514 0
DWIDTH 10 0
BBX 8 13 1 0
BITMAP
E6
E6
E6
E6
FE
7C
E6
C7
C3
C7
E7
FE
3C
ENDCHAR
STARTCHAR 0224
ENCODING 548
SWIDTH 514 0
DWIDTH 10 0
BBX 8 15 1 -3
BITMAP
FE
FE
0E
0C
1C
18
38
70
60
E0
FF
FF
03
1E
1E
ENDCHAR
STARTCHAR 0225
ENCODING 549
SWIDTH 514 0
DWIDTH 10 0
BBX 7 12 1 -3
BITMAP
FE
FE
0C
1C
38
30
60
FE
FE
06
1E
1C
ENDCHAR
STARTCHAR 0226
ENCODING 550
SWIDTH 514 0
DWIDTH 10 0
BBX 9 16 0 0
BITMAP
0C00
1C00
0C00
0000
1C00
1E00
1E00
3600
3600
3300
3300
7F00
7F00
6380
6180
E180
ENDCHAR
STARTCHAR 0227
ENCODING 551
SWIDTH 514 0
DWIDTH 10 0
BBX 7 13 1 0
BITMAP
18
38
18
00
7C
7E
06
7E
FE
C6
C6
FE
7E
ENDCHAR
STARTCHAR 0228
ENCODING 552
SWIDTH 514 0
DWIDTH 10 0
BBX 8 15 1 -3
BITMAP
FE
FE
E0
E0
E0
FE
FE
E0
E0
E0
FF
FF
18
0C
38
ENDCHAR
STARTCHAR 0229
ENCODING 553
SWIDTH 514 0
DWIDTH 10 0
BBX 8 12 1 -3
BITMAP
3C
7E
C7
FF
FF
C0
E0
FE
3E
18
0C
38
ENDCHAR
STARTCHAR 022A
ENCODING 554
SWIDTH 514 0
DWIDTH 10 0
BBX 8 16 1 0
BITMAP
3C
00
6C
6C
00
3C
7E
E7
C7
C3
C3
C3
C7
E7
7E
3C
ENDCHAR
STARTCHAR 022B
ENCODING 555
SWIDTH 514 0
DWIDTH 10 0
BBX 8 14 1 0
BITMAP
3C
00
6C
6C
00
3C
FE
E7
C7
C3
C7
C7
7E
3C
ENDCHAR
STARTCHAR 022C
ENCODING 556
SWIDTH 514 0
DWIDTH 10 0
BBX 8 16 1 0
BITMAP
3C
00
74
3C
00
3C
7E
E7
C7
C3
C3
C3
C7
E7
7E
3C
ENDCHAR
STARTCHAR 022D
ENCODING 557
SWIDTH 514 0
DWIDTH 10 0
BBX 8 14 1 0
BITMAP
3C
00
34
4C
00
3C
FE
E7
C7
C3
C7
C7
7E
3C
ENDCHAR
STARTCHAR 022E
ENCODING 558
SWIDTH 514 0
DWIDTH 10 0
BBX 8 16 1 0
BITMAP
18
38
18
00
3C
7E
E6
C7
C3
C3
C3
C3
C7
E6
7E
3C
ENDCHAR
STARTCHAR 022F
ENCODING 559
SWIDTH 514 0
DWIDTH 10 0
BBX 8 13 1 0
BITMAP
18
38
18
00
3C
FE
E7
C7
C3
C7
C7
7E
3C
ENDCHAR
STARTCHAR 0230
ENCODING 560
SWIDTH 514 0
DWIDTH 10 0
BBX 8 16 1 0
BITMAP
3C
00
18
18
00
3C
7E
E7
C7
C3
C3
C3
C7
E7
7E
3C
ENDCHAR
STARTCHAR 0231
ENCODING 561
SWIDTH 514 0
DWIDTH 10 0
BBX 8 14 1 0
BITMAP
3C
00
18
18
00
3C
FE
E7
C7
C3
C7
C7
7E
3C
ENDCHAR
STARTCHAR 0232
ENCODING 562
SWIDTH 514 0
DWIDTH 10 0
BBX 9 15 0 0
BITMAP
3F00
3F00
0000
E180
6380
7300
3300
3600
1E00
1C00
0C00
0C00
0C00
0C00
0C00
ENDCHAR
STARTCHAR 0233
ENCODING 563
SWIDTH 514 0
DWIDTH 10 0
BBX 9 15 0 -3
BITMAP
3F00
3F00
0000
6380
7380
7300
3300
3300
1E00
1E00
1E00
0C00
1C00
7800
F000
ENDCHAR
STARTCHAR 0234
ENCODING 564
SWIDTH 514 0
DWIDTH 10 0
BBX 8 16 1 -3
BITMAP
F0
F0
30
30
30
30
30
30
30
30
3E
3F
33
7B
DF
4E
ENDCHAR
STARTCHAR 0235
ENCODING 565
SWIDTH 514 0
DWIDTH 10 0
BBX 9 12 1 -3
BITMAP
F800
FC00
CC00
CC00
CC00
CC00
CF00
CF80
CD80
1D80
3780
2700
ENDCHAR
STARTCHAR 0236
ENCODING 566
SWIDTH 514 0
DWIDTH 10 0
BBX 8 15 1 -3
BITMAP
30
30
30
FF
FF
30
30
30
30
3E
3F
73
73
FF
9E
ENDCHAR
STARTCHAR 0237
ENCODING 567
SWIDTH 514 0
DWIDTH 10 0
BBX 7 12 1 -3
BITMAP
7E
7E
0E
0E
0E
0E
0E
0E
0E
8C
FC
78
ENDCHAR
STARTCHAR 0238
ENCODING 568
SWIDTH 514 0
DWIDTH 10 0
BBX 9 13 0 0
BITMAP
0C00
0C00
0C00
0C00
3F00
7F80
6D80
CD80
CD80
4D80
6D80
7F00
3F00
ENDCHAR
STARTCHAR 0239
ENCODING 569
SWIDTH 514 0
DWIDTH 10 0
BBX 9 12 0 -3
BITMAP
3F00
7F00
6D80
4D80
CD80
CD80
6D80
7F80
3F00
0C00
0C00
0C00
ENDCHAR
STARTCHAR 023A
ENCODING 570
SWIDTH 514 0
DWIDTH 10 0
BBX 9 15 0 -1
BITMAP
0200
0200
1E00
1E00
1E00
3600
3600
3700
3B00
7F00
7F80
6B80
7980
F180
1000
ENDCHAR
STARTCHAR 023B
ENCODING 571
SWIDTH 514 0
DWIDTH 10 0
BBX 8 15 1 -2
BITMAP
03
1E
7F
E7
C4
CC
CC
C8
D8
D8
F1
FF
7E
20
60
ENDCHAR
STARTCHAR 023C
ENCODING 572
SWIDTH 514 0
DWIDTH 10 0
BBX 8 13 1 -2
BITMAP
06
06
3F
7E
EC
C8
C8
D8
F0
FF
7F
30
20
ENDCHAR
STARTCHAR 023D
ENCODING 573
SWIDTH 514 0
DWIDTH 10 0
BBX 9 12 0 0
BITMAP
3000
3000
3000
3000
3000
FE00
FE00
3000
3000
3000
3F80
3F80
ENDCHAR
STARTCHAR 023E
ENCODING 574
SWIDTH 514 0
DWIDTH 10 0
BBX 10 15 0 -2
BITMAP
0080
FFC0
FF80
1B00
1F00
1E00
1C00
1C00
1800
1800
3800
7800
5800
C000
8000
ENDCHAR
STARTCHAR 023F
ENCODING 575
SWIDTH 514 0
DWIDTH 10 0
BBX 7 12 1 -3
BITMAP
3E
7E
E2
F0
7C
1E
06
FE
FC
70
3E
1E
ENDCHAR
STARTCHAR 0240
ENCODING 576
SWIDTH 514 0
DWIDTH 10 0
BBX 8 12 1 -3
BITMAP
FE
FE
0C
1C
38
30
60
60
F0
38
0F
07
ENDCHAR
STARTCHAR 0241
ENCODING 577
SWIDTH 514 0
DWIDTH 10 0
BBX 8 12 1 0
BITMAP
7C
FE
47
07
07
1E
3C
38
30
30
30
30
ENDCHAR
STARTCHAR 0242
ENCODING 578
SWIDTH 514 0
DWIDTH 10 0
BBX 7 9 1 0
BITMAP
7C
FE
46
06
1E
38
30
30
30
ENDCHAR
STARTCHAR 0243
ENCODING 579
SWIDTH 514 0
DWIDTH 10 0
BBX 9 12 0 0
BITMAP
3E00
3F00
3300
3300
3300
3E00
3F00
FB80
F980
3380
3F00
3E00
ENDCHAR
STARTCHAR 0244
ENCODING 580
SWIDTH 514 0
DWIDTH 10 0
BBX 9 12 0 0
BITMAP
7300
7300
7300
7300
FF80
FF80
7300
7300
7300
7300
3F00
1E00
ENDCHAR
STARTCHAR 0245
ENCODING 581
SWIDTH 514 0
DWIDTH 10 0
BBX 9 12 0 0
BITMAP
1C00
1E00
1E00
3600
3600
3300
3300
7300
6300
6380
6180
E180
ENDCHAR
STARTCHAR 0246
ENCODING 582
SWIDTH 514 0
DWIDTH 10 0
BBX 8 15 1 -2
BITMAP
01
FF
FF
C6
C6
C4
FE
FE
C8
D8
D8
FF
FF
20
20
ENDCHAR
STARTCHAR 0247
ENCODING 583
SWIDTH 514 0
DWIDTH 10 0
BBX 9 13 0 -2
BITMAP
0200
0200
1F00
7F00
6780
6D80
FF80
FF80
6800
7F00
3F00
1000
3000
ENDCHAR
STARTCHAR 0248
ENCODING 584
SWIDTH 514 0
DWIDTH 10 0
BBX 8 12 1 0
BITMAP
7E
7E
0E
0E
3F
3F
0E
0E
0E
8E
FC
78
ENDCHAR
STARTCHAR 0249
ENCODING 585
SWIDTH 514 0
DWIDTH 10 0
BBX 8 16 1 -3
BITMAP
0C
0C
00
00
7E
7E
0E
0E
7F
7F
0E
0E
0E
8E
FC
78
ENDCHAR
STARTCHAR 024A
ENCODING 586
SWIDTH 514 0
DWIDTH 10 0
BBX 9 15 1 -3
BITMAP
3800
7C00
CE00
C600
C600
C600
C600
C600
C600
CE00
7E00
3E00
0600
0780
0380
ENDCHAR
STARTCHAR 024B
ENCODING 587
SWIDTH 514 0
DWIDTH 10 0
BBX 9 12 1 -3
BITMAP
3E00
FE00
E600
C600
C600
C600
C600
FE00
7E00
0600
0700
0780
ENDCHAR
STARTCHAR 024C
ENCODING 588
SWIDTH 514 0
DWIDTH 10 0
BBX 9 12 0 0
BITMAP
3E00
3F00
3300
3380
3300
3300
FF00
FE00
3700
3700
3380
3380
ENDCHAR
STARTCHAR 024D
ENCODING 589
SWIDTH 514 0
DWIDTH 10 0
BBX 9 9 0 0
BITMAP
3F80
7F00
7000
7000
FE00
FE00
7000
7000
7000
ENDCHAR
STARTCHAR 024E
ENCODING 590
SWIDTH 514 0
DWIDTH 10 0
BBX 9 12 0 0
BITMAP
6180
6380
FF80
FF80
3600
1E00
1E00
1C00
0C00
0C00
0C00
0C00
ENDCHAR
STARTCHAR 024F
ENCODING 591
SWIDTH 514 0
DWIDTH 10 0
BBX 9 12 0 -3
BITMAP
6380
6300
7300
FF80
FF80
3F00
1E00
1E00
0C00
1C00
7800
F000
ENDCHAR
STARTCHAR 0292
ENCODING 658
SWIDTH 514 0
DWIDTH 10 0
BBX 7 12 1 -3
BITMAP
FE
FE
0C
1C
38
3C
0E
06
06
8E
FE
FC
ENDCHAR
STARTCHAR 02BC
ENCODING 700
SWIDTH 514 0
DWIDTH 10 0
BBX 3 4 3 9
BITMAP
60
60
60
C0
ENDCHAR
STARTCHAR 02C6
ENCODING 710
SWIDTH 514 0
DWIDTH 10 0
BBX 4 3 3 10
BITMAP
40
F0
90
ENDCHAR
STARTCHAR 02C7
ENCODING 711
SWIDTH 514 0
DWIDTH 10 0
BBX 4 3 3 10
BITMAP
90
F0
40
ENDCHAR
STARTCHAR 02C9
ENCODING 713
SWIDTH 514 0
DWIDTH 10 0
BBX 5 2 2 10
BITMAP
F8
F8
ENDCHAR
STARTCHAR 02D8
ENCODING 728
SWIDTH 514 0
DWIDTH 10 0
BBX 5 3 2 10
BITMAP
C8
F8
70
ENDCHAR
STARTCHAR 02D9
ENCODING 729
SWIDTH 514 0
DWIDTH 10 0
BBX 3 3 3 10
BITMAP
60
E0
60
ENDCHAR
STARTCHAR 02DA
ENCODING 730
SWIDTH 514 0
DWIDTH 10 0
BBX 4 4 3 9
BITMAP
E0
B0
B0
E0
ENDCHAR
STARTCHAR 02DB
ENCODING 731
SWIDTH 514 0
DWIDTH 10 0
BBX 4 3 3 -3
BITMAP
60
C0
F0
ENDCHAR
STARTCHAR 02DC
ENCODING 732
SWIDTH 514 0
DWIDTH 10 0
BBX 6 3 2 10
BITMAP
68
FC
98
ENDCHAR
STARTCHAR 02DD
ENCODING 733
SWIDTH 514 0
DWIDTH 10 0
BBX 6 3 2 10
BITMAP
4C
DC
90
ENDCHAR
STARTCHAR 0311
ENCODING 785
SWIDTH 514 0
DWIDTH 10 0
BBX 5 3 2 10
BITMAP
70
F8
C8
ENDCHAR
STARTCHAR 0384
ENCODING 900
SWIDTH 514 0
DWIDTH 10 0
BBX 3 4 3 10
BITMAP
20
60
C0
C0
ENDCHAR
STARTCHAR 0385
ENCODING 901
SWIDTH 514 0
DWIDTH 10 0
BBX 8 4 1 10
BITMAP
08
DA
D7
F2
ENDCHAR
STARTCHAR 0386
ENCODING 902
SWIDTH 514 0
DWIDTH 10 0
BBX 9 12 0 0
BITMAP
DC00
DE00
DE00
B600
3600
3300
3300
7F00
7F00
6380
6180
E180
ENDCHAR
STARTCHAR 0388
ENCODING 904
SWIDTH 514 0
DWIDTH 10 0
BBX 12 12 -3 0
BITMAP
6FE0
6FE0
6E00
CE00
0E00
0FE0
0FE0
0E00
0E00
0E00
0FF0
0FF0
ENDCHAR
STARTCHAR 0389
ENCODING 905
SWIDTH 514 0
DWIDTH 10 0
BBX 12 12 -3 0
BITMAP
6C70
6C70
CC70
CC70
0C70
0FF0
0FF0
0C70
0C70
0C70
0C70
0C70
ENDCHAR
STARTCHAR 038A
ENCODING 906
SWIDTH 514 0
DWIDTH 10 0
BBX 12 12 -3 0
BITMAP
6FF0
6FF0
C180
C180
0180
0180
0180
0180
0180
0180
0FF0
0FF0
ENDCHAR
STARTCHAR 038C
ENCODING 908
SWIDTH 514 0
DWIDTH 10 0
BBX 11 12 -2 0
BITMAP
C780
CFC0
DCC0
98E0
1860
1860
1860
1860
18E0
1CC0
0FC0
0780
ENDCHAR
STARTCHAR 038E
ENCODING 910
SWIDTH 514 0
DWIDTH 10 0
BBX 12 12 -3 0
BITMAP
7C30
CC70
CE60
C660
06C0
03C0
0380
0180
0180
0180
0180
0180
ENDCHAR
STARTCHAR 038F
ENCODING 911
SWIDTH 514 0
DWIDTH 10 0
BBX 11 12 -2 0
BITMAP
C780
DFC0
DCE0
B860
3860
3860
3860
1860
18E0
1CC0
3DE0
3DE0
ENDCHAR
STARTCHAR 0390
ENCODING 912
SWIDTH 514 0
DWIDTH 10 0
BBX 8 14 1 0
BITMAP
08
DA
D7
F2
00
F0
F0
30
30
30
30
38
1F
1F
ENDCHAR
STARTCHAR 0391
ENCODING 913
SWIDTH 514 0
DWIDTH 10 0
BBX 9 12 0 0
BITMAP
1C00
1E00
1E00
3600
3600
3300
3300
7F00
7F00
6380
6180
E180
ENDCHAR
STARTCHAR 0392
ENCODING 914
SWIDTH 514 0
DWIDTH 10 0
BBX 8 12 1 0
BITMAP
FC
FE
C6
C6
C6
FC
FE
C7
C3
C7
FE
FC
ENDCHAR
STARTCHAR 0393
ENCODING 915
SWIDTH 514 0
DWIDTH 10 0
BBX 8 12 1 0
BITMAP
7F
7F
70
70
70
70
70
70
70
70
FC
FC
ENDCHAR
STARTCHAR 0394
ENCODING 916
SWIDTH 514 0
DWIDTH 10 0
BBX 9 12 0 0
BITMAP
1C00
1E00
1E00
3600
3600
3300
3300
6300
6300
6380
7F80
FF80
ENDCHAR
STARTCHAR 0395
ENCODING 917
SWIDTH 514 0
DWIDTH 10 0
BBX 8 12 1 0
BITMAP
FE
FE
E0
E0
E0
FE
FE
E0
E0
E0
FF
FF
ENDCHAR
STARTCHAR 0396
ENCODING 918
SWIDTH 514 0
DWIDTH 10 0
BBX 8 12 1 0
BITMAP
FE
FE
0E
0C
1C
18
38
70
60
E0
FF
FF
ENDCHAR
STARTCHAR 0397
ENCODING 919
SWIDTH 514 0
DWIDTH 10 0
BBX 8 12 1 0
BITMAP
C7
C7
C7
C7
C7
FF
FF
C7
C7
C7
C7
C7
ENDCHAR
STARTCHAR 0398
ENCODING 920
SWIDTH 514 0
DWIDTH 10 0
BBX 9 12 0 0
BITMAP
1E00
3F00
6380
6180
6180
FD80
FD80
E180
6180
6380
7F00
1E00
ENDCHAR
STARTCHAR 0399
ENCODING 921
SWIDTH 514 0
DWIDTH 10 0
BBX 8 12 1 0
BITMAP
FF
FF
18
18
18
18
18
18
18
18
FF
FF
ENDCHAR
STARTCHAR 039A
ENCODING 922
SWIDTH 514 0
DWIDTH 10 0
BBX 8 12 1 0
BITMAP
C7
CE
CC
DC
D8
F0
F8
DC
CE
CE
C7
C7
ENDCHAR
STARTCHAR 039B
ENCODING 923
SWIDTH 514 0
DWIDTH 10 0
BBX 9 12 0 0
BITMAP
1C00
1E00
1E00
3600
3600
3300
3300
7300
6300
6380
6180
E180
ENDCHAR
STARTCHAR 039C
ENCODING 924
SWIDTH 514 0
DWIDTH 10 0
BBX 9 12 0 0
BITMAP
6300
7300
7380
5780
7780
7D80
7D80
6D80
6180
6180
E180
E180
ENDCHAR
STARTCHAR 039D
ENCODING 925
SWIDTH 514 0
DWIDTH 10 0
BBX 8 12 1 0
BITMAP
C3
E3
E3
F3
F3
DB
DB
CF
CF
C7
C7
C3
ENDCHAR
STARTCHAR 039E
ENCODING 926
SWIDTH 514 0
DWIDTH 10 0
BBX 8 12 1 0
BITMAP
FF
FF
00
00
00
FE
FE
00
00
00
FF
FF
ENDCHAR
STARTCHAR 039F
ENCODING 927
SWIDTH 514 0
DWIDTH 10 0
BBX 8 12 1 0
BITMAP
3C
7E
E6
C7
C3
C3
C3
C3
C7
E6
7E
3C
ENDCHAR
STARTCHAR 03A0
ENCODING 928
SWIDTH 514 0
DWIDTH 10 0
BBX 8 12 1 0
BITMAP
FF
FF
C7
C7
C7
C7
C7
C7
C7
C7
C7
C7
ENDCHAR
STARTCHAR 03A1
ENCODING 929
SWIDTH 514 0
DWIDTH 10 0
BBX 8 12 1 0
BITMAP
FC
FE
C7
C3
C3
C7
FE
FC
C0
C0
C0
C0
ENDCHAR
STARTCHAR 03A3
ENCODING 931
SWIDTH 514 0
DWIDTH 10 0
BBX 8 12 1 0
BITMAP
FF
FF
60
30
38
1C
1C
38
70
E0
FF
FF
ENDCHAR
STARTCHAR 03A4
ENCODING 932
SWIDTH 514 0
DWIDTH 10 0
BBX 9 12 0 0
BITMAP
FF80
FF80
0C00
0C00
0C00
0C00
0C00
0C00
0C00
0C00
0C00
0C00
ENDCHAR
STARTCHAR 03A5
ENCODING 933
SWIDTH 514 0
DWIDTH 10 0
BBX 9 12 0 0
BITMAP
E180
6380
7300
3300
3600
1E00
1C00
0C00
0C00
0C00
0C00
0C00
ENDCHAR
STARTCHAR 03A6
ENCODING 934
SWIDTH 514 0
DWIDTH 10 0
BBX 9 12 0 0
BITMAP
0C00
3E00
7F00
6F80
6D80
CD80
CD80
6D80
6F80
7F00
3E00
0C00
ENDCHAR
STARTCHAR 03A7
ENCODING 935
SWIDTH 514 0
DWIDTH 10 0
BBX 9 12 0 0
BITMAP
6380
7300
3700
3E00
1E00
1C00
1E00
3E00
3700
7300
6380
E180
ENDCHAR
STARTCHAR 03A8
ENCODING 936
SWIDTH 514 0
DWIDTH 10 0
BBX 9 12 0 0
BITMAP
C180
C180
C180
CD80
CD80
4D80
6D80
7F00
3F00
0C00
0C00
0C00
ENDCHAR
STARTCHAR 03A9
ENCODING 937
SWIDTH 514 0
DWIDTH 10 0
BBX 9 12 0 0
BITMAP
1E00
7F00
7380
E180
E180
E180
E180
6180
6380
7300
F780
F780
ENDCHAR
STARTCHAR 03AA
ENCODING 938
SWIDTH 514 0
DWIDTH 10 0
BBX 8 16 1 0
BITMAP
66
6E
66
00
FF
FF
18
18
18
18
18
18
18
18
FF
FF
ENDCHAR
STARTCHAR 03AB
ENCODING 939
SWIDTH 514 0
DWIDTH 10 0
BBX 9 16 0 0
BITMAP
3300
3700
3300
0000
E180
6380
7300
3300
3600
1E00
1C00
0C00
0C00
0C00
0C00
0C00
ENDCHAR
STARTCHAR 03AC
ENCODING 940
SWIDTH 514 0
DWIDTH 10 0
BBX 8 14 1 0
BITMAP
08
1C
18
10
00
3E
7E
E6
C6
C6
C6
E6
FF
7B
ENDCHAR
STARTCHAR 03AD
ENCODING 941
SWIDTH 514 0
DWIDTH 10 0
BBX 7 14 1 0
BITMAP
08
0C
18
10
00
3E
7E
60
60
3C
FC
C2
FE
7E
ENDCHAR
STARTCHAR 03AE
ENCODING 942
SWIDTH 514 0
DWIDTH 10 0
BBX 7 17 1 -3
BITMAP
08
1C
18
10
00
FC
FE
E6
E6
E6
E6
E6
E6
E6
06
06
06
ENDCHAR
STARTCHAR 03AF
ENCODING 943
SWIDTH 514 0
DWIDTH 10 0
BBX 8 14 1 0
BITMAP
08
18
30
30
00
F0
F0
30
30
30
30
38
1F
1F
ENDCHAR
STARTCHAR 03B0
ENCODING 944
SWIDTH 514 0
DWIDTH 10 0
BBX 8 14 1 0
BITMAP
08
DA
D7
F2
00
C7
C7
C7
C7
C7
C6
E6
FE
7C
ENDCHAR
STARTCHAR 03B1
ENCODING 945
SWIDTH 514 0
DWIDTH 10 0
BBX 8 9 1 0
BITMAP
3E
7E
E6
C6
C6
C6
E6
FF
7B
ENDCHAR
STARTCHAR 03B2
ENCODING 946
SWIDTH 514 0
DWIDTH 10 0
BBX 8 16 1 -3
BITMAP
3C
7E
E6
C6
C6
DC
DE
C7
C3
C3
C7
FE
FC
C0
C0
C0
ENDCHAR
STARTCHAR 03B3
ENCODING 947
SWIDTH 514 0
DWIDTH 10 0
BBX 9 12 0 -3
BITMAP
E180
6380
7380
3300
3700
3E00
3E00
1C00
1C00
1C00
1C00
0C00
ENDCHAR
STARTCHAR 03B4
ENCODING 948
SWIDTH 514 0
DWIDTH 10 0
BBX 8 13 1 0
BITMAP
3C
7E
62
70
38
7E
E6
C7
C3
C7
E7
FE
3C
ENDCHAR
STARTCHAR 03B5
ENCODING 949
SWIDTH 514 0
DWIDTH 10 0
BBX 7 9 1 0
BITMAP
3E
7E
60
60
3C
FC
C2
FE
7E
ENDCHAR
STARTCHAR 03B6
ENCODING 950
SWIDTH 514 0
DWIDTH 10 0
BBX 8 16 1 -3
BITMAP
FE
FE
0C
18
30
70
60
E0
C0
E0
F0
7C
0F
07
07
02
ENDCHAR
STARTCHAR 03B7
ENCODING 951
SWIDTH 514 0
DWIDTH 10 0
BBX 7 12 1 -3
BITMAP
FC
FE
E6
E6
E6
E6
E6
E6
E6
06
06
06
ENDCHAR
STARTCHAR 03B8
ENCODING 952
SWIDTH 514 0
DWIDTH 10 0
BBX 8 13 1 0
BITMAP
3C
7E
E6
C7
C3
FF
FF
C3
C7
C7
E6
7E
3C
ENDCHAR
STARTCHAR 03B9
ENCODING 953
SWIDTH 514 0
DWIDTH 10 0
BBX 8 9 1 0
BITMAP
F0
F0
30
30
30
30
38
1F
1F
ENDCHAR
STARTCHAR 03BA
ENCODING 954
SWIDTH 514 0
DWIDTH 10 0
BBX 8 9 1 0
BITMAP
E7
EE
FC
F8
F8
FC
EE
E6
E7
ENDCHAR
STARTCHAR 03BB
ENCODING 955
SWIDTH 514 0
DWIDTH 10 0
BBX 9 13 0 0
BITMAP
7000
7800
1C00
1C00
0C00
1E00
1E00
3E00
3700
3700
7300
6380
E380
ENDCHAR
STARTCHAR 03BC
ENCODING 956
SWIDTH 514 0
DWIDTH 10 0
BBX 7 12 1 -3
BITMAP
C6
C6
C6
C6
C6
C6
E6
FE
FE
C0
C0
C0
ENDCHAR
STARTCHAR 03BD
ENCODING 957
SWIDTH 514 0
DWIDTH 10 0
BBX 9 9 0 0
BITMAP
E180
6380
6300
7300
3700
3600
1E00
1C00
1C00
ENDCHAR
STARTCHAR 03BE
ENCODING 958
SWIDTH 514 0
DWIDTH 10 0
BBX 8 16 1 -3
BITMAP
3F
7E
60
60
60
3E
7E
E0
C0
C0
E0
7C
1F
07
07
02
ENDCHAR
STARTCHAR 03BF
ENCODING 959
SWIDTH 514 0
DWIDTH 10 0
BBX 8 9 1 0
BITMAP
3C
FE
E7
C7
C3
C7
C7
7E
3C
ENDCHAR
STARTCHAR 03C0
ENCODING 960
SWIDTH 514 0
DWIDTH 10 0
BBX 7 9 1 0
BITMAP
FE
FE
E6
E6
E6
E6
E6
E6
E6
ENDCHAR
STARTCHAR 03C1
ENCODING 961
SWIDTH 514 0
DWIDTH 10 0
BBX 8 12 1 -3
BITMAP
3C
7E
E7
E7
E3
E7
E7
FE
FC
E0
E0
E0
ENDCHAR
STARTCHAR 03C2
ENCODING 962
SWIDTH 514 0
DWIDTH 10 0
BBX 8 12 1 -3
BITMAP
3F
7E
E0
C0
C0
C0
E0
7C
1F
07
07
02
ENDCHAR
STARTCHAR 03C3
ENCODING 963
SWIDTH 514 0
DWIDTH 10 0
BBX 8 9 1 0
BITMAP
3F
FF
E6
C6
C7
C7
C6
FE
3C
ENDCHAR
STARTCHAR 03C4
ENCODING 964
SWIDTH 514 0
DWIDTH 10 0
BBX 8 9 1 0
BITMAP
FF
FF
30
30
30
30
31
3F
1F
ENDCHAR
STARTCHAR 03C5
ENCODING 965
SWIDTH 514 0
DWIDTH 10 0
BBX 8 9 1 0
BITMAP
C7
C7
C7
C7
C7
C6
E6
FE
7C
ENDCHAR
STARTCHAR 03C6
ENCODING 966
SWIDTH 514 0
DWIDTH 10 0
BBX 9 12 0 -3
BITMAP
3E00
7F00
6D80
4D80
CD80
4D80
6D80
7F00
3E00
0C00
0C00
0C00
ENDCHAR
STARTCHAR 03C7
ENCODING 967
SWIDTH 514 0
DWIDTH 10 0
BBX 8 9 1 0
BITMAP
C7
E6
7C
3C
38
3C
6E
E6
C7
ENDCHAR
STARTCHAR 03C8
ENCODING 968
SWIDTH 514 0
DWIDTH 10 0
BBX 9 12 0 -3
BITMAP
C180
C180
CD80
CD80
CD80
4D80
6D80
7F00
3E00
0C00
0C00
0C00
ENDCHAR
STARTCHAR 03C9
ENCODING 969
SWIDTH 514 0
DWIDTH 10 0
BBX 9 9 0 0
BITMAP
2100
6300
6180
6180
ED80
CD80
6D80
7F80
3700
ENDCHAR
STARTCHAR 03CA
ENCODING 970
SWIDTH 514 0
DWIDTH 10 0
BBX 8 13 1 0
BITMAP
66
6E
66
00
F0
F0
30
30
30
30
38
1F
1F
ENDCHAR
STARTCHAR 03CB
ENCODING 971
SWIDTH 514 0
DWIDTH 10 0
BBX 8 13 1 0
BITMAP
66
6E
66
00
C7
C7
C7
C7
C7
C6
E6
FE
7C
ENDCHAR
STARTCHAR 03CC
ENCODING 972
SWIDTH 514 0
DWIDTH 10 0
BBX 8 14 1 0
BITMAP
08
1C
18
10
00
3C
FE
E7
C7
C3
C7
C7
7E
3C
ENDCHAR
STARTCHAR 03CD
ENCODING 973
SWIDTH 514 0
DWIDTH 10 0
BBX 8 14 1 0
BITMAP
08
1C
18
10
00
C7
C7
C7
C7
C7
C6
E6
FE
7C
ENDCHAR
STARTCHAR 03CE
ENCODING 974
SWIDTH 514 0
DWIDTH 10 0
BBX 9 14 0 0
BITMAP
0400
0E00
0C00
0800
0000
2100
6300
6180
6180
ED80
CD80
6D80
7F80
3700
ENDCHAR
STARTCHAR 0400
ENCODING 1024
SWIDTH 514 0
DWIDTH 10 0
BBX 8 16 1 0
BITMAP
10
38
0C
00
FE
FE
E0
E0
E0
FE
FE
E0
E0
E0
FF
FF
ENDCHAR
STARTCHAR 0401
ENCODING 1025
SWIDTH 514 0
DWIDTH 10 0
BBX 8 16 1 0
BITMAP
66
6E
66
00
FE
FE
E0
E0
E0
FE
FE
E0
E0
E0
FF
FF
ENDCHAR
STARTCHAR 0402
ENCODING 1026
SWIDTH 514 0
DWIDTH 10 0
BBX 9 12 0 0
BITMAP
FE00
FE00
3000
3000
3000
3F00
3F80
3180
3180
3180
3780
3700
ENDCHAR
STARTCHAR 0403
ENCODING 1027
SWIDTH 514 0
DWIDTH 10 0
BBX 8 16 1 0
BITMAP
04
0E
18
00
7F
7F
70
70
70
70
70
70
70
70
FC
FC
ENDCHAR
STARTCHAR 0404
ENCODING 1028
SWIDTH 514 0
DWIDTH 10 0
BBX 8 12 1 0
BITMAP
3E
7F
E1
C0
C0
FC
FC
C0
C0
E1
7F
3E
ENDCHAR
STARTCHAR 0405
ENCODING 1029
SWIDTH 514 0
DWIDTH 10 0
BBX 8 12 1 0
BITMAP
3C
FE
E2
C0
E0
7C
3E
07
07
87
FE
7C
ENDCHAR
STARTCHAR 0406
ENCODING 1030
SWIDTH 514 0
DWIDTH 10 0
BBX 8 12 1 0
BITMAP
FF
FF
18
18
18
18
18
18
18
18
FF
FF
ENDCHAR
STARTCHAR 0407
ENCODING 1031
SWIDTH 514 0
DWIDTH 10 0
BBX 8 16 1 0
BITMAP
66
6E
66
00
FF
FF
18
18
18
18
18
18
18
18
FF
FF
ENDCHAR
STARTCHAR 0408
ENCODING 1032
SWIDTH 514 0
DWIDTH 10 0
BBX 7 12 1 0
BITMAP
7E
7E
06
06
06
06
06
06
06
8E
FE
78
ENDCHAR
STARTCHAR 0409
ENCODING 1033
SWIDTH 514 0
DWIDTH 10 0
BBX 9 12 0 0
BITMAP
7C00
7C00
6C00
6C00
6F00
6F80
6D80
6D80
6D80
6D80
EF80
CF00
ENDCHAR
STARTCHAR 040A
ENCODING 1034
SWIDTH 514 0
DWIDTH 10 0
BBX 8 12 1 0
BITMAP
D8
D8
D8
D8
FE
FF
DB
DB
DB
DB
DF
DE
ENDCHAR
STARTCHAR 040B
ENCODING 1035
SWIDTH 514 0
DWIDTH 10 0
BBX 9 12 0 0
BITMAP
FE00
FE00
3000
3000
3E00
3F00
3380
3380
3380
3380
3380
3380
ENDCHAR
STARTCHAR 040C
ENCODING 1036
SWIDTH 514 0
DWIDTH 10 0
BBX 8 16 1 0
BITMAP
08
3C
30
00
C7
CE
CC
DC
D8
F0
F8
DC
CE
CE
C7
C7
ENDCHAR
STARTCHAR 040D
ENCODING 1037
SWIDTH 514 0
DWIDTH 10 0
BBX 8 16 1 0
BITMAP
10
38
0C
00
C7
C7
CF
CF
DB
DB
F3
F3
E3
E3
C3
C3
ENDCHAR
STARTCHAR 040E
ENCODING 1038
SWIDTH 514 0
DWIDTH 10 0
BBX 9 16 0 0
BITMAP
3300
3E00
1C00
0000
E180
6380
7380
3300
3F00
1F00
1E00
0E00
0C00
1C00
7800
7000
ENDCHAR
STARTCHAR 040F
ENCODING 1039
SWIDTH 514 0
DWIDTH 10 0
BBX 8 15 1 -3
BITMAP
C7
C7
C7
C7
C7
C7
C7
C7
C7
C7
FF
FF
18
18
18
ENDCHAR
STARTCHAR 0410
ENCODING 1040
SWIDTH 514 0
DWIDTH 10 0
BBX 9 12 0 0
BITMAP
1C00
1E00
1E00
3600
3600
3300
3300
7F00
7F00
6380
6180
E180
ENDCHAR
STARTCHAR 0411
ENCODING 1041
SWIDTH 514 0
DWIDTH 10 0
BBX 8 12 1 0
BITMAP
FE
FE
C0
C0
FC
FE
C7
C3
C3
C7
FE
FC
ENDCHAR
STARTCHAR 0412
ENCODING 1042
SWIDTH 514 0
DWIDTH 10 0
BBX 8 12 1 0
BITMAP
FC
FE
C6
C6
C6
FC
FE
C7
C3
C7
FE
FC
ENDCHAR
STARTCHAR 0413
ENCODING 1043
SWIDTH 514 0
DWIDTH 10 0
BBX 8 12 1 0
BITMAP
7F
7F
70
70
70
70
70
70
70
70
FC
FC
ENDCHAR
STARTCHAR 0414
ENCODING 1044
SWIDTH 514 0
DWIDTH 10 0
BBX 9 15 0 -3
BITMAP
3F80
3F80
3380
3380
3380
3380
3380
3380
3380
6380
FF80
FF80
C180
C180
C180
ENDCHAR
STARTCHAR 0415
ENCODING 1045
SWIDTH 514 0
DWIDTH 10 0
BBX 8 12 1 0
BITMAP
FE
FE
E0
E0
E0
FE
FE
E0
E0
E0
FF
FF
ENDCHAR
STARTCHAR 0416
ENCODING 1046
SWIDTH 514 0
DWIDTH 10 0
BBX 9 12 0 0
BITMAP
CD80
6D80
6D00
2F00
3F00
3E00
3E00
2F00
6D00
6D80
4D80
CD80
ENDCHAR
STARTCHAR 0417
ENCODING 1047
SWIDTH 514 0
DWIDTH 10 0
BBX 8 12 1 0
BITMAP
7C
FE
87
07
06
7C
7E
07
03
87
FE
7C
ENDCHAR
STARTCHAR 0418
ENCODING 1048
SWIDTH 514 0
DWIDTH 10 0
BBX 8 12 1 0
BITMAP
C7
C7
CF
CF
DB
DB
F3
F3
E3
E3
C3
C3
ENDCHAR
STARTCHAR 0419
ENCODING 1049
SWIDTH 514 0
DWIDTH 10 0
BBX 8 16 1 0
BITMAP
66
7C
38
00
C7
C7
CF
CF
DB
DB
F3
F3
E3
E3
C3
C3
ENDCHAR
STARTCHAR 041A
ENCODING 1050
SWIDTH 514 0
DWIDTH 10 0
BBX 8 12 1 0
BITMAP
C7
CE
CC
DC
D8
F0
F8
DC
CE
CE
C7
C7
ENDCHAR
STARTCHAR 041B
ENCODING 1051
SWIDTH 514 0
DWIDTH 10 0
BBX 9 12 0 0
BITMAP
1F80
1F80
1B80
1B80
1B80
3B80
3380
3380
3380
7380
E380
C380
ENDCHAR
STARTCHAR 041C
ENCODING 1052
SWIDTH 514 0
DWIDTH 10 0
BBX 9 12 0 0
BITMAP
6300
7300
7380
5780
7780
7D80
7D80
6D80
6180
6180
E180
E180
ENDCHAR
STARTCHAR 041D
ENCODING 1053
SWIDTH 514 0
DWIDTH 10 0
BBX 8 12 1 0
BITMAP
C7
C7
C7
C7
C7
FF
FF
C7
C7
C7
C7
C7
ENDCHAR
STARTCHAR 041E
ENCODING 1054
SWIDTH 514 0
DWIDTH 10 0
BBX 8 12 1 0
BITMAP
3C
7E
E6
C7
C3
C3
C3
C3
C7
E6
7E
3C
ENDCHAR
STARTCHAR 041F
ENCODING 1055
SWIDTH 514 0
DWIDTH 10 0
BBX 8 12 1 0
BITMAP
FF
FF
C7
C7
C7
C7
C7
C7
C7
C7
C7
C7
ENDCHAR
STARTCHAR 0420
ENCODING 1056
SWIDTH 514 0
DWIDTH 10 0
BBX 8 12 1 0
BITMAP
FC
FE
C7
C3
C3
C7
FE
FC
C0
C0
C0
C0
ENDCHAR
STARTCHAR 0421
ENCODING 1057
SWIDTH 514 0
DWIDTH 10 0
BBX 8 12 1 0
BITMAP
3E
7F
E1
C0
C0
C0
C0
C0
C0
E1
7F
3E
ENDCHAR
STARTCHAR 0422
ENCODING 1058
SWIDTH 514 0
DWIDTH 10 0
BBX 9 12 0 0
BITMAP
FF80
FF80
0C00
0C00
0C00
0C00
0C00
0C00
0C00
0C00
0C00
0C00
ENDCHAR
STARTCHAR 0423
ENCODING 1059
SWIDTH 514 0
DWIDTH 10 0
BBX 9 12 0 0
BITMAP
E180
6380
7380
3300
3F00
1F00
1E00
0E00
0C00
1C00
7800
7000
ENDCHAR
STARTCHAR 0424
ENCODING 1060
SWIDTH 514 0
DWIDTH 10 0
BBX 9 12 0 0
BITMAP
0C00
3E00
7F00
6F80
6D80
CD80
CD80
6D80
6F80
7F00
3E00
0C00
ENDCHAR
STARTCHAR 0425
ENCODING 1061
SWIDTH 514 0
DWIDTH 10 0
BBX 9 12 0 0
BITMAP
6380
7300
3700
3E00
1E00
1C00
1E00
3E00
3700
7300
6380
E180
ENDCHAR
STARTCHAR 0426
ENCODING 1062
SWIDTH 514 0
DWIDTH 10 0
BBX 8 15 1 -3
BITMAP
C6
C6
C6
C6
C6
C6
C6
C6
C6
C6
FF
FF
03
03
03
ENDCHAR
STARTCHAR 0427
ENCODING 1063
SWIDTH 514 0
DWIDTH 10 0
BBX 8 12 1 0
BITMAP
C7
C7
C7
C7
C7
E7
FF
7F
07
07
07
07
ENDCHAR
STARTCHAR 0428
ENCODING 1064
SWIDTH 514 0
DWIDTH 10 0
BBX 9 12 0 0
BITMAP
C180
C180
C180
C180
C180
CD80
CD80
CD80
CD80
CD80
FF80
FF80
ENDCHAR
STARTCHAR 0429
ENCODING 1065
SWIDTH 514 0
DWIDTH 10 0
BBX 9 15 0 -3
BITMAP
C180
C180
C180
C180
C180
C980
C980
C980
C980
C980
FF80
FF80
0180
0180
0180
ENDCHAR
STARTCHAR 042A
ENCODING 1066
SWIDTH 514 0
DWIDTH 10 0
BBX 9 12 0 0
BITMAP
F000
F000
3000
3000
3E00
3F00
3380
3380
3380
3380
3F00
3E00
ENDCHAR
STARTCHAR 042B
ENCODING 1067
SWIDTH 514 0
DWIDTH 10 0
BBX 8 12 1 0
BITMAP
83
83
83
83
F3
FB
9B
9B
9B
9B
FB
F3
ENDCHAR
STARTCHAR 042C
ENCODING 1068
SWIDTH 514 0
DWIDTH 10 0
BBX 8 12 1 0
BITMAP
C0
C0
C0
C0
FC
FE
C7
C7
C7
C7
FE
FC
ENDCHAR
STARTCHAR 042D
ENCODING 1069
SWIDTH 514 0
DWIDTH 10 0
BBX 8 12 1 0
BITMAP
78
FE
86
07
03
3F
3F
03
07
86
FE
78
ENDCHAR
STARTCHAR 042E
ENCODING 1070
SWIDTH 514 0
DWIDTH 10 0
BBX 8 12 1 0
BITMAP
8E
9E
9B
9B
93
F3
F3
93
9B
9B
9F
8E
ENDCHAR
STARTCHAR 042F
ENCODING 1071
SWIDTH 514 0
DWIDTH 10 0
BBX 8 12 1 0
BITMAP
3F
7F
E7
E7
E7
E7
7F
3F
77
67
E7
C7
ENDCHAR
STARTCHAR 0430
ENCODING 1072
SWIDTH 514 0
DWIDTH 10 0
BBX 7 9 1 0
BITMAP
7C
7E
06
7E
FE
C6
C6
FE
7E
ENDCHAR
STARTCHAR 0431
ENCODING 1073
SWIDTH 514 0
DWIDTH 10 0
BBX 8 13 1 0
BITMAP
06
3F
70
E0
FC
FE
C7
C7
C7
C7
E6
7E
3C
ENDCHAR
STARTCHAR 0432
ENCODING 1074
SWIDTH 514 0
DWIDTH 10 0
BBX 8 9 1 0
BITMAP
FC
FE
E6
E6
FE
FF
E7
FE
FC
ENDCHAR
STARTCHAR 0433
ENCODING 1075
SWIDTH 514 0
DWIDTH 10 0
BBX 7 9 2 0
BITMAP
FE
FE
C0
C0
C0
C0
C0
C0
C0
ENDCHAR
STARTCHAR 0434
ENCODING 1076
SWIDTH 514 0
DWIDTH 10 0
BBX 9 12 0 -3
BITMAP
1F00
3F00
3300
3300
3300
3300
7300
FF80
FF80
E180
E180
E180
ENDCHAR
STARTCHAR 0435
ENCODING 1077
SWIDTH 514 0
DWIDTH 10 0
BBX 8 9 1 0
BITMAP
3C
7E
E6
C3
FF
FF
C0
7E
3E
ENDCHAR
STARTCHAR 0436
ENCODING 1078
SWIDTH 514 0
DWIDTH 10 0
BBX 9 9 0 0
BITMAP
CD80
6D00
2F00
3E00
3E00
2F00
6F00
6D80
4D80
ENDCHAR
STARTCHAR 0437
ENCODING 1079
SWIDTH 514 0
DWIDTH 10 0
BBX 7 9 1 0
BITMAP
FC
7E
06
3E
3C
06
86
FE
7C
ENDCHAR
STARTCHAR 0438
ENCODING 1080
SWIDTH 514 0
DWIDTH 10 0
BBX 7 9 1 0
BITMAP
C6
CE
CE
DE
DE
F6
E6
E6
C6
ENDCHAR
STARTCHAR 0439
ENCODING 1081
SWIDTH 514 0
DWIDTH 10 0
BBX 7 13 1 0
BITMAP
66
7C
38
00
C6
CE
CE
DE
DE
F6
E6
E6
C6
ENDCHAR
STARTCHAR 043A
ENCODING 1082
SWIDTH 514 0
DWIDTH 10 0
BBX 8 9 1 0
BITMAP
E7
EE
FC
F8
F8
FC
EE
E6
E7
ENDCHAR
STARTCHAR 043B
ENCODING 1083
SWIDTH 514 0
DWIDTH 10 0
BBX 8 9 0 0
BITMAP
3F
3F
3B
33
33
33
73
F3
63
ENDCHAR
STARTCHAR 043C
ENCODING 1084
SWIDTH 514 0
DWIDTH 10 0
BBX 9 9 0 0
BITMAP
6300
7380
7380
7780
7F80
7D80
6D80
6180
E180
ENDCHAR
STARTCHAR 043D
ENCODING 1085
SWIDTH 514 0
DWIDTH 10 0
BBX 7 9 1 0
BITMAP
C6
C6
C6
FE
FE
C6
C6
C6
C6
ENDCHAR
STARTCHAR 043E
ENCODING 1086
SWIDTH 514 0
DWIDTH 10 0
BBX 8 9 1 0
BITMAP
3C
FE
E7
C7
C3
C7
C7
7E
3C
ENDCHAR
STARTCHAR 043F
ENCODING 1087
SWIDTH 514 0
DWIDTH 10 0
BBX 7 9 1 0
BITMAP
FE
FE
E6
E6
E6
E6
E6
E6
E6
ENDCHAR
STARTCHAR 0440
ENCODING 1088
SWIDTH 514 0
DWIDTH 10 0
BBX 8 12 1 -3
BITMAP
FC
FE
E7
E7
E3
E7
E7
FE
FC
E0
E0
E0
ENDCHAR
STARTCHAR 0441
ENCODING 1089
SWIDTH 514 0
DWIDTH 10 0
BBX 8 9 1 0
BITMAP
3F
7E
E0
C0
C0
C0
E0
7F
3F
ENDCHAR
STARTCHAR 0442
ENCODING 1090
SWIDTH 514 0
DWIDTH 10 0
BBX 8 9 1 0
BITMAP
FF
FF
18
18
18
18
18
18
18
ENDCHAR
STARTCHAR 0443
ENCODING 1091
SWIDTH 514 0
DWIDTH 10 0
BBX 9 12 0 -3
BITMAP
6380
7380
7300
3300
3300
1E00
1E00
1E00
0C00
1C00
7800
F000
ENDCHAR
STARTCHAR 0444
ENCODING 1092
SWIDTH 514 0
DWIDTH 10 0
BBX 9 16 0 -3
BITMAP
0C00
0C00
0C00
0C00
3E00
7F00
6D80
4D80
CD80
4D80
6D80
7F00
3E00
0C00
0C00
0C00
ENDCHAR
STARTCHAR 0445
ENCODING 1093
SWIDTH 514 0
DWIDTH 10 0
BBX 8 9 1 0
BITMAP
C7
E6
7C
3C
38
3C
6E
E6
C7
ENDCHAR
STARTCHAR 0446
ENCODING 1094
SWIDTH 514 0
DWIDTH 10 0
BBX 8 12 1 -3
BITMAP
E6
E6
E6
E6
E6
E6
E6
FF
FF
07
07
07
ENDCHAR
STARTCHAR 0447
ENCODING 1095
SWIDTH 514 0
DWIDTH 10 0
BBX 7 9 1 0
BITMAP
C6
C6
C6
C6
FE
7E
06
06
06
ENDCHAR
STARTCHAR 0448
ENCODING 1096
SWIDTH 514 0
DWIDTH 10 0
BBX 8 9 1 0
BITMAP
83
83
9B
9B
9B
9B
9B
FF
FF
ENDCHAR
STARTCHAR 0449
ENCODING 1097
SWIDTH 514 0
DWIDTH 10 0
BBX 8 12 1 -3
BITMAP
83
83
93
93
93
93
93
FF
FF
03
03
03
ENDCHAR
STARTCHAR 044A
ENCODING 1098
SWIDTH 514 0
DWIDTH 10 0
BBX 9 9 0 0
BITMAP
F000
F000
3000
3F00
3F80
3380
3380
3F80
3F00
ENDCHAR
STARTCHAR 044B
ENCODING 1099
SWIDTH 514 0
DWIDTH 10 0
BBX 8 9 1 0
BITMAP
83
83
83
F3
FB
9B
9B
FB
F3
ENDCHAR
STARTCHAR 044C
ENCODING 1100
SWIDTH 514 0
DWIDTH 10 0
BBX 8 9 1 0
BITMAP
C0
C0
C0
FC
FF
C7
C7
FF
FE
ENDCHAR
STARTCHAR 044D
ENCODING 1101
SWIDTH 514 0
DWIDTH 10 0
BBX 9 9 0 0
BITMAP
7C00
7F00
0300
1F80
1F80
0380
0700
7F00
FC00
ENDCHAR
STARTCHAR 044E
ENCODING 1102
SWIDTH 514 0
DWIDTH 10 0
BBX 9 9 0 0
BITMAP
C700
CF80
DD80
F980
F980
D980
CD80
CF80
C700
ENDCHAR
STARTCHAR 044F
ENCODING 1103
SWIDTH 514 0
DWIDTH 10 0
BBX 8 9 1 0
BITMAP
7F
FF
C7
C7
FF
7F
67
E7
C7
ENDCHAR
STARTCHAR 0450
ENCODING 1104
SWIDTH 514 0
DWIDTH 10 0
BBX 8 13 1 0
BITMAP
30
38
08
00
3C
7E
E6
C3
FF
FF
C0
7E
3E
ENDCHAR
STARTCHAR 0451
ENCODING 1105
SWIDTH 514 0
DWIDTH 10 0
BBX 8 13 1 0
BITMAP
66
6E
66
00
3C
7E
E6
C3
FF
FF
C0
7E
3E
ENDCHAR
STARTCHAR 0452
ENCODING 1106
SWIDTH 514 0
DWIDTH 10 0
BBX 8 17 0 -3
BITMAP
10
30
FC
FC
30
3E
3F
33
33
33
33
33
33
33
03
0F
0E
ENDCHAR
STARTCHAR 0453
ENCODING 1107
SWIDTH 514 0
DWIDTH 10 0
BBX 7 13 2 0
BITMAP
08
3C
20
00
FE
FE
C0
C0
C0
C0
C0
C0
C0
ENDCHAR
STARTCHAR 0454
ENCODING 1108
SWIDTH 514 0
DWIDTH 10 0
BBX 8 9 1 0
BITMAP
3F
7E
E0
C0
FC
FC
E0
7F
3F
ENDCHAR
STARTCHAR 0455
ENCODING 1109
SWIDTH 514 0
DWIDTH 10 0
BBX 7 9 1 0
BITMAP
3E
7E
E0
F0
7C
0E
86
FE
7C
ENDCHAR
STARTCHAR 0456
ENCODING 1110
SWIDTH 514 0
DWIDTH 10 0
BBX 8 13 1 0
BITMAP
30
30
00
F0
F0
30
30
30
30
30
38
1F
1F
ENDCHAR
STARTCHAR 0457
ENCODING 1111
SWIDTH 514 0
DWIDTH 10 0
BBX 8 13 1 0
BITMAP
6C
EE
6C
00
F0
F0
30
30
30
30
39
1F
1E
ENDCHAR
STARTCHAR 0458
ENCODING 1112
SWIDTH 514 0
DWIDTH 10 0
BBX 7 16 1 -3
BITMAP
0C
0C
00
7E
7E
0E
0E
0E
0E
0E
0E
0E
0E
8C
FC
78
ENDCHAR
STARTCHAR 0459
ENCODING 1113
SWIDTH 514 0
DWIDTH 10 0
BBX 9 9 0 0
BITMAP
7C00
7C00
6C00
6F00
6F80
6D80
6D80
EF80
CF00
ENDCHAR
STARTCHAR 045A
ENCODING 1114
SWIDTH 514 0
DWIDTH 10 0
BBX 8 9 1 0
BITMAP
D8
D8
D8
DE
FF
FB
DB
DF
DE
ENDCHAR
STARTCHAR 045B
ENCODING 1115
SWIDTH 514 0
DWIDTH 10 0
BBX 8 13 0 0
BITMAP
30
FC
FC
30
3E
3F
33
33
33
33
33
33
33
ENDCHAR
STARTCHAR 045C
ENCODING 1116
SWIDTH 514 0
DWIDTH 10 0
BBX 8 13 1 0
BITMAP
08
1C
10
00
E7
EE
FC
F8
F8
FC
EE
E6
E7
ENDCHAR
STARTCHAR 045D
ENCODING 1117
SWIDTH 514 0
DWIDTH 10 0
BBX 7 13 1 0
BITMAP
30
38
08
00
C6
CE
CE
DE
DE
F6
E6
E6
C6
ENDCHAR
STARTCHAR 045E
ENCODING 1118
SWIDTH 514 0
DWIDTH 10 0
BBX 9 16 0 -3
BITMAP
3300
3E00
1C00
0000
6380
7380
7300
3300
3300
1E00
1E00
1E00
0C00
1C00
7800
F000
ENDCHAR
STARTCHAR 045F
ENCODING 1119
SWIDTH 514 0
DWIDTH 10 0
BBX 7 12 1 -3
BITMAP
E6
E6
E6
E6
E6
E6
E6
FE
FE
18
18
18
ENDCHAR
STARTCHAR 0462
ENCODING 1122
SWIDTH 514 0
DWIDTH 10 0
BBX 9 12 0 0
BITMAP
3000
FE00
FE00
3000
3E00
3F00
3380
3380
3380
3380
3F00
3E00
ENDCHAR
STARTCHAR 0463
ENCODING 1123
SWIDTH 514 0
DWIDTH 10 0
BBX 9 13 0 0
BITMAP
3000
3000
3000
3000
FE00
FE00
3000
3F00
3F80
3380
3380
3F80
3F00
ENDCHAR
STARTCHAR 0472
ENCODING 1138
SWIDTH 514 0
DWIDTH 10 0
BBX 8 12 1 0
BITMAP
3C
7E
E6
C7
C3
F3
FF
CF
C7
E6
7E
3C
ENDCHAR
STARTCHAR 0473
ENCODING 1139
SWIDTH 514 0
DWIDTH 10 0
BBX 8 9 1 0
BITMAP
3C
FE
C7
F3
FF
C7
C7
7E
3C
ENDCHAR
STARTCHAR 0474
ENCODING 1140
SWIDTH 514 0
DWIDTH 10 0
BBX 10 12 0 0
BITMAP
E1C0
E380
6300
6300
6600
6600
7600
3600
3400
3C00
1C00
1C00
ENDCHAR
STARTCHAR 0475
ENCODING 1141
SWIDTH 514 0
DWIDTH 10 0
BBX 10 9 0 0
BITMAP
E3C0
6380
6700
7600
3600
3E00
3C00
1C00
1800
ENDCHAR
STARTCHAR 048A
ENCODING 1162
SWIDTH 514 0
DWIDTH 10 0
BBX 8 19 1 -3
BITMAP
66
7C
38
00
C7
C7
CF
CF
DB
DB
F3
F3
E3
E3
C3
C3
03
06
06
ENDCHAR
STARTCHAR 048B
ENCODING 1163
SWIDTH 514 0
DWIDTH 10 0
BBX 8 16 1 -3
BITMAP
66
7C
38
00
C6
CE
CE
DE
DE
F6
E6
E7
C7
07
06
04
ENDCHAR
STARTCHAR 048C
ENCODING 1164
SWIDTH 514 0
DWIDTH 10 0
BBX 9 12 0 0
BITMAP
7000
F800
F800
7000
7E00
7F00
7380
7380
7380
7380
7F00
7E00
ENDCHAR
STARTCHAR 048D
ENCODING 1165
SWIDTH 514 0
DWIDTH 10 0
BBX 9 9 0 0
BITMAP
7000
FC00
7000
7F00
7F80
7380
7380
7F80
7F00
ENDCHAR
STARTCHAR 048E
ENCODING 1166
SWIDTH 514 0
DWIDTH 10 0
BBX 8 12 1 0
BITMAP
FC
FE
C7
C3
CB
CF
FE
FE
C6
C2
C0
C0
ENDCHAR
STARTCHAR 048F
ENCODING 1167
SWIDTH 514 0
DWIDTH 10 0
BBX 8 12 1 -3
BITMAP
FC
FE
E7
E7
E3
EB
FF
FE
FE
E6
E0
E0
ENDCHAR
STARTCHAR 0490
ENCODING 1168
SWIDTH 514 0
DWIDTH 10 0
BBX 8 14 1 0
BITMAP
03
03
7F
7F
70
70
70
70
70
70
70
70
FC
FC
ENDCHAR
STARTCHAR 0491
ENCODING 1169
SWIDTH 514 0
DWIDTH 10 0
BBX 7 11 2 0
BITMAP
0E
0E
FE
FE
C0
C0
C0
C0
C0
C0
C0
ENDCHAR
STARTCHAR 0492
ENCODING 1170
SWIDTH 514 0
DWIDTH 10 0
BBX 8 12 1 0
BITMAP
7F
7F
70
70
70
FC
FC
70
70
70
FC
FC
ENDCHAR
STARTCHAR 0493
ENCODING 1171
SWIDTH 514 0
DWIDTH 10 0
BBX 9 9 0 0
BITMAP
3F80
3F80
3000
3000
FC00
FC00
3000
3000
3000
ENDCHAR
STARTCHAR 0494
ENCODING 1172
SWIDTH 514 0
DWIDTH 10 0
BBX 8 15 1 -3
BITMAP
FE
FE
C0
C0
FC
FE
C7
C3
C3
C3
C3
C3
07
3E
3C
ENDCHAR
STARTCHAR 0495
ENCODING 1173
SWIDTH 514 0
DWIDTH 10 0
BBX 8 12 1 -3
BITMAP
FE
FE
E0
FC
FE
E7
E3
E3
E3
07
1E
1C
ENDCHAR
STARTCHAR 0496
ENCODING 1174
SWIDTH 514 0
DWIDTH 10 0
BBX 9 15 0 -3
BITMAP
CD80
6D80
6D00
2F00
3F00
3E00
3E00
2F00
6D00
6D80
4D80
CD80
0080
0080
0080
ENDCHAR
STARTCHAR 0497
ENCODING 1175
SWIDTH 514 0
DWIDTH 10 0
BBX 9 11 0 -2
BITMAP
CD80
6D80
2F00
3E00
3E00
3F00
6F00
6D80
4D80
0080
0080
ENDCHAR
STARTCHAR 0498
ENCODING 1176
SWIDTH 514 0
DWIDTH 10 0
BBX 8 15 1 -3
BITMAP
7C
FE
87
07
06
7C
7E
07
03
87
FE
7C
18
08
38
ENDCHAR
STARTCHAR 0499
ENCODING 1177
SWIDTH 514 0
DWIDTH 10 0
BBX 7 12 1 -3
BITMAP
FC
7E
06
06
3C
3E
06
FE
FC
18
08
38
ENDCHAR
STARTCHAR 049A
ENCODING 1178
SWIDTH 514 0
DWIDTH 10 0
BBX 8 15 1 -3
BITMAP
C6
CE
CC
DC
D8
F0
F8
DC
CC
CE
C7
C7
03
03
03
ENDCHAR
STARTCHAR 049B
ENCODING 1179
SWIDTH 514 0
DWIDTH 10 0
BBX 8 11 1 -2
BITMAP
EE
EC
F8
F8
F8
FC
EC
EF
E7
07
07
ENDCHAR
STARTCHAR 049C
ENCODING 1180
SWIDTH 514 0
DWIDTH 10 0
BBX 8 12 1 0
BITMAP
C3
C7
F6
FE
FC
FC
FC
FC
F6
F6
C3
C3
ENDCHAR
STARTCHAR 049D
ENCODING 1181
SWIDTH 514 0
DWIDTH 10 0
BBX 8 9 1 0
BITMAP
C3
F6
FE
FC
FC
FE
C6
C7
C3
ENDCHAR
STARTCHAR 049E
ENCODING 1182
SWIDTH 514 0
DWIDTH 10 0
BBX 8 13 1 0
BITMAP
60
F7
F7
66
6C
7C
78
7C
6C
6E
66
67
63
ENDCHAR
STARTCHAR 049F
ENCODING 1183
SWIDTH 514 0
DWIDTH 10 0
BBX 9 10 0 0
BITMAP
7000
FB80
7700
7600
7C00
7C00
7E00
7700
7300
7380
ENDCHAR
STARTCHAR 04A0
ENCODING 1184
SWIDTH 514 0
DWIDTH 10 0
BBX 9 12 0 0
BITMAP
F380
F300
3300
3600
3600
3C00
3E00
3600
3700
3300
3380
3180
ENDCHAR
STARTCHAR 04A1
ENCODING 1185
SWIDTH 514 0
DWIDTH 10 0
BBX 9 9 0 0
BITMAP
F380
F700
3600
3C00
3C00
3600
3700
3300
3380
ENDCHAR
STARTCHAR 04A2
ENCODING 1186
SWIDTH 514 0
DWIDTH 10 0
BBX 8 15 1 -3
BITMAP
C6
C6
C6
C6
C6
FE
FE
C6
C6
C6
C7
C7
03
03
03
ENDCHAR
STARTCHAR 04A3
ENCODING 1187
SWIDTH 514 0
DWIDTH 10 0
BBX 8 12 1 -3
BITMAP
C6
C6
C6
FE
FE
C6
C6
C7
C7
03
03
03
ENDCHAR
STARTCHAR 04A4
ENCODING 1188
SWIDTH 514 0
DWIDTH 10 0
BBX 8 12 1 0
BITMAP
CF
CF
CC
CC
CC
FC
FC
CC
CC
CC
CC
CC
ENDCHAR
STARTCHAR 04A5
ENCODING 1189
SWIDTH 514 0
DWIDTH 10 0
BBX 8 9 1 0
BITMAP
CF
CF
CE
FE
FE
CE
CE
CE
CE
ENDCHAR
STARTCHAR 04A6
ENCODING 1190
SWIDTH 514 0
DWIDTH 10 0
BBX 8 15 1 -3
BITMAP
F8
F8
D8
D8
DE
DE
DB
DB
DB
DB
DB
DB
03
0E
0E
ENDCHAR
STARTCHAR 04A7
ENCODING 1191
SWIDTH 514 0
DWIDTH 10 0
BBX 8 12 1 -3
BITMAP
F8
F8
D8
DE
DF
DB
DB
DB
DB
03
0F
0E
ENDCHAR
STARTCHAR 04A8
ENCODING 1192
SWIDTH 514 0
DWIDTH 10 0
BBX 9 15 0 -3
BITMAP
1F00
3F00
7000
6700
EF80
ED80
ED80
ED80
6D80
6F80
3F00
1E00
0600
0700
0300
ENDCHAR
STARTCHAR 04A9
ENCODING 1193
SWIDTH 514 0
DWIDTH 10 0
BBX 9 11 0 -2
BITMAP
1E00
7E00
6000
E700
EF80
ED80
6D80
7F80
1F00
0780
0380
ENDCHAR
STARTCHAR 04AA
ENCODING 1194
SWIDTH 514 0
DWIDTH 10 0
BBX 8 15 1 -3
BITMAP
3E
7F
E1
C0
C0
C0
C0
C0
C0
E0
7F
3E
18
0C
38
ENDCHAR
STARTCHAR 04AB
ENCODING 1195
SWIDTH 514 0
DWIDTH 10 0
BBX 8 12 1 -3
BITMAP
3F
7E
E0
C0
C0
C0
E0
7F
3F
18
0C
38
ENDCHAR
STARTCHAR 04AC
ENCODING 1196
SWIDTH 514 0
DWIDTH 10 0
BBX 9 15 0 -3
BITMAP
FF80
FF80
0C00
0C00
0C00
0C00
0C00
0C00
0C00
0C00
0E00
0E00
0600
0600
0600
ENDCHAR
STARTCHAR 04AD
ENCODING 1197
SWIDTH 514 0
DWIDTH 10 0
BBX 8 12 1 -3
BITMAP
FF
FF
18
18
18
18
18
1E
1E
0E
0E
0E
ENDCHAR
STARTCHAR 04AE
ENCODING 1198
SWIDTH 514 0
DWIDTH 10 0
BBX 9 12 0 0
BITMAP
E180
6380
7300
3300
3600
1E00
1C00
0C00
0C00
0C00
0C00
0C00
ENDCHAR
STARTCHAR 04AF
ENCODING 1199
SWIDTH 514 0
DWIDTH 10 0
BBX 9 12 0 -3
BITMAP
E180
6380
6300
7300
3700
3E00
1E00
1C00
1C00
1C00
1C00
1C00
ENDCHAR
STARTCHAR 04B0
ENCODING 1200
SWIDTH 514 0
DWIDTH 10 0
BBX 9 12 0 0
BITMAP
E180
6380
7300
3300
3600
1E00
1C00
7F00
7F00
0C00
0C00
0C00
ENDCHAR
STARTCHAR 04B1
ENCODING 1201
SWIDTH 514 0
DWIDTH 10 0
BBX 9 12 0 -3
BITMAP
E180
6380
6300
7300
3700
3600
1E00
7F00
7F00
1C00
1C00
1C00
ENDCHAR
STARTCHAR 04B2
ENCODING 1202
SWIDTH 514 0
DWIDTH 10 0
BBX 9 15 0 -3
BITMAP
6380
7300
3600
3600
1C00
1C00
1C00
3600
3600
7700
6380
E380
0180
0180
0180
ENDCHAR
STARTCHAR 04B3
ENCODING 1203
SWIDTH 514 0
DWIDTH 10 0
BBX 8 12 1 -3
BITMAP
C6
EE
6C
38
38
7C
6C
C7
C7
03
03
03
ENDCHAR
STARTCHAR 04B4
ENCODING 1204
SWIDTH 514 0
DWIDTH 10 0
BBX 9 15 0 -3
BITMAP
FB80
FB80
3380
3380
3380
3380
3380
3380
3380
3380
3F80
3F80
0180
0180
0180
ENDCHAR
STARTCHAR 04B5
ENCODING 1205
SWIDTH 514 0
DWIDTH 10 0
BBX 9 12 0 -3
BITMAP
FB00
FB00
3300
3300
3300
3300
3300
3F80
3F80
0180
0180
0180
ENDCHAR
STARTCHAR 04B6
ENCODING 1206
SWIDTH 514 0
DWIDTH 10 0
BBX 8 15 1 -3
BITMAP
C6
C6
C6
C6
C6
E6
FE
7E
06
06
07
07
03
03
03
ENDCHAR
STARTCHAR 04B7
ENCODING 1207
SWIDTH 514 0
DWIDTH 10 0
BBX 8 12 1 -3
BITMAP
C6
C6
C6
C6
FE
7E
06
07
07
07
07
07
ENDCHAR
STARTCHAR 04B8
ENCODING 1208
SWIDTH 514 0
DWIDTH 10 0
BBX 8 12 1 0
BITMAP
C7
C7
C7
C7
D7
D7
FF
7F
17
17
07
07
ENDCHAR
STARTCHAR 04B9
ENCODING 1209
SWIDTH 514 0
DWIDTH 10 0
BBX 8 9 1 0
BITMAP
C7
C7
C7
D7
FF
7F
17
17
07
ENDCHAR
STARTCHAR 04BA
ENCODING 1210
SWIDTH 514 0
DWIDTH 10 0
BBX 8 12 1 0
BITMAP
C0
C0
C0
C0
FC
FE
C7
C7
C7
C7
C7
C7
ENDCHAR
STARTCHAR 04BB
ENCODING 1211
SWIDTH 514 0
DWIDTH 10 0
BBX 7 13 1 0
BITMAP
E0
E0
E0
E0
FC
FE
E6
E6
E6
E6
E6
E6
E6
ENDCHAR
STARTCHAR 04BC
ENCODING 1212
SWIDTH 514 0
DWIDTH 10 0
BBX 9 12 0 0
BITMAP
0700
0F00
1980
D980
D980
7F80
3F80
1800
1800
1880
0F80
0780
ENDCHAR
STARTCHAR 04BD
ENCODING 1213
SWIDTH 514 0
DWIDTH 10 0
BBX 9 9 0 0
BITMAP
0E00
DF00
D980
FF80
7F80
1800
1800
1F00
0F00
ENDCHAR
STARTCHAR 04BE
ENCODING 1214
SWIDTH 514 0
DWIDTH 10 0
BBX 9 14 0 -2
BITMAP
0700
0F00
1980
D980
D980
FF80
7F80
1800
1800
1880
0F80
0780
0600
0600
ENDCHAR
STARTCHAR 04BF
ENCODING 1215
SWIDTH 514 0
DWIDTH 10 0
BBX 9 11 0 -2
BITMAP
0E00
DF00
D980
FF80
7F80
1800
1800
1F00
0F00
0600
0600
ENDCHAR
STARTCHAR 04C0
ENCODING 1216
SWIDTH 514 0
DWIDTH 10 0
BBX 8 12 1 0
BITMAP
FF
FF
18
18
18
18
18
18
18
18
FF
FF
ENDCHAR
STARTCHAR 04C1
ENCODING 1217
SWIDTH 514 0
DWIDTH 10 0
BBX 9 16 0 0
BITMAP
3300
3E00
1C00
0000
CD80
6D80
6D00
2F00
3F00
3E00
3E00
2F00
6D00
6D80
4D80
CD80
ENDCHAR
STARTCHAR 04C2
ENCODING 1218
SWIDTH 514 0
DWIDTH 10 0
BBX 9 13 0 0
BITMAP
3300
3E00
1C00
0000
CD80
6D00
2F00
3E00
3E00
2F00
6F00
6D80
4D80
ENDCHAR
STARTCHAR 04C3
ENCODING 1219
SWIDTH 514 0
DWIDTH 10 0
BBX 8 15 1 -3
BITMAP
C7
C6
CE
DC
D8
FC
FE
C7
C3
C3
C3
C3
07
1E
1C
ENDCHAR
STARTCHAR 04C4
ENCODING 1220
SWIDTH 514 0
DWIDTH 10 0
BBX 8 12 1 -3
BITMAP
E7
EC
F8
FC
FE
E7
E3
E3
E3
07
1E
1C
ENDCHAR
STARTCHAR 04C5
ENCODING 1221
SWIDTH 514 0
DWIDTH 10 0
BBX 9 15 0 -3
BITMAP
1F00
1F00
1B00
1B00
1B00
1B00
3B00
3300
3300
7300
E380
C380
0380
0300
0200
ENDCHAR
STARTCHAR 04C6
ENCODING 1222
SWIDTH 514 0
DWIDTH 10 0
BBX 9 12 0 -3
BITMAP
3F00
3F00
3B00
3300
3300
3300
7300
E380
4380
0380
0300
0200
ENDCHAR
STARTCHAR 04C7
ENCODING 1223
SWIDTH 514 0
DWIDTH 10 0
BBX 8 15 1 -3
BITMAP
C7
C7
C7
C7
C7
FF
FF
C7
C7
C7
C7
C7
07
1E
1C
ENDCHAR
STARTCHAR 04C8
ENCODING 1224
SWIDTH 514 0
DWIDTH 10 0
BBX 7 12 1 -3
BITMAP
C6
C6
C6
FE
FE
C6
C6
C6
C6
06
1E
3C
ENDCHAR
STARTCHAR 04C9
ENCODING 1225
SWIDTH 514 0
DWIDTH 10 0
BBX 8 15 1 -3
BITMAP
C6
C6
C6
C6
C6
FE
FE
C6
C6
C6
C7
C7
07
06
04
ENDCHAR
STARTCHAR 04CA
ENCODING 1226
SWIDTH 514 0
DWIDTH 10 0
BBX 8 12 1 -3
BITMAP
C6
C6
C6
FE
FE
C6
C6
C7
C7
07
06
04
ENDCHAR
STARTCHAR 04CB
ENCODING 1227
SWIDTH 514 0
DWIDTH 10 0
BBX 8 15 1 -3
BITMAP
C7
C7
C7
C7
C7
E7
FF
7F
07
07
0F
0F
0C
0C
0C
ENDCHAR
STARTCHAR 04CC
ENCODING 1228
SWIDTH 514 0
DWIDTH 10 0
BBX 7 12 1 -3
BITMAP
C6
C6
C6
C6
FE
7E
06
1E
1E
18
18
18
ENDCHAR
STARTCHAR 04CD
ENCODING 1229
SWIDTH 514 0
DWIDTH 10 0
BBX 9 15 0 -3
BITMAP
6300
6300
7700
7700
7500
7D00
7D00
6D80
6180
6180
E180
E180
0180
0300
0300
ENDCHAR
STARTCHAR 04CE
ENCODING 1230
SWIDTH 514 0
DWIDTH 10 0
BBX 9 12 0 -3
BITMAP
6300
7300
7700
7500
7500
7580
7D80
6D80
E180
0180
0300
0300
ENDCHAR
STARTCHAR 04CF
ENCODING 1231
SWIDTH 514 0
DWIDTH 10 0
BBX 8 12 1 0
BITMAP
FF
FF
18
18
18
18
18
18
18
18
FF
FF
ENDCHAR
STARTCHAR 04D0
ENCODING 1232
SWIDTH 514 0
DWIDTH 10 0
BBX 9 16 0 0
BITMAP
3300
3E00
1C00
0000
1C00
1E00
1E00
3600
3600
3300
3300
7F00
7F00
6380
6180
E180
ENDCHAR
STARTCHAR 04D1
ENCODING 1233
SWIDTH 514 0
DWIDTH 10 0
BBX 7 13 1 0
BITMAP
66
7C
38
00
7C
7E
06
7E
FE
C6
C6
FE
7E
ENDCHAR
STARTCHAR 04D2
ENCODING 1234
SWIDTH 514 0
DWIDTH 10 0
BBX 9 16 0 0
BITMAP
3300
3700
3300
0000
1C00
1E00
1E00
3600
3600
3300
3300
7F00
7F00
6380
6180
E180
ENDCHAR
STARTCHAR 04D3
ENCODING 1235
SWIDTH 514 0
DWIDTH 10 0
BBX 7 13 1 0
BITMAP
66
6E
66
00
7C
7E
06
7E
FE
C6
C6
FE
7E
ENDCHAR
STARTCHAR 04D4
ENCODING 1236
SWIDTH 514 0
DWIDTH 10 0
BBX 9 12 0 0
BITMAP
0F80
1F80
1E00
1600
3600
3780
3780
7E00
7E00
6600
6780
E780
ENDCHAR
STARTCHAR 04D5
ENCODING 1237
SWIDTH 514 0
DWIDTH 10 0
BBX 9 9 0 0
BITMAP
7B00
7F80
0D80
7C80
7F80
CC00
CC00
7F80
3B80
ENDCHAR
STARTCHAR 04D6
ENCODING 1238
SWIDTH 514 0
DWIDTH 10 0
BBX 8 16 1 0
BITMAP
66
3E
1C
00
FE
FE
E0
E0
E0
FE
FE
E0
E0
E0
FF
FF
ENDCHAR
STARTCHAR 04D7
ENCODING 1239
SWIDTH 514 0
DWIDTH 10 0
BBX 8 13 1 0
BITMAP
66
7E
3C
00
3C
7E
E6
C3
FF
FF
C0
7E
3E
ENDCHAR
STARTCHAR 04D8
ENCODING 1240
SWIDTH 514 0
DWIDTH 10 0
BBX 9 12 0 0
BITMAP
7C00
7E00
0300
0380
0180
FF80
FF80
6180
6380
6300
3F00
1E00
ENDCHAR
STARTCHAR 04D9
ENCODING 1241
SWIDTH 514 0
DWIDTH 10 0
BBX 8 9 1 0
BITMAP
FC
FE
06
07
FF
FF
C6
FE
7C
ENDCHAR
STARTCHAR 04DA
ENCODING 1242
SWIDTH 514 0
DWIDTH 10 0
BBX 9 16 0 0
BITMAP
3600
7700
3600
0000
7C00
7E00
0300
0380
0180
FF80
FF80
6180
6380
6300
3F00
1E00
ENDCHAR
STARTCHAR 04DB
ENCODING 1243
SWIDTH 514 0
DWIDTH 10 0
BBX 8 13 1 0
BITMAP
66
EE
6E
00
FC
FE
06
07
FF
FF
C6
FE
7C
ENDCHAR
STARTCHAR 04DC
ENCODING 1244
SWIDTH 514 0
DWIDTH 10 0
BBX 9 16 0 0
BITMAP
3300
3700
3300
0000
CD80
6D80
6D00
2F00
3F00
3E00
3E00
2F00
6D00
6D80
4D80
CD80
ENDCHAR
STARTCHAR 04DD
ENCODING 1245
SWIDTH 514 0
DWIDTH 10 0
BBX 9 13 0 0
BITMAP
3300
3700
3300
0000
CD80
6D00
2F00
3E00
3E00
2F00
6F00
6D80
4D80
ENDCHAR
STARTCHAR 04DE
ENCODING 1246
SWIDTH 514 0
DWIDTH 10 0
BBX 8 16 1 0
BITMAP
66
6E
66
00
7C
FE
87
07
06
7C
7E
07
03
87
FE
7C
ENDCHAR
STARTCHAR 04DF
ENCODING 1247
SWIDTH 514 0
DWIDTH 10 0
BBX 7 13 1 0
BITMAP
66
EE
6E
00
FC
7E
06
3E
3C
06
86
FE
7C
ENDCHAR
STARTCHAR 04E0
ENCODING 1248
SWIDTH 514 0
DWIDTH 10 0
BBX 8 12 1 0
BITMAP
FF
FF
06
0C
18
3C
3F
07
03
87
FF
FC
ENDCHAR
STARTCHAR 04E1
ENCODING 1249
SWIDTH 514 0
DWIDTH 10 0
BBX 7 12 1 -3
BITMAP
FE
FE
0C
1C
38
3C
0E
06
06
8E
FE
FC
ENDCHAR
STARTCHAR 04E2
ENCODING 1250
SWIDTH 514 0
DWIDTH 10 0
BBX 8 15 1 0
BITMAP
7E
7E
00
C7
C7
CF
CF
DB
DB
F3
F3
E3
E3
C3
C3
ENDCHAR
STARTCHAR 04E3
ENCODING 1251
SWIDTH 514 0
DWIDTH 10 0
BBX 7 12 1 0
BITMAP
7E
7E
00
C6
CE
CE
DE
DE
F6
E6
E6
C6
ENDCHAR
STARTCHAR 04E4
ENCODING 1252
SWIDTH 514 0
DWIDTH 10 0
BBX 8 16 1 0
BITMAP
66
6E
66
00
C7
C7
CF
CF
DB
DB
F3
F3
E3
E3
C3
C3
ENDCHAR
STARTCHAR 04E5
ENCODING 1253
SWIDTH 514 0
DWIDTH 10 0
BBX 7 13 1 0
BITMAP
66
6E
66
00
C6
CE
CE
DE
DE
F6
E6
E6
C6
ENDCHAR
STARTCHAR 04E6
ENCODING 1254
SWIDTH 514 0
DWIDTH 10 0
BBX 8 16 1 0
BITMAP
66
6E
66
00
3C
7E
E6
C7
C3
C3
C3
C3
C7
E6
7E
3C
ENDCHAR
STARTCHAR 04E7
ENCODING 1255
SWIDTH 514 0
DWIDTH 10 0
BBX 8 13 1 0
BITMAP
66
6E
66
00
3C
FE
E7
C7
C3
C7
C7
7E
3C
ENDCHAR
STARTCHAR 04E8
ENCODING 1256
SWIDTH 514 0
DWIDTH 10 0
BBX 8 12 1 0
BITMAP
3C
7E
E6
C7
C3
FF
FF
C3
C7
E6
7E
3C
ENDCHAR
STARTCHAR 04E9
ENCODING 1257
SWIDTH 514 0
DWIDTH 10 0
BBX 8 9 1 0
BITMAP
3C
FE
C7
FF
FF
C7
E7
7E
3C
ENDCHAR
STARTCHAR 04EA
ENCODING 1258
SWIDTH 514 0
DWIDTH 10 0
BBX 8 16 1 0
BITMAP
66
6E
66
00
3C
7E
E6
C7
C3
FF
FF
C3
C7
E6
7E
3C
ENDCHAR
STARTCHAR 04EB
ENCODING 1259
SWIDTH 514 0
DWIDTH 10 0
BBX 8 13 1 0
BITMAP
66
6E
66
00
3C
FE
C7
FF
FF
C7
E7
7E
3C
ENDCHAR
STARTCHAR 04EC
ENCODING 1260
SWIDTH 514 0
DWIDTH 10 0
BBX 8 16 1 0
BITMAP
66
EE
6E
00
78
FE
86
07
03
3F
3F
03
07
86
FE
78
ENDCHAR
STARTCHAR 04ED
ENCODING 1261
SWIDTH 514 0
DWIDTH 10 0
BBX 9 13 0 0
BITMAP
3300
7700
3700
0000
7C00
7F00
0300
1F80
1F80
0380
0700
7F00
FC00
ENDCHAR
STARTCHAR 04EE
ENCODING 1262
SWIDTH 514 0
DWIDTH 10 0
BBX 9 15 0 0
BITMAP
3F00
3F00
0000
E180
6380
7380
3300
3F00
1F00
1E00
0E00
0C00
1C00
7800
7000
ENDCHAR
STARTCHAR 04EF
ENCODING 1263
SWIDTH 514 0
DWIDTH 10 0
BBX 9 15 0 -3
BITMAP
3F00
3F00
0000
6380
7380
7300
3300
3300
1E00
1E00
1E00
0C00
1C00
7800
F000
ENDCHAR
STARTCHAR 04F0
ENCODING 1264
SWIDTH 514 0
DWIDTH 10 0
BBX 9 16 0 0
BITMAP
3300
3700
3300
0000
E180
6380
7380
3300
3F00
1F00
1E00
0E00
0C00
1C00
7800
7000
ENDCHAR
STARTCHAR 04F1
ENCODING 1265
SWIDTH 514 0
DWIDTH 10 0
BBX 9 16 0 -3
BITMAP
3300
3300
3300
0000
6380
7380
7300
3300
3300
1E00
1E00
1E00
0C00
1C00
7800
F000
ENDCHAR
STARTCHAR 04F2
ENCODING 1266
SWIDTH 514 0
DWIDTH 10 0
BBX 9 16 0 0
BITMAP
0980
1B00
3200
0000
E180
6380
7380
3300
3F00
1F00
1E00
0E00
0C00
1C00
7800
7000
ENDCHAR
STARTCHAR 04F3
ENCODING 1267
SWIDTH 514 0
DWIDTH 10 0
BBX 9 16 0 -3
BITMAP
0980
1B00
3200
0000
6380
7380
7300
3300
3300
1E00
1E00
1E00
0C00
1C00
7800
F000
ENDCHAR
STARTCHAR 04F4
ENCODING 1268
SWIDTH 514 0
DWIDTH 10 0
BBX 8 16 1 0
BITMAP
66
6E
66
00
C7
C7
C7
C7
C7
E7
FF
7F
07
07
07
07
ENDCHAR
STARTCHAR 04F5
ENCODING 1269
SWIDTH 514 0
DWIDTH 10 0
BBX 7 13 1 0
BITMAP
66
6E
66
00
C6
C6
C6
C6
FE
7E
06
06
06
ENDCHAR
STARTCHAR 04F6
ENCODING 1270
SWIDTH 514 0
DWIDTH 10 0
BBX 8 15 1 -3
BITMAP
7F
7F
70
70
70
70
70
70
70
70
FC
FC
0C
0C
0C
ENDCHAR
STARTCHAR 04F7
ENCODING 1271
SWIDTH 514 0
DWIDTH 10 0
BBX 7 12 2 -3
BITMAP
FE
FE
C0
C0
C0
C0
C0
F0
F0
30
30
30
ENDCHAR
STARTCHAR 04F8
ENCODING 1272
SWIDTH 514 0
DWIDTH 10 0
BBX 8 16 1 0
BITMAP
66
6E
66
00
83
83
83
83
F3
FB
9B
9B
9B
9B
FB
F3
ENDCHAR
STARTCHAR 04F9
ENCODING 1273
SWIDTH 514 0
DWIDTH 10 0
BBX 8 13 1 0
BITMAP
66
6E
66
00
83
83
83
F3
FB
9B
9B
FB
F3
ENDCHAR
STARTCHAR 1E80
ENCODING 7808
SWIDTH 514 0
DWIDTH 10 0
BBX 9 16 0 0
BITMAP
1000
3C00
0400
0000
E180
E180
6180
6180
6D80
6D80
7D80
5F80
5780
7380
7380
6300
ENDCHAR
STARTCHAR 1E81
ENCODING 7809
SWIDTH 514 0
DWIDTH 10 0
BBX 9 13 0 0
BITMAP
1000
3C00
0400
0000
C180
C180
CD80
4D80
5D80
7F80
7700
7300
7300
ENDCHAR
STARTCHAR 1E82
ENCODING 7810
SWIDTH 514 0
DWIDTH 10 0
BBX 9 16 0 0
BITMAP
0400
1E00
1800
0000
E180
E180
6180
6180
6D80
6D80
7D80
5F80
5780
7380
7380
6300
ENDCHAR
STARTCHAR 1E83
ENCODING 7811
SWIDTH 514 0
DWIDTH 10 0
BBX 9 13 0 0
BITMAP
0400
1E00
1800
0000
C180
C180
CD80
4D80
5D80
7F80
7700
7300
7300
ENDCHAR
STARTCHAR 1E84
ENCODING 7812
SWIDTH 514 0
DWIDTH 10 0
BBX 9 16 0 0
BITMAP
3300
3700
3300
0000
E180
E180
6180
6180
6D80
6D80
7D80
5F80
5780
7380
7380
6300
ENDCHAR
STARTCHAR 1E85
ENCODING 7813
SWIDTH 514 0
DWIDTH 10 0
BBX 9 13 0 0
BITMAP
3300
3700
3300
0000
C180
C180
CD80
4D80
5D80
7F80
7700
7300
7300
ENDCHAR
STARTCHAR 1EF2
ENCODING 7922
SWIDTH 514 0
DWIDTH 10 0
BBX 9 16 0 0
BITMAP
1000
3C00
0C00
0000
E180
6380
7300
3300
3600
1E00
1C00
0C00
0C00
0C00
0C00
0C00
ENDCHAR
STARTCHAR 1EF3
ENCODING 7923
SWIDTH 514 0
DWIDTH 10 0
BBX 9 16 0 -3
BITMAP
1000
3C00
0400
0000
6380
7380
7300
3300
3300
1E00
1E00
1E00
0C00
1C00
7800
F000
ENDCHAR
STARTCHAR 1F00
ENCODING 7936
SWIDTH 514 0
DWIDTH 10 0
BBX 8 14 1 0
BITMAP
18
18
18
30
00
3E
7E
E6
C6
C6
C6
E6
FF
7B
ENDCHAR
STARTCHAR 1F01
ENCODING 7937
SWIDTH 514 0
DWIDTH 10 0
BBX 8 14 1 0
BITMAP
38
38
10
08
00
3E
7E
E6
C6
C6
C6
E6
FF
7B
ENDCHAR
STARTCHAR 1F02
ENCODING 7938
SWIDTH 514 0
DWIDTH 10 0
BBX 8 14 1 0
BITMAP
64
6E
66
42
00
3E
7E
E6
C6
C6
C6
E6
FF
7B
ENDCHAR
STARTCHAR 1F03
ENCODING 7939
SWIDTH 514 0
DWIDTH 10 0
BBX 8 14 1 0
BITMAP
68
6C
46
26
00
3E
7E
E6
C6
C6
C6
E6
FF
7B
ENDCHAR
STARTCHAR 1F04
ENCODING 7940
SWIDTH 514 0
DWIDTH 10 0
BBX 8 14 1 0
BITMAP
72
76
2C
48
00
3E
7E
E6
C6
C6
C6
E6
FF
7B
ENDCHAR
STARTCHAR 1F05
ENCODING 7941
SWIDTH 514 0
DWIDTH 10 0
BBX 8 14 1 0
BITMAP
62
66
6C
28
00
3E
7E
E6
C6
C6
C6
E6
FF
7B
ENDCHAR
STARTCHAR 1F06
ENCODING 7942
SWIDTH 514 0
DWIDTH 10 0
BBX 8 15 1 0
BITMAP
3C
64
18
18
30
00
3E
7E
E6
C6
C6
C6
E6
FF
7B
ENDCHAR
STARTCHAR 1F07
ENCODING 7943
SWIDTH 514 0
DWIDTH 10 0
BBX 8 16 1 0
BITMAP
38
64
5C
10
08
00
00
3E
7E
E6
C6
C6
C6
E6
FF
7B
ENDCHAR
STARTCHAR 1F08
ENCODING 7944
SWIDTH 514 0
DWIDTH 10 0
BBX 9 12 0 0
BITMAP
DC00
DE00
DE00
B600
3600
3300
3300
7F00
7F00
6380
6180
E180
ENDCHAR
STARTCHAR 1F09
ENCODING 7945
SWIDTH 514 0
DWIDTH 10 0
BBX 10 12 -1 0
BITMAP
CE00
CF00
CF00
3B00
1B00
1980
1980
3F80
3F80
31C0
30C0
70C0
ENDCHAR
STARTCHAR 1F0A
ENCODING 7946
SWIDTH 514 0
DWIDTH 10 0
BBX 14 12 -5 0
BITMAP
68E0
6CF0
46F0
83B0
01B0
0198
0198
03F8
03F8
031C
030C
070C
ENDCHAR
STARTCHAR 1F0B
ENCODING 7947
SWIDTH 514 0
DWIDTH 10 0
BBX 13 12 -4 0
BITMAP
D1C0
D9E0
CDE0
4760
0360
0330
0330
07F0
07F0
0638
0618
0E18
ENDCHAR
STARTCHAR 1F0C
ENCODING 7948
SWIDTH 514 0
DWIDTH 10 0
BBX 13 12 -4 0
BITMAP
65C0
6DE0
6DE0
CB60
0360
0330
0330
07F0
07F0
0638
0618
0E18
ENDCHAR
STARTCHAR 1F0D
ENCODING 7949
SWIDTH 514 0
DWIDTH 10 0
BBX 13 12 -4 0
BITMAP
C5C0
CDE0
C9E0
6B60
0360
0330
0330
07F0
07F0
0638
0618
0E18
ENDCHAR
STARTCHAR 1F0E
ENCODING 7950
SWIDTH 514 0
DWIDTH 10 0
BBX 12 13 -3 0
BITMAP
7800
CF80
33C0
33C0
26C0
06C0
0660
0660
0FE0
0FE0
0C70
0C30
1C30
ENDCHAR
STARTCHAR 1F0F
ENCODING 7951
SWIDTH 514 0
DWIDTH 10 0
BBX 12 14 -3 0
BITMAP
3800
4800
FF80
33C0
13C0
06C0
06C0
0660
0660
0FE0
0FE0
0C70
0C30
1C30
ENDCHAR
STARTCHAR 1F10
ENCODING 7952
SWIDTH 514 0
DWIDTH 10 0
BBX 7 14 1 0
BITMAP
18
1C
18
10
00
3E
7E
60
60
3C
FC
C2
FE
7E
ENDCHAR
STARTCHAR 1F11
ENCODING 7953
SWIDTH 514 0
DWIDTH 10 0
BBX 7 14 1 0
BITMAP
38
38
10
08
00
3E
7E
60
60
3C
FC
C2
FE
7E
ENDCHAR
STARTCHAR 1F12
ENCODING 7954
SWIDTH 514 0
DWIDTH 10 0
BBX 7 14 1 0
BITMAP
64
6E
66
42
00
3E
7E
60
60
3C
FC
C2
FE
7E
ENDCHAR
STARTCHAR 1F13
ENCODING 7955
SWIDTH 514 0
DWIDTH 10 0
BBX 7 14 1 0
BITMAP
68
6C
46
26
00
3E
7E
60
60
3C
FC
C2
FE
7E
ENDCHAR
STARTCHAR 1F14
ENCODING 7956
SWIDTH 514 0
DWIDTH 10 0
BBX 7 14 1 0
BITMAP
72
76
2C
48
00
3E
7E
60
60
3C
FC
C2
FE
7E
ENDCHAR
STARTCHAR 1F15
ENCODING 7957
SWIDTH 514 0
DWIDTH 10 0
BBX 7 14 1 0
BITMAP
62
66
6C
28
00
3E
7E
60
60
3C
FC
C2
FE
7E
ENDCHAR
STARTCHAR 1F18
ENCODING 7960
SWIDTH 514 0
DWIDTH 10 0
BBX 12 12 -3 0
BITMAP
6FE0
6FE0
6E00
CE00
0E00
0FE0
0FE0
0E00
0E00
0E00
0FF0
0FF0
ENDCHAR
STARTCHAR 1F19
ENCODING 7961
SWIDTH 514 0
DWIDTH 10 0
BBX 12 12 -3 0
BITMAP
6FE0
EFE0
6E00
2E00
0E00
0FE0
0FE0
0E00
0E00
0E00
0FF0
0FF0
ENDCHAR
STARTCHAR 1F1A
ENCODING 7962
SWIDTH 514 0
DWIDTH 10 0
BBX 15 12 -6 0
BITMAP
C9FC
D9FC
CDC0
85C0
01C0
01FC
01FC
01C0
01C0
01C0
01FE
01FE
ENDCHAR
STARTCHAR 1F1B
ENCODING 7963
SWIDTH 514 0
DWIDTH 10 0
BBX 15 12 -6 0
BITMAP
C9FC
D9FC
CDC0
65C0
01C0
01FC
01FC
01C0
01C0
01C0
01FE
01FE
ENDCHAR
STARTCHAR 1F1C
ENCODING 7964
SWIDTH 514 0
DWIDTH 10 0
BBX 15 12 -6 0
BITMAP
65FC
6DFC
59C0
99C0
01C0
01FC
01FC
01C0
01C0
01C0
01FE
01FE
ENDCHAR
STARTCHAR 1F1D
ENCODING 7965
SWIDTH 514 0
DWIDTH 10 0
BBX 15 12 -6 0
BITMAP
C5FC
CDFC
D9C0
51C0
01C0
01FC
01FC
01C0
01C0
01C0
01FE
01FE
ENDCHAR
STARTCHAR 1F20
ENCODING 7968
SWIDTH 514 0
DWIDTH 10 0
BBX 7 17 1 -3
BITMAP
18
18
18
30
00
FC
FE
E6
E6
E6
E6
E6
E6
E6
06
06
06
ENDCHAR
STARTCHAR 1F21
ENCODING 7969
SWIDTH 514 0
DWIDTH 10 0
BBX 7 17 1 -3
BITMAP
38
38
10
08
00
FC
FE
E6
E6
E6
E6
E6
E6
E6
06
06
06
ENDCHAR
STARTCHAR 1F22
ENCODING 7970
SWIDTH 514 0
DWIDTH 10 0
BBX 7 17 1 -3
BITMAP
64
6E
66
42
00
FC
FE
E6
E6
E6
E6
E6
E6
E6
06
06
06
ENDCHAR
STARTCHAR 1F23
ENCODING 7971
SWIDTH 514 0
DWIDTH 10 0
BBX 7 17 1 -3
BITMAP
68
6C
46
26
00
FC
FE
E6
E6
E6
E6
E6
E6
E6
06
06
06
ENDCHAR
STARTCHAR 1F24
ENCODING 7972
SWIDTH 514 0
DWIDTH 10 0
BBX 7 17 1 -3
BITMAP
72
76
2C
48
00
FC
FE
E6
E6
E6
E6
E6
E6
E6
06
06
06
ENDCHAR
STARTCHAR 1F25
ENCODING 7973
SWIDTH 514 0
DWIDTH 10 0
BBX 7 17 1 -3
BITMAP
62
66
6C
28
00
FC
FE
E6
E6
E6
E6
E6
E6
E6
06
06
06
ENDCHAR
STARTCHAR 1F26
ENCODING 7974
SWIDTH 514 0
DWIDTH 10 0
BBX 7 18 1 -3
BITMAP
3C
64
18
18
30
00
FC
FE
E6
E6
E6
E6
E6
E6
E6
06
06
06
ENDCHAR
STARTCHAR 1F27
ENCODING 7975
SWIDTH 514 0
DWIDTH 10 0
BBX 7 19 1 -3
BITMAP
38
64
5C
10
08
00
00
FC
FE
E6
E6
E6
E6
E6
E6
E6
06
06
06
ENDCHAR
STARTCHAR 1F28
ENCODING 7976
SWIDTH 514 0
DWIDTH 10 0
BBX 12 12 -3 0
BITMAP
6C70
EC70
4C70
8C70
0C70
0FF0
0FF0
0C70
0C70
0C70
0C70
0C70
ENDCHAR
STARTCHAR 1F29
ENCODING 7977
SWIDTH 514 0
DWIDTH 10 0
BBX 12 12 -3 0
BITMAP
CC70
CC70
4C70
2C70
0C70
0FF0
0FF0
0C70
0C70
0C70
0C70
0C70
ENDCHAR
STARTCHAR 1F2A
ENCODING 7978
SWIDTH 514 0
DWIDTH 10 0
BBX 16 12 -7 0
BITMAP
68C7
6CC7
46C7
82C7
00C7
00FF
00FF
00C7
00C7
00C7
00C7
00C7
ENDCHAR
STARTCHAR 1F2B
ENCODING 7979
SWIDTH 514 0
DWIDTH 10 0
BBX 15 12 -6 0
BITMAP
D18E
D98E
CD8E
458E
018E
01FE
01FE
018E
018E
018E
018E
018E
ENDCHAR
STARTCHAR 1F2C
ENCODING 7980
SWIDTH 514 0
DWIDTH 10 0
BBX 15 12 -6 0
BITMAP
C98E
CD8E
D98E
918E
018E
01FE
01FE
018E
018E
018E
018E
018E
ENDCHAR
STARTCHAR 1F2D
ENCODING 7981
SWIDTH 514 0
DWIDTH 10 0
BBX 16 12 -7 0
BITMAP
C4C7
E6C7
4CC7
28C7
00C7
00FF
00FF
00C7
00C7
00C7
00C7
00C7
ENDCHAR
STARTCHAR 1F2E
ENCODING 7982
SWIDTH 514 0
DWIDTH 10 0
BBX 14 13 -5 0
BITMAP
7000
8B1C
331C
331C
631C
031C
03FC
03FC
031C
031C
031C
031C
031C
ENDCHAR
STARTCHAR 1F2F
ENCODING 7983
SWIDTH 514 0
DWIDTH 10 0
BBX 14 14 -5 0
BITMAP
7000
C800
BB1C
231C
131C
031C
031C
03FC
03FC
031C
031C
031C
031C
031C
ENDCHAR
STARTCHAR 1F30
ENCODING 7984
SWIDTH 514 0
DWIDTH 10 0
BBX 8 14 1 0
BITMAP
18
18
18
30
00
F0
F0
30
30
30
30
38
1F
1F
ENDCHAR
STARTCHAR 1F31
ENCODING 7985
SWIDTH 514 0
DWIDTH 10 0
BBX 8 14 1 0
BITMAP
38
38
10
08
00
F0
F0
30
30
30
30
38
1F
1F
ENDCHAR
STARTCHAR 1F32
ENCODING 7986
SWIDTH 514 0
DWIDTH 10 0
BBX 8 14 1 0
BITMAP
64
6E
66
42
00
F0
F0
30
30
30
30
38
1F
1F
ENDCHAR
STARTCHAR 1F33
ENCODING 7987
SWIDTH 514 0
DWIDTH 10 0
BBX 8 14 1 0
BITMAP
68
6C
46
26
00
F0
F0
30
30
30
30
38
1F
1F
ENDCHAR
STARTCHAR 1F34
ENCODING 7988
SWIDTH 514 0
DWIDTH 10 0
BBX 8 14 1 0
BITMAP
72
76
2C
48
00
F0
F0
30
30
30
30
38
1F
1F
ENDCHAR
STARTCHAR 1F35
ENCODING 7989
SWIDTH 514 0
DWIDTH 10 0
BBX 8 14 1 0
BITMAP
62
66
6C
28
00
F0
F0
30
30
30
30
38
1F
1F
ENDCHAR
STARTCHAR 1F36
ENCODING 7990
SWIDTH 514 0
DWIDTH 10 0
BBX 8 15 1 0
BITMAP
3C
64
18
18
30
00
F0
F0
30
30
30
30
38
1F
1F
ENDCHAR
STARTCHAR 1F37
ENCODING 7991
SWIDTH 514 0
DWIDTH 10 0
BBX 8 16 1 0
BITMAP
38
64
5C
10
08
00
00
F0
F0
30
30
30
30
38
1F
1F
ENDCHAR
STARTCHAR 1F38
ENCODING 7992
SWIDTH 514 0
DWIDTH 10 0
BBX 12 12 -3 0
BITMAP
6FF0
6FF0
6180
C180
0180
0180
0180
0180
0180
0180
0FF0
0FF0
ENDCHAR
STARTCHAR 1F39
ENCODING 7993
SWIDTH 514 0
DWIDTH 10 0
BBX 12 12 -3 0
BITMAP
CFF0
CFF0
C180
6180
0180
0180
0180
0180
0180
0180
0FF0
0FF0
ENDCHAR
STARTCHAR 1F3A
ENCODING 7994
SWIDTH 514 0
DWIDTH 10 0
BBX 16 12 -7 0
BITMAP
6CFF
6CFF
6618
C218
0018
0018
0018
0018
0018
0018
00FF
00FF
ENDCHAR
STARTCHAR 1F3B
ENCODING 7995
SWIDTH 514 0
DWIDTH 10 0
BBX 15 12 -6 0
BITMAP
D1FE
D9FE
CC30
4430
0030
0030
0030
0030
0030
0030
01FE
01FE
ENDCHAR
STARTCHAR 1F3C
ENCODING 7996
SWIDTH 514 0
DWIDTH 10 0
BBX 15 12 -6 0
BITMAP
C5FE
EDFE
5830
9030
0030
0030
0030
0030
0030
0030
01FE
01FE
ENDCHAR
STARTCHAR 1F3D
ENCODING 7997
SWIDTH 514 0
DWIDTH 10 0
BBX 16 12 -7 0
BITMAP
64FF
E6FF
4C18
2818
0018
0018
0018
0018
0018
0018
00FF
00FF
ENDCHAR
STARTCHAR 1F3E
ENCODING 7998
SWIDTH 514 0
DWIDTH 10 0
BBX 14 13 -5 0
BITMAP
7800
CBFC
33FC
3060
2060
0060
0060
0060
0060
0060
0060
03FC
03FC
ENDCHAR
STARTCHAR 1F3F
ENCODING 7999
SWIDTH 514 0
DWIDTH 10 0
BBX 14 14 -5 0
BITMAP
7000
C800
BBFC
23FC
1060
0060
0060
0060
0060
0060
0060
0060
03FC
03FC
ENDCHAR
STARTCHAR 1F40
ENCODING 8000
SWIDTH 514 0
DWIDTH 10 0
BBX 8 14 1 0
BITMAP
18
18
18
30
00
3C
FE
E7
C7
C3
C7
C7
7E
3C
ENDCHAR
STARTCHAR 1F41
ENCODING 8001
SWIDTH 514 0
DWIDTH 10 0
BBX 8 14 1 0
BITMAP
38
38
10
08
00
3C
FE
E7
C7
C3
C7
C7
7E
3C
ENDCHAR
STARTCHAR 1F42
ENCODING 8002
SWIDTH 514 0
DWIDTH 10 0
BBX 8 14 1 0
BITMAP
64
6E
66
42
00
3C
FE
E7
C7
C3
C7
C7
7E
3C
ENDCHAR
STARTCHAR 1F43
ENCODING 8003
SWIDTH 514 0
DWIDTH 10 0
BBX 8 14 1 0
BITMAP
68
6C
46
26
00
3C
FE
E7
C7
C3
C7
C7
7E
3C
ENDCHAR
STARTCHAR 1F44
ENCODING 8004
SWIDTH 514 0
DWIDTH 10 0
BBX 8 14 1 0
BITMAP
72
76
2C
48
00
3C
FE
E7
C7
C3
C7
C7
7E
3C
ENDCHAR
STARTCHAR 1F45
ENCODING 8005
SWIDTH 514 0
DWIDTH 10 0
BBX 8 14 1 0
BITMAP
62
66
6C
28
00
3C
FE
E7
C7
C3
C7
C7
7E
3C
ENDCHAR
STARTCHAR 1F48
ENCODING 8008
SWIDTH 514 0
DWIDTH 10 0
BBX 11 12 -2 0
BITMAP
C780
CFC0
DCC0
98E0
1860
1860
1860
1860
18E0
1CC0
0FC0
0780
ENDCHAR
STARTCHAR 1F49
ENCODING 8009
SWIDTH 514 0
DWIDTH 10 0
BBX 12 12 -3 0
BITMAP
C3C0
C7E0
CE60
6C70
0C30
0C30
0C30
0C30
0C70
0E60
07E0
03C0
ENDCHAR
STARTCHAR 1F4A
ENCODING 8010
SWIDTH 514 0
DWIDTH 10 0
BBX 16 12 -7 0
BITMAP
6C3C
6C7E
66E6
C2C7
00C3
00C3
00C3
00C3
00C7
00E6
007E
003C
ENDCHAR
STARTCHAR 1F4B
ENCODING 8011
SWIDTH 514 0
DWIDTH 10 0
BBX 15 12 -6 0
BITMAP
D078
D8FC
CDCC
458E
0186
0186
0186
0186
018E
01CC
00FC
0078
ENDCHAR
STARTCHAR 1F4C
ENCODING 8012
SWIDTH 514 0
DWIDTH 10 0
BBX 15 12 -6 0
BITMAP
6478
6CFC
6DCC
C98E
0186
0186
0186
0186
018E
01CC
00FC
0078
ENDCHAR
STARTCHAR 1F4D
ENCODING 8013
SWIDTH 514 0
DWIDTH 10 0
BBX 15 12 -6 0
BITMAP
C478
CCFC
D9CC
598E
0186
0186
0186
0186
018E
01CC
00FC
0078
ENDCHAR
STARTCHAR 1F50
ENCODING 8016
SWIDTH 514 0
DWIDTH 10 0
BBX 8 14 1 0
BITMAP
18
18
18
30
00
C7
C7
C7
C7
C7
C6
E6
FE
7C
ENDCHAR
STARTCHAR 1F51
ENCODING 8017
SWIDTH 514 0
DWIDTH 10 0
BBX 8 14 1 0
BITMAP
38
38
10
08
00
C7
C7
C7
C7
C7
C6
E6
FE
7C
ENDCHAR
STARTCHAR 1F52
ENCODING 8018
SWIDTH 514 0
DWIDTH 10 0
BBX 8 14 1 0
BITMAP
64
6E
66
42
00
C7
C7
C7
C7
C7
C6
E6
FE
7C
ENDCHAR
STARTCHAR 1F53
ENCODING 8019
SWIDTH 514 0
DWIDTH 10 0
BBX 8 14 1 0
BITMAP
68
6C
46
26
00
C7
C7
C7
C7
C7
C6
E6
FE
7C
ENDCHAR
STARTCHAR 1F54
ENCODING 8020
SWIDTH 514 0
DWIDTH 10 0
BBX 8 14 1 0
BITMAP
72
76
2C
48
00
C7
C7
C7
C7
C7
C6
E6
FE
7C
ENDCHAR
STARTCHAR 1F55
ENCODING 8021
SWIDTH 514 0
DWIDTH 10 0
BBX 8 14 1 0
BITMAP
62
66
6C
28
00
C7
C7
C7
C7
C7
C6
E6
FE
7C
ENDCHAR
STARTCHAR 1F56
ENCODING 8022
SWIDTH 514 0
DWIDTH 10 0
BBX 8 15 1 0
BITMAP
3C
64
18
18
30
00
C7
C7
C7
C7
C7
C6
E6
FE
7C
ENDCHAR
STARTCHAR 1F57
ENCODING 8023
SWIDTH 514 0
DWIDTH 10 0
BBX 8 16 1 0
BITMAP
38
64
5C
10
08
00
00
C7
C7
C7
C7
C7
C6
E6
FE
7C
ENDCHAR
STARTCHAR 1F59
ENCODING 8025
SWIDTH 514 0
DWIDTH 10 0
BBX 12 12 -3 0
BITMAP
FC30
EC70
4E60
2660
06C0
03C0
0380
0180
0180
0180
0180
0180
ENDCHAR
STARTCHAR 1F5B
ENCODING 8027
SWIDTH 514 0
DWIDTH 10 0
BBX 15 12 -6 0
BITMAP
CB86
D98E
CDCC
64CC
00D8
0078
0070
0030
0030
0030
0030
0030
ENDCHAR
STARTCHAR 1F5D
ENCODING 8029
SWIDTH 514 0
DWIDTH 10 0
BBX 16 12 -7 0
BITMAP
C5C3
C6C7
4CE6
2866
006C
003C
0038
0018
0018
0018
0018
0018
ENDCHAR
STARTCHAR 1F5F
ENCODING 8031
SWIDTH 514 0
DWIDTH 10 0
BBX 15 14 -6 0
BITMAP
3800
4800
FF86
318E
11CC
00CC
00D8
0078
0070
0030
0030
0030
0030
0030
ENDCHAR
STARTCHAR 1F60
ENCODING 8032
SWIDTH 514 0
DWIDTH 10 0
BBX 9 14 0 0
BITMAP
0C00
0C00
0C00
1800
0000
2100
6300
6180
6180
ED80
CD80
6D80
7F80
3700
ENDCHAR
STARTCHAR 1F61
ENCODING 8033
SWIDTH 514 0
DWIDTH 10 0
BBX 9 14 0 0
BITMAP
1C00
1C00
0800
0400
0000
2100
6300
6180
6180
ED80
CD80
6D80
7F80
3700
ENDCHAR
STARTCHAR 1F62
ENCODING 8034
SWIDTH 514 0
DWIDTH 10 0
BBX 9 14 0 0
BITMAP
3200
3700
3300
2100
0000
2100
6300
6180
6180
ED80
CD80
6D80
7F80
3700
ENDCHAR
STARTCHAR 1F63
ENCODING 8035
SWIDTH 514 0
DWIDTH 10 0
BBX 9 14 0 0
BITMAP
3400
3600
2300
1300
0000
2100
6300
6180
6180
ED80
CD80
6D80
7F80
3700
ENDCHAR
STARTCHAR 1F64
ENCODING 8036
SWIDTH 514 0
DWIDTH 10 0
BBX 9 14 0 0
BITMAP
3900
3B00
1600
2400
0000
2100
6300
6180
6180
ED80
CD80
6D80
7F80
3700
ENDCHAR
STARTCHAR 1F65
ENCODING 8037
SWIDTH 514 0
DWIDTH 10 0
BBX 9 14 0 0
BITMAP
3100
3300
3600
1400
0000
2100
6300
6180
6180
ED80
CD80
6D80
7F80
3700
ENDCHAR
STARTCHAR 1F66
ENCODING 8038
SWIDTH 514 0
DWIDTH 10 0
BBX 9 15 0 0
BITMAP
1E00
3200
0C00
0C00
1800
0000
2100
6300
6180
6180
ED80
CD80
6D80
7F80
3700
ENDCHAR
STARTCHAR 1F67
ENCODING 8039
SWIDTH 514 0
DWIDTH 10 0
BBX 9 16 0 0
BITMAP
1C00
3200
2E00
0800
0400
0000
0000
2100
6300
6180
6180
ED80
CD80
6D80
7F80
3700
ENDCHAR
STARTCHAR 1F68
ENCODING 8040
SWIDTH 514 0
DWIDTH 10 0
BBX 12 12 -3 0
BITMAP
63C0
6FE0
6E70
DC30
1C30
1C30
1C30
0C30
0C70
0E60
1EF0
1EF0
ENDCHAR
STARTCHAR 1F69
ENCODING 8041
SWIDTH 514 0
DWIDTH 10 0
BBX 12 12 -3 0
BITMAP
C3C0
CFE0
CE70
5C30
1C30
1C30
1C30
0C30
0C70
0E60
1EF0
1EF0
ENDCHAR
STARTCHAR 1F6A
ENCODING 8042
SWIDTH 514 0
DWIDTH 10 0
BBX 16 12 -7 0
BITMAP
C83C
ECFE
4CE7
85C3
01C3
01C3
01C3
00C3
00C7
00E6
01EF
01EF
ENDCHAR
STARTCHAR 1F6B
ENCODING 8043
SWIDTH 514 0
DWIDTH 10 0
BBX 16 12 -7 0
BITMAP
C83C
CCFE
4CE7
25C3
01C3
01C3
01C3
00C3
00C7
00E6
01EF
01EF
ENDCHAR
STARTCHAR 1F6C
ENCODING 8044
SWIDTH 514 0
DWIDTH 10 0
BBX 15 12 -6 0
BITMAP
6478
6DFC
69CE
CB86
0386
0386
0386
0186
018E
01CC
03DE
03DE
ENDCHAR
STARTCHAR 1F6D
ENCODING 8045
SWIDTH 514 0
DWIDTH 10 0
BBX 15 12 -6 0
BITMAP
C478
CDFC
C9CE
6B86
0386
0386
0386
0186
018E
01CC
03DE
03DE
ENDCHAR
STARTCHAR 1F6E
ENCODING 8046
SWIDTH 514 0
DWIDTH 10 0
BBX 14 13 -5 0
BITMAP
7800
C8F0
33F8
339C
270C
070C
070C
070C
030C
031C
0398
07BC
07BC
ENDCHAR
STARTCHAR 1F6F
ENCODING 8047
SWIDTH 514 0
DWIDTH 10 0
BBX 14 14 -5 0
BITMAP
7000
C800
B8F0
23F8
139C
070C
070C
070C
070C
030C
031C
0398
07BC
07BC
ENDCHAR
STARTCHAR 1F70
ENCODING 8048
SWIDTH 514 0
DWIDTH 10 0
BBX 8 14 1 0
BITMAP
10
38
1C
04
00
3E
7E
E6
C6
C6
C6
E6
FF
7B
ENDCHAR
STARTCHAR 1F71
ENCODING 8049
SWIDTH 514 0
DWIDTH 10 0
BBX 8 14 1 0
BITMAP
04
1C
38
30
00
3E
7E
E6
C6
C6
C6
E6
FF
7B
ENDCHAR
STARTCHAR 1F72
ENCODING 8050
SWIDTH 514 0
DWIDTH 10 0
BBX 7 14 1 0
BITMAP
10
38
1C
04
00
3E
7E
60
60
3C
FC
C2
FE
7E
ENDCHAR
STARTCHAR 1F73
ENCODING 8051
SWIDTH 514 0
DWIDTH 10 0
BBX 7 14 1 0
BITMAP
04
1C
38
30
00
3E
7E
60
60
3C
FC
C2
FE
7E
ENDCHAR
STARTCHAR 1F74
ENCODING 8052
SWIDTH 514 0
DWIDTH 10 0
BBX 7 17 1 -3
BITMAP
10
38
1C
04
00
FC
FE
E6
E6
E6
E6
E6
E6
E6
06
06
06
ENDCHAR
STARTCHAR 1F75
ENCODING 8053
SWIDTH 514 0
DWIDTH 10 0
BBX 7 17 1 -3
BITMAP
04
1C
38
30
00
FC
FE
E6
E6
E6
E6
E6
E6
E6
06
06
06
ENDCHAR
STARTCHAR 1F76
ENCODING 8054
SWIDTH 514 0
DWIDTH 10 0
BBX 8 14 1 0
BITMAP
10
38
1C
04
00
F0
F0
30
30
30
30
38
1F
1F
ENDCHAR
STARTCHAR 1F77
ENCODING 8055
SWIDTH 514 0
DWIDTH 10 0
BBX 8 14 1 0
BITMAP
04
1C
38
30
00
F0
F0
30
30
30
30
38
1F
1F
ENDCHAR
STARTCHAR 1F78
ENCODING 8056
SWIDTH 514 0
DWIDTH 10 0
BBX 8 14 1 0
BITMAP
10
38
1C
04
00
3C
FE
E7
C7
C3
C7
C7
7E
3C
ENDCHAR
STARTCHAR 1F79
ENCODING 8057
SWIDTH 514 0
DWIDTH 10 0
BBX 8 14 1 0
BITMAP
04
1C
38
30
00
3C
FE
E7
C7
C3
C7
C7
7E
3C
ENDCHAR
STARTCHAR 1F7A
ENCODING 8058
SWIDTH 514 0
DWIDTH 10 0
BBX 8 14 1 0
BITMAP
10
38
1C
04
00
C7
C7
C7
C7
C7
C6
E6
FE
7C
ENDCHAR
STARTCHAR 1F7B
ENCODING 8059
SWIDTH 514 0
DWIDTH 10 0
BBX 8 14 1 0
BITMAP
04
1C
38
30
00
C7
C7
C7
C7
C7
C6
E6
FE
7C
ENDCHAR
STARTCHAR 1F7C
ENCODING 8060
SWIDTH 514 0
DWIDTH 10 0
BBX 9 14 0 0
BITMAP
0800
1C00
0E00
0200
0000
2100
6300
6180
6180
ED80
CD80
6D80
7F80
3700
ENDCHAR
STARTCHAR 1F7D
ENCODING 8061
SWIDTH 514 0
DWIDTH 10 0
BBX 9 14 0 0
BITMAP
0200
0E00
1C00
1800
0000
2100
6300
6180
6180
ED80
CD80
6D80
7F80
3700
ENDCHAR
STARTCHAR 1F80
ENCODING 8064
SWIDTH 514 0
DWIDTH 10 0
BBX 8 17 1 -3
BITMAP
18
18
18
30
00
3E
7E
E6
C6
C6
C6
E6
FF
7B
00
30
18
ENDCHAR
STARTCHAR 1F81
ENCODING 8065
SWIDTH 514 0
DWIDTH 10 0
BBX 8 17 1 -3
BITMAP
38
38
10
08
00
3E
7E
E6
C6
C6
C6
E6
FF
7B
00
30
18
ENDCHAR
STARTCHAR 1F82
ENCODING 8066
SWIDTH 514 0
DWIDTH 10 0
BBX 8 17 1 -3
BITMAP
64
6E
66
42
00
3E
7E
E6
C6
C6
C6
E6
FF
7B
00
30
18
ENDCHAR
STARTCHAR 1F83
ENCODING 8067
SWIDTH 514 0
DWIDTH 10 0
BBX 8 17 1 -3
BITMAP
68
6C
46
26
00
3E
7E
E6
C6
C6
C6
E6
FF
7B
00
30
18
ENDCHAR
STARTCHAR 1F84
ENCODING 8068
SWIDTH 514 0
DWIDTH 10 0
BBX 8 17 1 -3
BITMAP
72
76
2C
48
00
3E
7E
E6
C6
C6
C6
E6
FF
7B
00
30
18
ENDCHAR
STARTCHAR 1F85
ENCODING 8069
SWIDTH 514 0
DWIDTH 10 0
BBX 8 17 1 -3
BITMAP
62
66
6C
28
00
3E
7E
E6
C6
C6
C6
E6
FF
7B
00
30
18
ENDCHAR
STARTCHAR 1F86
ENCODING 8070
SWIDTH 514 0
DWIDTH 10 0
BBX 8 18 1 -3
BITMAP
3C
64
18
18
30
00
3E
7E
E6
C6
C6
C6
E6
FF
7B
00
30
18
ENDCHAR
STARTCHAR 1F87
ENCODING 8071
SWIDTH 514 0
DWIDTH 10 0
BBX 8 19 1 -3
BITMAP
38
64
5C
10
08
00
00
3E
7E
E6
C6
C6
C6
E6
FF
7B
00
30
18
ENDCHAR
STARTCHAR 1F88
ENCODING 8072
SWIDTH 514 0
DWIDTH 10 0
BBX 11 12 -1 0
BITMAP
DC00
DC00
D400
94C0
36C0
36C0
36C0
3EC0
3EC0
26C0
63E0
6340
ENDCHAR
STARTCHAR 1F89
ENCODING 8073
SWIDTH 514 0
DWIDTH 10 0
BBX 12 12 -2 0
BITMAP
CE00
EE00
4A00
2A60
1B60
1B60
1B60
1F60
1F60
1360
31F0
31A0
ENDCHAR
STARTCHAR 1F8A
ENCODING 8074
SWIDTH 514 0
DWIDTH 10 0
BBX 16 12 -6 0
BITMAP
68E0
6CE0
46A0
82A6
01B6
01B6
01B6
01F6
01F6
0136
031F
031A
ENDCHAR
STARTCHAR 1F8B
ENCODING 8075
SWIDTH 514 0
DWIDTH 10 0
BBX 15 12 -5 0
BITMAP
D1C0
D9C0
CD40
454C
036C
036C
036C
03EC
03EC
026C
063E
0634
ENDCHAR
STARTCHAR 1F8C
ENCODING 8076
SWIDTH 514 0
DWIDTH 10 0
BBX 15 12 -5 0
BITMAP
65C0
6DC0
5940
914C
036C
036C
036C
03EC
03EC
026C
063E
0634
ENDCHAR
STARTCHAR 1F8D
ENCODING 8077
SWIDTH 514 0
DWIDTH 10 0
BBX 15 12 -5 0
BITMAP
C5C0
CDC0
D940
514C
036C
036C
036C
03EC
03EC
026C
063E
0634
ENDCHAR
STARTCHAR 1F8E
ENCODING 8078
SWIDTH 514 0
DWIDTH 10 0
BBX 14 13 -4 0
BITMAP
7800
8B80
3380
3280
6298
06D8
06D8
06D8
07D8
07D8
04D8
0C7C
0C68
ENDCHAR
STARTCHAR 1F8F
ENCODING 8079
SWIDTH 514 0
DWIDTH 10 0
BBX 14 14 -4 0
BITMAP
7000
C800
BB80
2380
1280
0298
06D8
06D8
06D8
07D8
07D8
04D8
0C7C
0C68
ENDCHAR
STARTCHAR 1F90
ENCODING 8080
SWIDTH 514 0
DWIDTH 10 0
BBX 7 17 1 -3
BITMAP
18
18
18
30
00
FC
FE
E6
E6
E6
E6
E6
E6
E6
06
C6
76
ENDCHAR
STARTCHAR 1F91
ENCODING 8081
SWIDTH 514 0
DWIDTH 10 0
BBX 7 17 1 -3
BITMAP
38
38
10
08
00
FC
FE
E6
E6
E6
E6
E6
E6
E6
06
C6
76
ENDCHAR
STARTCHAR 1F92
ENCODING 8082
SWIDTH 514 0
DWIDTH 10 0
BBX 7 17 1 -3
BITMAP
64
6E
66
42
00
FC
FE
E6
E6
E6
E6
E6
E6
E6
06
C6
76
ENDCHAR
STARTCHAR 1F93
ENCODING 8083
SWIDTH 514 0
DWIDTH 10 0
BBX 7 17 1 -3
BITMAP
68
6C
46
26
00
FC
FE
E6
E6
E6
E6
E6
E6
E6
06
C6
76
ENDCHAR
STARTCHAR 1F94
ENCODING 8084
SWIDTH 514 0
DWIDTH 10 0
BBX 7 17 1 -3
BITMAP
72
76
2C
48
00
FC
FE
E6
E6
E6
E6
E6
E6
E6
06
C6
76
ENDCHAR
STARTCHAR 1F95
ENCODING 8085
SWIDTH 514 0
DWIDTH 10 0
BBX 7 17 1 -3
BITMAP
62
66
6C
28
00
FC
FE
E6
E6
E6
E6
E6
E6
E6
06
C6
76
ENDCHAR
STARTCHAR 1F96
ENCODING 8086
SWIDTH 514 0
DWIDTH 10 0
BBX 7 18 1 -3
BITMAP
3C
64
18
18
30
00
FC
FE
E6
E6
E6
E6
E6
E6
E6
06
C6
76
ENDCHAR
STARTCHAR 1F97
ENCODING 8087
SWIDTH 514 0
DWIDTH 10 0
BBX 7 19 1 -3
BITMAP
38
64
5C
10
08
00
00
FC
FE
E6
E6
E6
E6
E6
E6
E6
06
C6
76
ENDCHAR
STARTCHAR 1F98
ENCODING 8088
SWIDTH 514 0
DWIDTH 10 0
BBX 12 12 -3 0
BITMAP
D980
F980
5980
99B0
19B0
1FB0
1FB0
19B0
19B0
19B0
19B0
1990
ENDCHAR
STARTCHAR 1F99
ENCODING 8089
SWIDTH 514 0
DWIDTH 10 0
BBX 12 12 -3 0
BITMAP
D980
D980
D980
79B0
19B0
1FB0
1FB0
19B0
19B0
19B0
19B0
1990
ENDCHAR
STARTCHAR 1F9A
ENCODING 8090
SWIDTH 514 0
DWIDTH 10 0
BBX 16 12 -7 0
BITMAP
6998
6D98
4598
859B
019B
01FB
01FB
019B
019B
019B
019B
0199
ENDCHAR
STARTCHAR 1F9B
ENCODING 8091
SWIDTH 514 0
DWIDTH 10 0
BBX 16 12 -7 0
BITMAP
6998
ED98
4598
259B
019B
01FB
01FB
019B
019B
019B
019B
0199
ENDCHAR
STARTCHAR 1F9C
ENCODING 8092
SWIDTH 514 0
DWIDTH 10 0
BBX 15 12 -6 0
BITMAP
CB30
CF30
DB30
9336
0336
03F6
03F6
0336
0336
0336
0336
0332
ENDCHAR
STARTCHAR 1F9D
ENCODING 8093
SWIDTH 514 0
DWIDTH 10 0
BBX 16 12 -7 0
BITMAP
C598
C798
4D98
299B
019B
01FB
01FB
019B
019B
019B
019B
0199
ENDCHAR
STARTCHAR 1F9E
ENCODING 8094
SWIDTH 514 0
DWIDTH 10 0
BBX 14 13 -5 0
BITMAP
F000
9E60
6660
6660
466C
066C
07EC
07EC
066C
066C
066C
066C
0664
ENDCHAR
STARTCHAR 1F9F
ENCODING 8095
SWIDTH 514 0
DWIDTH 10 0
BBX 14 14 -5 0
BITMAP
7000
9800
FE60
6660
2660
066C
066C
07EC
07EC
066C
066C
066C
066C
0664
ENDCHAR
STARTCHAR 1FA0
ENCODING 8096
SWIDTH 514 0
DWIDTH 10 0
BBX 9 17 0 -3
BITMAP
0C00
0C00
0C00
1800
0000
2100
6300
6180
6180
ED80
CD80
6D80
7F80
3700
0000
0C00
0E00
ENDCHAR
STARTCHAR 1FA1
ENCODING 8097
SWIDTH 514 0
DWIDTH 10 0
BBX 9 17 0 -3
BITMAP
1C00
1C00
0800
0400
0000
2100
6300
6180
6180
ED80
CD80
6D80
7F80
3700
0000
0C00
0E00
ENDCHAR
STARTCHAR 1FA2
ENCODING 8098
SWIDTH 514 0
DWIDTH 10 0
BBX 9 17 0 -3
BITMAP
3200
3700
3300
2100
0000
2100
6300
6180
6180
ED80
CD80
6D80
7F80
3700
0000
0C00
0E00
ENDCHAR
STARTCHAR 1FA3
ENCODING 8099
SWIDTH 514 0
DWIDTH 10 0
BBX 9 17 0 -3
BITMAP
3400
3600
2300
1300
0000
2100
6300
6180
6180
ED80
CD80
6D80
7F80
3700
0000
0C00
0E00
ENDCHAR
STARTCHAR 1FA4
ENCODING 8100
SWIDTH 514 0
DWIDTH 10 0
BBX 9 17 0 -3
BITMAP
3900
3B00
1600
2400
0000
2100
6300
6180
6180
ED80
CD80
6D80
7F80
3700
0000
0C00
0E00
ENDCHAR
STARTCHAR 1FA5
ENCODING 8101
SWIDTH 514 0
DWIDTH 10 0
BBX 9 17 0 -3
BITMAP
3100
3300
3600
1400
0000
2100
6300
6180
6180
ED80
CD80
6D80
7F80
3700
0000
0C00
0E00
ENDCHAR
STARTCHAR 1FA6
ENCODING 8102
SWIDTH 514 0
DWIDTH 10 0
BBX 9 18 0 -3
BITMAP
1E00
3200
0C00
0C00
1800
0000
2100
6300
6180
6180
ED80
CD80
6D80
7F80
3700
0000
0C00
0E00
ENDCHAR
STARTCHAR 1FA7
ENCODING 8103
SWIDTH 514 0
DWIDTH 10 0
BBX 9 19 0 -3
BITMAP
1C00
3200
2E00
0800
0400
0000
0000
2100
6300
6180
6180
ED80
CD80
6D80
7F80
3700
0000
0C00
0E00
ENDCHAR
STARTCHAR 1FA8
ENCODING 8104
SWIDTH 514 0
DWIDTH 10 0
BBX 13 12 -3 0
BITMAP
6700
6F80
6D80
D9B0
19B0
19B0
19B0
09B0
09B0
0D30
1DB8
1D90
ENDCHAR
STARTCHAR 1FA9
ENCODING 8105
SWIDTH 514 0
DWIDTH 10 0
BBX 13 12 -3 0
BITMAP
C700
CF80
CD80
59B0
19B0
19B0
19B0
09B0
09B0
0D30
1DB8
1D90
ENDCHAR
STARTCHAR 1FAA
ENCODING 8106
SWIDTH 514 0
DWIDTH 10 0
BBX 17 12 -7 0
BITMAP
C87000
ECF800
4CD800
859B00
019B00
019B00
019B00
009B00
009B00
00D300
01DB80
01D900
ENDCHAR
STARTCHAR 1FAB
ENCODING 8107
SWIDTH 514 0
DWIDTH 10 0
BBX 17 12 -7 0
BITMAP
C87000
CCF800
4CD800
259B00
019B00
019B00
019B00
009B00
009B00
00D300
01DB80
01D900
ENDCHAR
STARTCHAR 1FAC
ENCODING 8108
SWIDTH 514 0
DWIDTH 10 0
BBX 16 12 -6 0
BITMAP
64E0
6DF0
69B0
CB36
0336
0336
0336
0136
0136
01A6
03B7
03B2
ENDCHAR
STARTCHAR 1FAD
ENCODING 8109
SWIDTH 514 0
DWIDTH 10 0
BBX 16 12 -6 0
BITMAP
C4E0
CDF0
C9B0
6B36
0336
0336
0336
0136
0136
01A6
03B7
03B2
ENDCHAR
STARTCHAR 1FAE
ENCODING 8110
SWIDTH 514 0
DWIDTH 10 0
BBX 15 13 -5 0
BITMAP
7800
C9C0
33E0
3360
266C
066C
066C
066C
026C
026C
034C
076E
0764
ENDCHAR
STARTCHAR 1FAF
ENCODING 8111
SWIDTH 514 0
DWIDTH 10 0
BBX 15 14 -5 0
BITMAP
7000
C800
B9C0
23E0
1360
066C
066C
066C
066C
026C
026C
034C
076E
0764
ENDCHAR
STARTCHAR 1FB0
ENCODING 8112
SWIDTH 514 0
DWIDTH 10 0
BBX 8 13 1 0
BITMAP
64
7C
38
00
3E
7E
E6
C6
C6
C6
E6
FF
7B
ENDCHAR
STARTCHAR 1FB1
ENCODING 8113
SWIDTH 514 0
DWIDTH 10 0
BBX 8 12 1 0
BITMAP
7E
7E
00
3E
7E
E6
C6
C6
C6
E6
FF
7B
ENDCHAR
STARTCHAR 1FB2
ENCODING 8114
SWIDTH 514 0
DWIDTH 10 0
BBX 8 17 1 -3
BITMAP
10
38
1C
04
00
3E
7E
E6
C6
C6
C6
E6
FF
7B
00
30
18
ENDCHAR
STARTCHAR 1FB3
ENCODING 8115
SWIDTH 514 0
DWIDTH 10 0
BBX 8 12 1 -3
BITMAP
3E
7E
E6
C6
C6
C6
E6
FF
7B
00
30
18
ENDCHAR
STARTCHAR 1FB4
ENCODING 8116
SWIDTH 514 0
DWIDTH 10 0
BBX 8 17 1 -3
BITMAP
04
1C
38
30
00
3E
7E
E6
C6
C6
C6
E6
FF
7B
00
30
18
ENDCHAR
STARTCHAR 1FB6
ENCODING 8118
SWIDTH 514 0
DWIDTH 10 0
BBX 8 13 1 0
BITMAP
3C
3E
66
00
3E
7E
E6
C6
C6
C6
E6
FF
7B
ENDCHAR
STARTCHAR 1FB7
ENCODING 8119
SWIDTH 514 0
DWIDTH 10 0
BBX 8 16 1 -3
BITMAP
3C
3E
66
00
3E
7E
E6
C6
C6
C6
E6
FF
7B
00
30
18
ENDCHAR
STARTCHAR 1FB8
ENCODING 8120
SWIDTH 514 0
DWIDTH 10 0
BBX 9 16 0 0
BITMAP
3200
3E00
1C00
0000
1C00
1E00
1E00
3600
3600
3300
3300
7F00
7F00
6380
6180
E180
ENDCHAR
STARTCHAR 1FB9
ENCODING 8121
SWIDTH 514 0
DWIDTH 10 0
BBX 9 15 0 0
BITMAP
3F00
3F00
0000
1C00
1E00
1E00
3600
3600
3300
3300
7F00
7F00
6380
6180
E180
ENDCHAR
STARTCHAR 1FBA
ENCODING 8122
SWIDTH 514 0
DWIDTH 10 0
BBX 12 12 -3 0
BITMAP
4380
F3C0
33C0
06C0
06C0
0660
0660
0FE0
0FE0
0C70
0C30
1C30
ENDCHAR
STARTCHAR 1FBB
ENCODING 8123
SWIDTH 514 0
DWIDTH 10 0
BBX 11 12 -2 0
BITMAP
2700
F780
C780
0D80
0D80
0CC0
0CC0
1FC0
1FC0
18E0
1860
3860
ENDCHAR
STARTCHAR 1FBC
ENCODING 8124
SWIDTH 514 0
DWIDTH 10 0
BBX 10 12 0 0
BITMAP
3800
3800
2800
2980
6D80
6D80
6D80
7D80
7D80
4D80
C7C0
C680
ENDCHAR
STARTCHAR 1FBD
ENCODING 8125
SWIDTH 514 0
DWIDTH 10 0
BBX 3 4 3 10
BITMAP
60
60
60
C0
ENDCHAR
STARTCHAR 1FBE
ENCODING 8126
SWIDTH 514 0
DWIDTH 10 0
BBX 3 2 3 -3
BITMAP
C0
60
ENDCHAR
STARTCHAR 1FBF
ENCODING 8127
SWIDTH 514 0
DWIDTH 10 0
BBX 3 4 3 10
BITMAP
60
60
60
C0
ENDCHAR
STARTCHAR 1FC0
ENCODING 8128
SWIDTH 514 0
DWIDTH 10 0
BBX 5 3 2 10
BITMAP
70
F8
C8
ENDCHAR
STARTCHAR 1FC1
ENCODING 8129
SWIDTH 514 0
DWIDTH 10 0
BBX 6 6 2 10
BITMAP
70
F8
C8
00
CC
CC
ENDCHAR
STARTCHAR 1FC2
ENCODING 8130
SWIDTH 514 0
DWIDTH 10 0
BBX 7 17 1 -3
BITMAP
10
38
1C
04
00
FC
FE
E6
E6
E6
E6
E6
E6
E6
06
C6
76
ENDCHAR
STARTCHAR 1FC3
ENCODING 8131
SWIDTH 514 0
DWIDTH 10 0
BBX 7 12 1 -3
BITMAP
FC
FE
E6
E6
E6
E6
E6
E6
E6
06
C6
76
ENDCHAR
STARTCHAR 1FC4
ENCODING 8132
SWIDTH 514 0
DWIDTH 10 0
BBX 7 17 1 -3
BITMAP
04
1C
38
10
00
FC
FE
E6
E6
E6
E6
E6
E6
E6
06
C6
76
ENDCHAR
STARTCHAR 1FC6
ENCODING 8134
SWIDTH 514 0
DWIDTH 10 0
BBX 7 16 1 -3
BITMAP
38
7C
64
00
FC
FE
E6
E6
E6
E6
E6
E6
E6
06
06
06
ENDCHAR
STARTCHAR 1FC7
ENCODING 8135
SWIDTH 514 0
DWIDTH 10 0
BBX 7 16 1 -3
BITMAP
38
7C
64
00
FC
FE
E6
E6
E6
E6
E6
E6
E6
06
C6
76
ENDCHAR
STARTCHAR 1FC8
ENCODING 8136
SWIDTH 514 0
DWIDTH 10 0
BBX 13 12 -4 0
BITMAP
47F0
F7F0
3700
0700
0700
07F0
07F0
0700
0700
0700
07F8
07F8
ENDCHAR
STARTCHAR 1FC9
ENCODING 8137
SWIDTH 514 0
DWIDTH 10 0
BBX 12 12 -3 0
BITMAP
2FE0
EFE0
8E00
0E00
0E00
0FE0
0FE0
0E00
0E00
0E00
0FF0
0FF0
ENDCHAR
STARTCHAR 1FCA
ENCODING 8138
SWIDTH 514 0
DWIDTH 10 0
BBX 13 12 -4 0
BITMAP
4638
E638
3638
0638
0638
07F8
07F8
0638
0638
0638
0638
0638
ENDCHAR
STARTCHAR 1FCB
ENCODING 8139
SWIDTH 514 0
DWIDTH 10 0
BBX 12 12 -3 0
BITMAP
4C70
EC70
8C70
0C70
0C70
0FF0
0FF0
0C70
0C70
0C70
0C70
0C70
ENDCHAR
STARTCHAR 1FCC
ENCODING 8140
SWIDTH 514 0
DWIDTH 10 0
BBX 9 12 0 0
BITMAP
CC00
CC00
CC00
CD80
CD80
FD80
FD80
CD80
CD80
CD80
CD80
CC80
ENDCHAR
STARTCHAR 1FCD
ENCODING 8141
SWIDTH 514 0
DWIDTH 10 0
BBX 7 4 1 10
BITMAP
64
6C
66
C2
ENDCHAR
STARTCHAR 1FCE
ENCODING 8142
SWIDTH 514 0
DWIDTH 10 0
BBX 6 4 2 10
BITMAP
C8
CC
D8
90
ENDCHAR
STARTCHAR 1FCF
ENCODING 8143
SWIDTH 514 0
DWIDTH 10 0
BBX 5 5 2 10
BITMAP
78
C8
30
30
60
ENDCHAR
STARTCHAR 1FD0
ENCODING 8144
SWIDTH 514 0
DWIDTH 10 0
BBX 8 13 1 0
BITMAP
CC
7C
78
00
F0
F0
30
30
30
30
38
1F
1F
ENDCHAR
STARTCHAR 1FD1
ENCODING 8145
SWIDTH 514 0
DWIDTH 10 0
BBX 8 12 1 0
BITMAP
FC
FC
00
F0
F0
30
30
30
30
38
1F
1F
ENDCHAR
STARTCHAR 1FD2
ENCODING 8146
SWIDTH 514 0
DWIDTH 10 0
BBX 9 14 0 0
BITMAP
1000
7B00
EB00
6F00
0000
7800
7800
1800
1800
1800
1800
1C00
0F80
0F80
ENDCHAR
STARTCHAR 1FD3
ENCODING 8147
SWIDTH 514 0
DWIDTH 10 0
BBX 9 14 0 0
BITMAP
0C00
6F00
FB00
7B00
0000
7800
7800
1800
1800
1800
1800
1C00
0F80
0F80
ENDCHAR
STARTCHAR 1FD6
ENCODING 8150
SWIDTH 514 0
DWIDTH 10 0
BBX 8 13 1 0
BITMAP
78
7C
CC
00
F0
F0
30
30
30
30
38
1F
1F
ENDCHAR
STARTCHAR 1FD7
ENCODING 8151
SWIDTH 514 0
DWIDTH 10 0
BBX 8 16 1 0
BITMAP
78
78
CC
00
CC
CC
00
F0
F0
30
30
30
30
38
1F
1F
ENDCHAR
STARTCHAR 1FD8
ENCODING 8152
SWIDTH 514 0
DWIDTH 10 0
BBX 8 16 1 0
BITMAP
64
7C
38
00
FF
FF
18
18
18
18
18
18
18
18
FF
FF
ENDCHAR
STARTCHAR 1FD9
ENCODING 8153
SWIDTH 514 0
DWIDTH 10 0
BBX 8 15 1 0
BITMAP
7E
7E
00
FF
FF
18
18
18
18
18
18
18
18
FF
FF
ENDCHAR
STARTCHAR 1FDA
ENCODING 8154
SWIDTH 514 0
DWIDTH 10 0
BBX 13 12 -4 0
BITMAP
47F8
E7F8
30C0
00C0
00C0
00C0
00C0
00C0
00C0
00C0
07F8
07F8
ENDCHAR
STARTCHAR 1FDB
ENCODING 8155
SWIDTH 514 0
DWIDTH 10 0
BBX 13 12 -4 0
BITMAP
27F8
F7F8
C0C0
00C0
00C0
00C0
00C0
00C0
00C0
00C0
07F8
07F8
ENDCHAR
STARTCHAR 1FDD
ENCODING 8157
SWIDTH 514 0
DWIDTH 10 0
BBX 6 4 2 10
BITMAP
D0
D8
8C
4C
ENDCHAR
STARTCHAR 1FDE
ENCODING 8158
SWIDTH 514 0
DWIDTH 10 0
BBX 7 4 1 10
BITMAP
64
E6
4C
28
ENDCHAR
STARTCHAR 1FDF
ENCODING 8159
SWIDTH 514 0
DWIDTH 10 0
BBX 5 5 2 11
BITMAP
70
C8
B8
20
10
ENDCHAR
STARTCHAR 1FE0
ENCODING 8160
SWIDTH 514 0
DWIDTH 10 0
BBX 8 13 1 0
BITMAP
64
7C
38
00
C7
C7
C7
C7
C7
C6
E6
FE
7C
ENDCHAR
STARTCHAR 1FE1
ENCODING 8161
SWIDTH 514 0
DWIDTH 10 0
BBX 8 12 1 0
BITMAP
7E
7E
00
C7
C7
C7
C7
C7
C6
E6
FE
7C
ENDCHAR
STARTCHAR 1FE2
ENCODING 8162
SWIDTH 514 0
DWIDTH 10 0
BBX 8 14 1 0
BITMAP
10
F2
DF
CA
00
C7
C7
C7
C7
C7
C6
E6
FE
7C
ENDCHAR
STARTCHAR 1FE3
ENCODING 8163
SWIDTH 514 0
DWIDTH 10 0
BBX 8 14 1 0
BITMAP
08
DA
D7
F2
00
C7
C7
C7
C7
C7
C6
E6
FE
7C
ENDCHAR
STARTCHAR 1FE4
ENCODING 8164
SWIDTH 514 0
DWIDTH 10 0
BBX 8 17 1 -3
BITMAP
18
18
18
30
00
3C
7E
E7
E7
E3
E7
E7
FE
FC
E0
E0
E0
ENDCHAR
STARTCHAR 1FE5
ENCODING 8165
SWIDTH 514 0
DWIDTH 10 0
BBX 8 17 1 -3
BITMAP
38
38
10
08
00
3C
7E
E7
E7
E3
E7
E7
FE
FC
E0
E0
E0
ENDCHAR
STARTCHAR 1FE6
ENCODING 8166
SWIDTH 514 0
DWIDTH 10 0
BBX 8 13 1 0
BITMAP
38
7C
64
00
C7
C7
C7
C7
C7
C6
E6
FE
7C
ENDCHAR
STARTCHAR 1FE7
ENCODING 8167
SWIDTH 514 0
DWIDTH 10 0
BBX 8 16 1 0
BITMAP
38
7C
64
00
66
66
00
C7
C7
C7
C7
C7
C6
E6
FE
7C
ENDCHAR
STARTCHAR 1FE8
ENCODING 8168
SWIDTH 514 0
DWIDTH 10 0
BBX 9 16 0 0
BITMAP
3200
3E00
1C00
0000
E180
6380
7300
3300
3600
1E00
1C00
0C00
0C00
0C00
0C00
0C00
ENDCHAR
STARTCHAR 1FE9
ENCODING 8169
SWIDTH 514 0
DWIDTH 10 0
BBX 9 15 0 0
BITMAP
3F00
3F00
0000
E180
6380
7300
3300
3600
1E00
1C00
0C00
0C00
0C00
0C00
0C00
ENDCHAR
STARTCHAR 1FEA
ENCODING 8170
SWIDTH 514 0
DWIDTH 10 0
BBX 13 12 -4 0
BITMAP
4E18
F638
3730
0330
0360
01E0
01C0
00C0
00C0
00C0
00C0
00C0
ENDCHAR
STARTCHAR 1FEB
ENCODING 8171
SWIDTH 514 0
DWIDTH 10 0
BBX 13 12 -4 0
BITMAP
2E18
F638
C730
0330
0360
01E0
01C0
00C0
00C0
00C0
00C0
00C0
ENDCHAR
STARTCHAR 1FEC
ENCODING 8172
SWIDTH 514 0
DWIDTH 10 0
BBX 12 12 -3 0
BITMAP
CFC0
CFE0
CC70
6C30
0C30
0C70
0FE0
0FC0
0C00
0C00
0C00
0C00
ENDCHAR
STARTCHAR 1FED
ENCODING 8173
SWIDTH 514 0
DWIDTH 10 0
BBX 8 4 1 10
BITMAP
10
F2
DF
CA
ENDCHAR
STARTCHAR 1FEE
ENCODING 8174
SWIDTH 514 0
DWIDTH 10 0
BBX 8 4 1 10
BITMAP
08
DA
D7
F2
ENDCHAR
STARTCHAR 1FEF
ENCODING 8175
SWIDTH 514 0
DWIDTH 10 0
BBX 4 4 3 10
BITMAP
80
E0
F0
20
ENDCHAR
STARTCHAR 1FF2
ENCODING 8178
SWIDTH 514 0
DWIDTH 10 0
BBX 9 17 0 -3
BITMAP
1000
1C00
1E00
0400
0000
2100
6300
6180
6180
ED80
CD80
6D80
7F80
3700
0000
0C00
0E00
ENDCHAR
STARTCHAR 1FF3
ENCODING 8179
SWIDTH 514 0
DWIDTH 10 0
BBX 9 12 0 -3
BITMAP
2100
6300
6180
6180
ED80
CD80
6D80
7F80
3700
0000
0C00
0E00
ENDCHAR
STARTCHAR 1FF4
ENCODING 8180
SWIDTH 514 0
DWIDTH 10 0
BBX 9 17 0 -3
BITMAP
0200
0600
1E00
0800
0000
2100
6300
6180
6180
ED80
CD80
6D80
7F80
3700
0000
0C00
0E00
ENDCHAR
STARTCHAR 1FF6
ENCODING 8182
SWIDTH 514 0
DWIDTH 10 0
BBX 9 13 0 0
BITMAP
1C00
3E00
3200
0000
2100
6300
6180
6180
ED80
CD80
6D80
7F80
3700
ENDCHAR
STARTCHAR 1FF7
ENCODING 8183
SWIDTH 514 0
DWIDTH 10 0
BBX 9 16 0 -3
BITMAP
1C00
3E00
3200
0000
2100
6300
6180
6180
ED80
CD80
6D80
7F80
3700
0000
0C00
0E00
ENDCHAR
STARTCHAR 1FF8
ENCODING 8184
SWIDTH 514 0
DWIDTH 10 0
BBX 13 12 -4 0
BITMAP
81E0
E3F0
2730
0638
0618
0618
0618
0618
0638
0730
03F0
01E0
ENDCHAR
STARTCHAR 1FF9
ENCODING 8185
SWIDTH 514 0
DWIDTH 10 0
BBX 12 12 -3 0
BITMAP
23C0
F7E0
8E60
0C70
0C30
0C30
0C30
0C30
0C70
0E60
07E0
03C0
ENDCHAR
STARTCHAR 1FFA
ENCODING 8186
SWIDTH 514 0
DWIDTH 10 0
BBX 14 12 -5 0
BITMAP
40F0
F3F8
339C
070C
070C
070C
070C
030C
031C
0398
07BC
07BC
ENDCHAR
STARTCHAR 1FFB
ENCODING 8187
SWIDTH 514 0
DWIDTH 10 0
BBX 12 12 -3 0
BITMAP
43C0
EFE0
8E70
1C30
1C30
1C30
1C30
0C30
0C70
0E60
1EF0
1EF0
ENDCHAR
STARTCHAR 1FFC
ENCODING 8188
SWIDTH 514 0
DWIDTH 10 0
BBX 10 12 0 0
BITMAP
3800
7C00
6C00
CD80
CD80
CD80
CD80
4D80
4D80
6980
EDC0
EC80
ENDCHAR
STARTCHAR 1FFD
ENCODING 8189
SWIDTH 514 0
DWIDTH 10 0
BBX 4 4 3 10
BITMAP
20
70
E0
80
ENDCHAR
STARTCHAR 1FFE
ENCODING 8190
SWIDTH 514 0
DWIDTH 10 0
BBX 3 4 3 10
BITMAP
E0
E0
40
20
ENDCHAR
STARTCHAR 2013
ENCODING 8211
SWIDTH 514 0
DWIDTH 10 0
BBX 8 2 1 4
BITMAP
FF
FF
ENDCHAR
STARTCHAR 2014
ENCODING 8212
SWIDTH 514 0
DWIDTH 10 0
BBX 10 2 0 4
BITMAP
FFC0
FFC0
ENDCHAR
STARTCHAR 2015
ENCODING 8213
SWIDTH 514 0
DWIDTH 10 0
BBX 10 2 0 4
BITMAP
FFC0
FFC0
ENDCHAR
STARTCHAR 2018
ENCODING 8216
SWIDTH 514 0
DWIDTH 10 0
BBX 4 6 3 7
BITMAP
30
70
C0
E0
E0
E0
ENDCHAR
STARTCHAR 2019
ENCODING 8217
SWIDTH 514 0
DWIDTH 10 0
BBX 4 6 3 8
BITMAP
60
70
70
30
E0
C0
ENDCHAR
STARTCHAR 201A
ENCODING 8218
SWIDTH 514 0
DWIDTH 10 0
BBX 5 6 2 -3
BITMAP
30
78
38
30
F0
40
ENDCHAR
STARTCHAR 201C
ENCODING 8220
SWIDTH 514 0
DWIDTH 10 0
BBX 8 5 1 8
BITMAP
23
C6
CC
EE
C6
ENDCHAR
STARTCHAR 201D
ENCODING 8221
SWIDTH 514 0
DWIDTH 10 0
BBX 8 5 1 8
BITMAP
67
67
63
66
CC
ENDCHAR
STARTCHAR 201E
ENCODING 8222
SWIDTH 514 0
DWIDTH 10 0
BBX 9 5 0 -3
BITMAP
3300
7380
3300
3300
C600
ENDCHAR
STARTCHAR 2020
ENCODING 8224
SWIDTH 514 0
DWIDTH 10 0
BBX 7 14 1 -2
BITMAP
18
18
18
FE
FE
18
18
18
18
18
18
18
18
18
ENDCHAR
STARTCHAR 2021
ENCODING 8225
SWIDTH 514 0
DWIDTH 10 0
BBX 7 14 1 -2
BITMAP
18
18
18
FE
FE
18
18
18
FE
FE
18
18
18
10
ENDCHAR
STARTCHAR 2022
ENCODING 8226
SWIDTH 514 0
DWIDTH 10 0
BBX 5 5 2 4
BITMAP
70
F8
F8
F8
70
ENDCHAR
STARTCHAR 2026
ENCODING 8230
SWIDTH 514 0
DWIDTH 10 0
BBX 8 2 1 0
BITMAP
DB
DB
ENDCHAR
STARTCHAR 2030
ENCODING 8240
SWIDTH 514 0
DWIDTH 10 0
BBX 9 12 0 0
BITMAP
6000
F000
D000
F180
6600
1800
6000
3B80
2A80
6A80
2A80
3B80
ENDCHAR
STARTCHAR 2039
ENCODING 8249
SWIDTH 514 0
DWIDTH 10 0
BBX 4 9 3 0
BITMAP
20
70
60
E0
C0
E0
60
70
20
ENDCHAR
STARTCHAR 203A
ENCODING 8250
SWIDTH 514 0
DWIDTH 10 0
BBX 5 9 3 1
BITMAP
40
E0
60
70
38
70
60
E0
40
ENDCHAR
STARTCHAR 2044
ENCODING 8260
SWIDTH 514 0
DWIDTH 10 0
BBX 8 12 1 0
BITMAP
03
06
06
0C
0C
18
10
30
60
60
C0
C0
ENDCHAR
STARTCHAR 2070
ENCODING 8304
SWIDTH 514 0
DWIDTH 10 0
BBX 6 8 2 5
BITMAP
70
F8
C8
EC
EC
C8
F8
70
ENDCHAR
STARTCHAR 2074
ENCODING 8308
SWIDTH 514 0
DWIDTH 10 0
BBX 5 7 2 5
BITMAP
30
70
50
D0
F8
10
10
ENDCHAR
STARTCHAR 2075
ENCODING 8309
SWIDTH 514 0
DWIDTH 10 0
BBX 5 7 2 5
BITMAP
78
78
40
78
78
F8
F8
ENDCHAR
STARTCHAR 2076
ENCODING 8310
SWIDTH 514 0
DWIDTH 10 0
BBX 5 7 2 5
BITMAP
38
78
C0
F8
D8
F8
70
ENDCHAR
STARTCHAR 2077
ENCODING 8311
SWIDTH 514 0
DWIDTH 10 0
BBX 5 7 2 5
BITMAP
F8
F8
18
30
30
60
60
ENDCHAR
STARTCHAR 2078
ENCODING 8312
SWIDTH 514 0
DWIDTH 10 0
BBX 5 7 2 5
BITMAP
78
D8
D8
78
C8
D8
78
ENDCHAR
STARTCHAR 2079
ENCODING 8313
SWIDTH 514 0
DWIDTH 10 0
BBX 6 7 2 5
BITMAP
78
78
CC
7C
78
78
70
ENDCHAR
STARTCHAR 2080
ENCODING 8320
SWIDTH 514 0
DWIDTH 10 0
BBX 6 8 2 0
BITMAP
70
F8
C8
EC
EC
C8
F8
70
ENDCHAR
STARTCHAR 2081
ENCODING 8321
SWIDTH 514 0
DWIDTH 10 0
BBX 5 7 3 0
BITMAP
60
E0
A0
20
20
F8
F8
ENDCHAR
STARTCHAR 2082
ENCODING 8322
SWIDTH 514 0
DWIDTH 10 0
BBX 5 7 2 0
BITMAP
78
F8
58
38
60
78
F8
ENDCHAR
STARTCHAR 2083
ENCODING 8323
SWIDTH 514 0
DWIDTH 10 0
BBX 5 7 2 0
BITMAP
70
F8
58
38
B8
F8
F0
ENDCHAR
STARTCHAR 2084
ENCODING 8324
SWIDTH 514 0
DWIDTH 10 0
BBX 5 7 2 0
BITMAP
30
70
50
D0
F8
10
10
ENDCHAR
STARTCHAR 2085
ENCODING 8325
SWIDTH 514 0
DWIDTH 10 0
BBX 5 7 2 0
BITMAP
78
78
40
78
78
F8
F8
ENDCHAR
STARTCHAR 2086
ENCODING 8326
SWIDTH 514 0
DWIDTH 10 0
BBX 5 7 2 0
BITMAP
38
78
C0
F8
D8
F8
70
ENDCHAR
STARTCHAR 2087
ENCODING 8327
SWIDTH 514 0
DWIDTH 10 0
BBX 5 7 2 0
BITMAP
F8
F8
18
30
30
60
60
ENDCHAR
STARTCHAR 2088
ENCODING 8328
SWIDTH 514 0
DWIDTH 10 0
BBX 5 7 2 0
BITMAP
78
D8
D8
78
C8
D8
78
ENDCHAR
STARTCHAR 2089
ENCODING 8329
SWIDTH 514 0
DWIDTH 10 0
BBX 6 7 2 0
BITMAP
78
78
CC
7C
78
78
70
ENDCHAR
STARTCHAR 20AC
ENCODING 8364
SWIDTH 514 0
DWIDTH 10 0
BBX 8 12 1 0
BITMAP
1F
3E
70
60
FE
FE
60
FC
FC
70
3F
1F
ENDCHAR
STARTCHAR 20AE
ENCODING 8366
SWIDTH 514 0
DWIDTH 10 0
BBX 9 12 0 0
BITMAP
FF80
FF80
0C00
0D00
0F00
1C00
3D00
0F00
1E00
3C00
2C00
0C00
ENDCHAR
STARTCHAR 20B4
ENCODING 8372
SWIDTH 514 0
DWIDTH 10 0
BBX 9 12 0 0
BITMAP
3E00
7F00
2300
FF80
FF80
1C00
FF80
FF80
6000
7100
3F80
1F00
ENDCHAR
STARTCHAR 20B9
ENCODING 8377
SWIDTH 514 0
DWIDTH 10 0
BBX 8 12 1 0
BITMAP
FF
FF
0C
FF
FF
1C
FC
F0
60
30
38
1C
ENDCHAR
STARTCHAR 2113
ENCODING 8467
SWIDTH 514 0
DWIDTH 10 0
BBX 7 13 1 0
BITMAP
1C
36
22
22
24
24
28
30
20
E0
32
3E
1C
ENDCHAR
STARTCHAR 2116
ENCODING 8470
SWIDTH 514 0
DWIDTH 10 0
BBX 9 12 0 0
BITMAP
DB80
DA80
DA80
FA80
FA80
FB80
F800
DB80
DB80
D800
D800
C800
ENDCHAR
STARTCHAR 2122
ENCODING 8482
SWIDTH 514 0
DWIDTH 10 0
BBX 9 5 0 7
BITMAP
F580
2580
2B80
2A80
2880
ENDCHAR
STARTCHAR 2126
ENCODING 8486
SWIDTH 514 0
DWIDTH 10 0
BBX 9 12 0 0
BITMAP
1E00
7F00
7380
E180
E180
E180
E180
6180
6380
7300
F780
F780
ENDCHAR
STARTCHAR 212E
ENCODING 8494
SWIDTH 514 0
DWIDTH 10 0
BBX 8 8 1 0
BITMAP
7C
82
83
FF
80
80
82
7C
ENDCHAR
STARTCHAR 2153
ENCODING 8531
SWIDTH 514 0
DWIDTH 10 0
BBX 10 12 0 0
BITMAP
6300
E300
A600
2600
2C00
0C00
1800
1B80
3080
3380
60C0
6780
ENDCHAR
STARTCHAR 2154
ENCODING 8532
SWIDTH 514 0
DWIDTH 10 0
BBX 10 12 0 0
BITMAP
F180
B300
7300
E600
F600
0C00
0C00
1B80
1880
3380
30C0
6780
ENDCHAR
STARTCHAR 2155
ENCODING 8533
SWIDTH 514 0
DWIDTH 10 0
BBX 9 12 0 0
BITMAP
6100
E300
A200
2600
2400
0C00
0800
1B80
1300
3180
2080
6780
ENDCHAR
STARTCHAR 2156
ENCODING 8534
SWIDTH 514 0
DWIDTH 10 0
BBX 9 12 0 0
BITMAP
F180
3300
7300
E600
F600
0C00
0C00
1B80
1A00
3380
3080
6780
ENDCHAR
STARTCHAR 2157
ENCODING 8535
SWIDTH 514 0
DWIDTH 10 0
BBX 9 12 0 0
BITMAP
F180
1300
7300
1600
F600
0C00
0C00
1B80
1B00
3180
3080
6780
ENDCHAR
STARTCHAR 2158
ENCODING 8536
SWIDTH 514 0
DWIDTH 10 0
BBX 9 12 0 0
BITMAP
3180
7300
F300
FE00
3600
0C00
0C00
1B80
1B00
3180
3080
6780
ENDCHAR
STARTCHAR 2159
ENCODING 8537
SWIDTH 514 0
DWIDTH 10 0
BBX 9 12 0 0
BITMAP
6300
E300
A600
2600
2C00
0C00
1800
1B80
3600
3780
6480
6380
ENDCHAR
STARTCHAR 215A
ENCODING 8538
SWIDTH 514 0
DWIDTH 10 0
BBX 9 12 0 0
BITMAP
7180
6300
3300
3600
F600
0C00
0C00
1B80
1E00
3780
3480
6380
ENDCHAR
STARTCHAR 215B
ENCODING 8539
SWIDTH 514 0
DWIDTH 10 0
BBX 9 12 0 0
BITMAP
6300
E300
A600
2600
2C00
0C00
1800
1F80
3680
3380
6480
6780
ENDCHAR
STARTCHAR 215C
ENCODING 8540
SWIDTH 514 0
DWIDTH 10 0
BBX 9 12 0 0
BITMAP
F100
3300
6200
1600
F400
0C00
0800
1B80
1680
3380
2680
6780
ENDCHAR
STARTCHAR 215D
ENCODING 8541
SWIDTH 514 0
DWIDTH 10 0
BBX 9 12 0 0
BITMAP
7100
4300
7200
1600
F400
0C00
0800
1B80
1680
3380
2680
6780
ENDCHAR
STARTCHAR 215E
ENCODING 8542
SWIDTH 514 0
DWIDTH 10 0
BBX 8 12 1 0
BITMAP
E6
66
4C
CC
D8
18
30
37
6D
67
CD
CF
ENDCHAR
STARTCHAR 2202
ENCODING 8706
SWIDTH 514 0
DWIDTH 10 0
BBX 8 13 1 0
BITMAP
F8
7C
0E
06
3E
7F
C7
C7
C6
C6
CE
FC
78
ENDCHAR
STARTCHAR 2206
ENCODING 8710
SWIDTH 514 0
DWIDTH 10 0
BBX 9 12 0 0
BITMAP
1C00
1E00
1E00
3600
3600
3300
3300
6300
6300
6380
7F80
FF80
ENDCHAR
STARTCHAR 220F
ENCODING 8719
SWIDTH 514 0
DWIDTH 10 0
BBX 8 14 1 -2
BITMAP
FF
FF
C7
C7
C7
C7
C7
C7
C7
C7
C7
C7
C7
C7
ENDCHAR
STARTCHAR 2211
ENCODING 8721
SWIDTH 514 0
DWIDTH 10 0
BBX 8 14 1 -2
BITMAP
FF
FF
E0
60
30
38
18
18
30
70
60
E0
FF
FF
ENDCHAR
STARTCHAR 2212
ENCODING 8722
SWIDTH 514 0
DWIDTH 10 0
BBX 8 2 1 4
BITMAP
FF
FF
ENDCHAR
STARTCHAR 2215
ENCODING 8725
SWIDTH 514 0
DWIDTH 10 0
BBX 8 12 1 0
BITMAP
03
06
06
0C
0C
18
10
30
60
60
C0
C0
ENDCHAR
STARTCHAR 2219
ENCODING 8729
SWIDTH 514 0
DWIDTH 10 0
BBX 3 2 3 5
BITMAP
E0
E0
ENDCHAR
STARTCHAR 221A
ENCODING 8730
SWIDTH 514 0
DWIDTH 10 0
BBX 9 13 0 0
BITMAP
0180
0180
0380
0300
0300
0700
3700
F600
B600
3E00
1C00
1C00
0C00
ENDCHAR
STARTCHAR 221E
ENCODING 8734
SWIDTH 514 0
DWIDTH 10 0
BBX 9 6 0 2
BITMAP
7700
7F80
CD80
CD80
7F80
7700
ENDCHAR
STARTCHAR 222B
ENCODING 8747
SWIDTH 514 0
DWIDTH 10 0
BBX 8 16 1 -3
BITMAP
0F
1F
18
18
18
18
18
18
18
18
18
18
18
38
F0
F0
ENDCHAR
STARTCHAR 2248
ENCODING 8776
SWIDTH 514 0
DWIDTH 10 0
BBX 9 7 0 2
BITMAP
3980
7F80
C700
0000
3980
7F80
C700
ENDCHAR
STARTCHAR 2260
ENCODING 8800
SWIDTH 514 0
DWIDTH 10 0
BBX 8 10 1 0
BITMAP
06
04
FF
FF
18
10
FF
FF
60
40
ENDCHAR
STARTCHAR 2264
ENCODING 8804
SWIDTH 514 0
DWIDTH 10 0
BBX 8 11 1 0
BITMAP
02
1F
7E
F0
F0
7C
1F
02
00
FF
FF
ENDCHAR
STARTCHAR 2265
ENCODING 8805
SWIDTH 514 0
DWIDTH 10 0
BBX 8 11 1 0
BITMAP
C0
F0
7E
0F
0F
7E
F8
C0
00
FF
FF
ENDCHAR
STARTCHAR 2500
ENCODING 9472
SWIDTH 514 0
DWIDTH 10 0
BBX 10 2 0 5
BITMAP
FFC0
FFC0
ENDCHAR
STARTCHAR 2502
ENCODING 9474
SWIDTH 514 0
DWIDTH 10 0
BBX 2 19 4 -3
BITMAP
C0
C0
C0
C0
C0
C0
C0
C0
C0
C0
C0
C0
C0
C0
C0
C0
C0
C0
C0
ENDCHAR
STARTCHAR 250C
ENCODING 9484
SWIDTH 514 0
DWIDTH 10 0
BBX 6 11 4 -3
BITMAP
FC
FC
C0
C0
C0
C0
C0
C0
C0
C0
C0
ENDCHAR
STARTCHAR 2510
ENCODING 9488
SWIDTH 514 0
DWIDTH 10 0
BBX 6 11 0 -3
BITMAP
FC
FC
0C
0C
0C
0C
0C
0C
0C
0C
0C
ENDCHAR
STARTCHAR 2514
ENCODING 9492
SWIDTH 514 0
DWIDTH 10 0
BBX 6 11 4 5
BITMAP
C0
C0
C0
C0
C0
C0
C0
C0
C0
FC
FC
ENDCHAR
STARTCHAR 2518
ENCODING 9496
SWIDTH 514 0
DWIDTH 10 0
BBX 6 11 0 5
BITMAP
0C
0C
0C
0C
0C
0C
0C
0C
0C
FC
FC
ENDCHAR
STARTCHAR 251C
ENCODING 9500
SWIDTH 514 0
DWIDTH 10 0
BBX 6 19 4 -3
BITMAP
C0
C0
C0
C0
C0
C0
C0
C0
C0
FC
FC
C0
C0
C0
C0
C0
C0
C0
C0
ENDCHAR
STARTCHAR 2524
ENCODING 9508
SWIDTH 514 0
DWIDTH 10 0
BBX 6 19 0 -3
BITMAP
0C
0C
0C
0C
0C
0C
0C
0C
0C
FC
FC
0C
0C
0C
0C
0C
0C
0C
0C
ENDCHAR
STARTCHAR 252C
ENCODING 9516
SWIDTH 514 0
DWIDTH 10 0
BBX 10 10 0 -3
BITMAP
FFC0
FFC0
0C00
0C00
0C00
0C00
0C00
0C00
0C00
0C00
ENDCHAR
STARTCHAR 2534
ENCODING 9524
SWIDTH 514 0
DWIDTH 10 0
BBX 10 11 0 5
BITMAP
0C00
0C00
0C00
0C00
0C00
0C00
0C00
0C00
0C00
FFC0
FFC0
ENDCHAR
STARTCHAR 253C
ENCODING 9532
SWIDTH 514 0
DWIDTH 10 0
BBX 10 19 0 -3
BITMAP
0C00
0C00
0C00
0C00
0C00
0C00
0C00
0C00
0C00
FFC0
FFC0
0C00
0C00
0C00
0C00
0C00
0C00
0C00
0C00
ENDCHAR
STARTCHAR 2550
ENCODING 9552
SWIDTH 514 0
DWIDTH 10 0
BBX 10 6 0 3
BITMAP
FFC0
FFC0
0000
0000
FFC0
FFC0
ENDCHAR
STARTCHAR 2551
ENCODING 9553
SWIDTH 514 0
DWIDTH 10 0
BBX 5 19 2 -3
BITMAP
C8
C8
C8
C8
C8
C8
C8
C8
C8
C8
C8
C8
C8
C8
C8
C8
C8
C8
C8
ENDCHAR
STARTCHAR 2552
ENCODING 9554
SWIDTH 514 0
DWIDTH 10 0
BBX 6 13 4 -3
BITMAP
FC
FC
00
00
FC
FC
C0
C0
C0
C0
C0
C0
C0
ENDCHAR
STARTCHAR 2553
ENCODING 9555
SWIDTH 514 0
DWIDTH 10 0
BBX 8 10 2 -3
BITMAP
CF
CF
C8
C8
C8
C8
C8
C8
C8
C8
ENDCHAR
STARTCHAR 2554
ENCODING 9556
SWIDTH 514 0
DWIDTH 10 0
BBX 8 12 2 -3
BITMAP
FF
FF
C0
CF
CF
C8
C8
C8
C8
C8
C8
C8
ENDCHAR
STARTCHAR 2555
ENCODING 9557
SWIDTH 514 0
DWIDTH 10 0
BBX 6 13 0 -3
BITMAP
FC
FC
00
00
FC
FC
0C
0C
0C
0C
0C
0C
0C
ENDCHAR
STARTCHAR 2556
ENCODING 9558
SWIDTH 514 0
DWIDTH 10 0
BBX 7 10 0 -3
BITMAP
F2
F2
32
32
32
32
32
32
32
32
ENDCHAR
STARTCHAR 2557
ENCODING 9559
SWIDTH 514 0
DWIDTH 10 0
BBX 7 12 0 -3
BITMAP
FE
FE
02
F2
F2
32
32
32
32
32
32
32
ENDCHAR
STARTCHAR 2558
ENCODING 9560
SWIDTH 514 0
DWIDTH 10 0
BBX 6 13 4 3
BITMAP
C0
C0
C0
C0
C0
C0
C0
FC
FC
00
00
FC
FC
ENDCHAR
STARTCHAR 2559
ENCODING 9561
SWIDTH 514 0
DWIDTH 10 0
BBX 8 10 2 6
BITMAP
C8
C8
C8
C8
C8
C8
C8
C8
CF
CF
ENDCHAR
STARTCHAR 255A
ENCODING 9562
SWIDTH 514 0
DWIDTH 10 0
BBX 8 12 2 4
BITMAP
C8
C8
C8
C8
C8
C8
C8
CF
CF
C0
FF
FF
ENDCHAR
STARTCHAR 255B
ENCODING 9563
SWIDTH 514 0
DWIDTH 10 0
BBX 6 13 0 3
BITMAP
0C
0C
0C
0C
0C
0C
0C
FC
FC
00
00
FC
FC
ENDCHAR
STARTCHAR 255C
ENCODING 9564
SWIDTH 514 0
DWIDTH 10 0
BBX 7 10 0 6
BITMAP
32
32
32
32
32
32
32
32
F2
F2
ENDCHAR
STARTCHAR 255D
ENCODING 9565
SWIDTH 514 0
DWIDTH 10 0
BBX 7 12 0 4
BITMAP
32
32
32
32
32
32
32
F2
F2
02
FE
FE
ENDCHAR
STARTCHAR 255E
ENCODING 9566
SWIDTH 514 0
DWIDTH 10 0
BBX 6 19 4 -3
BITMAP
C0
C0
C0
C0
C0
C0
C0
FC
FC
00
FC
FC
C0
C0
C0
C0
C0
C0
C0
ENDCHAR
STARTCHAR 255F
ENCODING 9567
SWIDTH 514 0
DWIDTH 10 0
BBX 8 19 2 -3
BITMAP
C8
C8
C8
C8
C8
C8
C8
C8
CF
CF
C8
C8
C8
C8
C8
C8
C8
C8
C8
ENDCHAR
STARTCHAR 2560
ENCODING 9568
SWIDTH 514 0
DWIDTH 10 0
BBX 8 19 2 -3
BITMAP
C8
C8
C8
C8
C8
C8
C8
CF
CF
C0
C0
CF
CF
C8
C8
C8
C8
C8
C8
ENDCHAR
STARTCHAR 2561
ENCODING 9569
SWIDTH 514 0
DWIDTH 10 0
BBX 6 19 0 -3
BITMAP
0C
0C
0C
0C
0C
0C
0C
FC
FC
00
FC
FC
0C
0C
0C
0C
0C
0C
0C
ENDCHAR
STARTCHAR 2562
ENCODING 9570
SWIDTH 514 0
DWIDTH 10 0
BBX 7 19 0 -3
BITMAP
32
32
32
32
32
32
32
32
F2
F2
32
32
32
32
32
32
32
32
32
ENDCHAR
STARTCHAR 2563
ENCODING 9571
SWIDTH 514 0
DWIDTH 10 0
BBX 7 19 0 -3
BITMAP
32
32
32
32
32
32
32
F2
F2
02
02
F2
F2
32
32
32
32
32
32
ENDCHAR
STARTCHAR 2564
ENCODING 9572
SWIDTH 514 0
DWIDTH 10 0
BBX 10 13 0 -3
BITMAP
FFC0
FFC0
0000
0000
FFC0
FFC0
0C00
0C00
0C00
0C00
0C00
0C00
0C00
ENDCHAR
STARTCHAR 2565
ENCODING 9573
SWIDTH 514 0
DWIDTH 10 0
BBX 10 10 0 -3
BITMAP
FFC0
FFC0
3200
3200
3200
3200
3200
3200
3200
3200
ENDCHAR
STARTCHAR 2566
ENCODING 9574
SWIDTH 514 0
DWIDTH 10 0
BBX 10 12 0 -3
BITMAP
FFC0
FFC0
0000
F3C0
F3C0
3200
3200
3200
3200
3200
3200
3200
ENDCHAR
STARTCHAR 2567
ENCODING 9575
SWIDTH 514 0
DWIDTH 10 0
BBX 10 13 0 3
BITMAP
0C00
0C00
0C00
0C00
0C00
0C00
0C00
FFC0
FFC0
0000
0000
FFC0
FFC0
ENDCHAR
STARTCHAR 2568
ENCODING 9576
SWIDTH 514 0
DWIDTH 10 0
BBX 10 11 0 5
BITMAP
3200
3200
3200
3200
3200
3200
3200
3200
3200
FFC0
FFC0
ENDCHAR
STARTCHAR 2569
ENCODING 9577
SWIDTH 514 0
DWIDTH 10 0
BBX 10 13 0 3
BITMAP
3200
3200
3200
3200
3200
3200
3200
F3C0
F3C0
0000
0000
FFC0
FFC0
ENDCHAR
STARTCHAR 256A
ENCODING 9578
SWIDTH 514 0
DWIDTH 10 0
BBX 10 19 0 -3
BITMAP
0C00
0C00
0C00
0C00
0C00
0C00
0C00
FFC0
FFC0
0C00
0C00
FFC0
FFC0
0C00
0C00
0C00
0C00
0C00
0C00
ENDCHAR
STARTCHAR 256B
ENCODING 9579
SWIDTH 514 0
DWIDTH 10 0
BBX 10 19 0 -3
BITMAP
3200
3200
3200
3200
3200
3200
3200
3200
3200
FFC0
FFC0
3200
3200
3200
3200
3200
3200
3200
3200
ENDCHAR
STARTCHAR 256C
ENCODING 9580
SWIDTH 514 0
DWIDTH 10 0
BBX 10 19 0 -3
BITMAP
3200
3200
3200
3200
3200
3200
3200
F3C0
F3C0
0000
0000
F3C0
F3C0
3200
3200
3200
3200
3200
3200
ENDCHAR
STARTCHAR 2588
ENCODING 9608
SWIDTH 514 0
DWIDTH 10 0
BBX 10 19 0 -3
BITMAP
FFC0
FFC0
FFC0
FFC0
FFC0
FFC0
FFC0
FFC0
FFC0
FFC0
FFC0
FFC0
FFC0
FFC0
FFC0
FFC0
FFC0
FFC0
FFC0
ENDCHAR
STARTCHAR 2591
ENCODING 9617
SWIDTH 514 0
DWIDTH 10 0
BBX 10 19 0 -3
BITMAP
9240
0000
0000
9240
0000
0000
9240
0000
0000
9240
0000
0000
9240
0000
0000
9240
0000
0000
9240
ENDCHAR
STARTCHAR 2592
ENCODING 9618
SWIDTH 514 0
DWIDTH 10 0
BBX 10 19 0 -3
BITMAP
DB40
0000
0000
DB40
0000
0000
DB40
0000
0000
DB40
0000
0000
DB40
0000
0000
DB40
0000
0000
DB40
ENDCHAR
STARTCHAR 2593
ENCODING 9619
SWIDTH 514 0
DWIDTH 10 0
BBX 10 19 0 -3
BITMAP
FFC0
DB40
FFC0
FFC0
DB40
FFC0
FFC0
DB40
FFC0
FFC0
FFC0
DB40
FFC0
FFC0
DB40
FFC0
FFC0
DB40
FFC0
ENDCHAR
STARTCHAR 25CA
ENCODING 9674
SWIDTH 514 0
DWIDTH 10 0
BBX 8 12 1 0
BITMAP
10
18
3C
6C
E6
C7
C7
E6
6C
3C
18
10
ENDCHAR
STARTCHAR E0FF
ENCODING 57599
SWIDTH 514 0
DWIDTH 10 0
BBX 7 7 1 6
BITMAP
3C
7E
E6
BA
DE
66
3C
ENDCHAR
STARTCHAR EFFD
ENCODING 61437
SWIDTH 514 0
DWIDTH 10 0
BBX 11 13 0 0
BITMAP
7800
79E0
CF60
EF60
CDE0
CF60
7B60
79E0
0000
0000
0600
0F00
0600
ENDCHAR
STARTCHAR F000
ENCODING 61440
SWIDTH 514 0
DWIDTH 10 0
BBX 16 12 -3 0
BITMAP
FC7E
0201
0281
0281
0281
0201
FC7E
0201
0281
8201
0201
FC7E
ENDCHAR
STARTCHAR F001
ENCODING 61441
SWIDTH 514 0
DWIDTH 10 0
BBX 9 13 0 0
BITMAP
1F80
3F80
7000
7000
F980
F980
7180
7180
7180
7180
7180
7180
7180
ENDCHAR
STARTCHAR F002
ENCODING 61442
SWIDTH 514 0
DWIDTH 10 0
BBX 9 13 0 0
BITMAP
1F80
3F80
7380
7380
FB80
FB80
7380
7380
7380
7380
7380
7180
7180
ENDCHAR
STARTCHAR F506
ENCODING 62726
SWIDTH 514 0
DWIDTH 10 0
BBX 10 12 0 0
BITMAP
6180
E300
A300
2600
2600
0C00
0C00
1BC0
1980
3100
3100
6300
ENDCHAR
STARTCHAR F507
ENCODING 62727
SWIDTH 514 0
DWIDTH 10 0
BBX 10 12 0 0
BITMAP
F180
3300
7300
E600
F600
0C00
0C00
1BC0
1980
3100
3100
6300
ENDCHAR
STARTCHAR F508
ENCODING 62728
SWIDTH 514 0
DWIDTH 10 0
BBX 10 12 0 0
BITMAP
F180
1300
7300
1600
F600
0C00
0C00
1BC0
1980
3100
3100
6300
ENDCHAR
STARTCHAR F509
ENCODING 62729
SWIDTH 514 0
DWIDTH 10 0
BBX 10 12 0 0
BITMAP
3180
7300
F300
FE00
3600
0C00
0C00
1BC0
1980
3100
3100
6300
ENDCHAR
STARTCHAR F50A
ENCODING 62730
SWIDTH 514 0
DWIDTH 10 0
BBX 10 12 0 0
BITMAP
7180
4300
7300
1600
F600
0C00
0C00
1BC0
1980
3100
3100
6300
ENDCHAR
STARTCHAR F50B
ENCODING 62731
SWIDTH 514 0
DWIDTH 10 0
BBX 10 12 0 0
BITMAP
3180
C300
F300
D600
7600
0C00
0C00
1BC0
1980
3100
3100
6300
ENDCHAR
STARTCHAR F50C
ENCODING 62732
SWIDTH 514 0
DWIDTH 10 0
BBX 9 12 0 0
BITMAP
6300
E300
A600
2600
2C00
0C00
1800
1B80
3680
3380
6180
6700
ENDCHAR
STARTCHAR F50D
ENCODING 62733
SWIDTH 514 0
DWIDTH 10 0
BBX 9 12 0 0
BITMAP
F180
3300
7300
E600
F600
0C00
0C00
1B80
1E80
3780
3180
6700
ENDCHAR
STARTCHAR F50E
ENCODING 62734
SWIDTH 514 0
DWIDTH 10 0
BBX 9 12 0 0
BITMAP
3180
7300
F300
FE00
3600
0C00
0C00
1B80
1E80
3380
3180
6300
ENDCHAR
STARTCHAR F50F
ENCODING 62735
SWIDTH 514 0
DWIDTH 10 0
BBX 9 12 0 0
BITMAP
7100
4300
7200
1600
F400
0C00
0800
1B80
1680
3380
2180
6700
ENDCHAR
STARTCHAR F510
ENCODING 62736
SWIDTH 514 0
DWIDTH 10 0
BBX 8 12 1 0
BITMAP
E6
64
4C
C8
D8
10
30
2E
69
4F
C3
8E
ENDCHAR
STARTCHAR F511
ENCODING 62737
SWIDTH 514 0
DWIDTH 10 0
BBX 9 12 0 0
BITMAP
7180
D300
7300
9600
F600
0C00
0C00
1B80
1E80
3380
3180
6300
ENDCHAR
STARTCHAR F80A
ENCODING 63498
SWIDTH 514 0
DWIDTH 10 0
BBX 6 8 2 7
BITMAP
70
F8
C8
EC
EC
C8
F8
70
ENDCHAR
STARTCHAR F80B
ENCODING 63499
SWIDTH 514 0
DWIDTH 10 0
BBX 5 7 3 7
BITMAP
60
E0
A0
20
20
F8
F8
ENDCHAR
STARTCHAR F80C
ENCODING 63500
SWIDTH 514 0
DWIDTH 10 0
BBX 5 7 2 7
BITMAP
78
F8
58
38
60
78
F8
ENDCHAR
STARTCHAR F80D
ENCODING 63501
SWIDTH 514 0
DWIDTH 10 0
BBX 5 7 2 7
BITMAP
70
F8
58
38
B8
F8
F0
ENDCHAR
STARTCHAR F80E
ENCODING 63502
SWIDTH 514 0
DWIDTH 10 0
BBX 5 7 2 7
BITMAP
30
70
50
D0
F8
10
10
ENDCHAR
STARTCHAR F80F
ENCODING 63503
SWIDTH 514 0
DWIDTH 10 0
BBX 5 7 2 7
BITMAP
78
78
40
78
78
F8
F8
ENDCHAR
STARTCHAR F810
ENCODING 63504
SWIDTH 514 0
DWIDTH 10 0
BBX 5 7 2 7
BITMAP
38
78
C0
F8
D8
F8
70
ENDCHAR
STARTCHAR F811
ENCODING 63505
SWIDTH 514 0
DWIDTH 10 0
BBX 5 7 2 7
BITMAP
F8
F8
18
30
30
60
60
ENDCHAR
STARTCHAR F812
ENCODING 63506
SWIDTH 514 0
DWIDTH 10 0
BBX 5 7 2 7
BITMAP
78
D8
D8
78
C8
D8
78
ENDCHAR
STARTCHAR F813
ENCODING 63507
SWIDTH 514 0
DWIDTH 10 0
BBX 6 7 2 7
BITMAP
78
78
CC
7C
78
78
70
ENDCHAR
STARTCHAR F814
ENCODING 63508
SWIDTH 514 0
DWIDTH 10 0
BBX 6 8 2 -2
BITMAP
70
F8
C8
EC
EC
C8
F8
70
ENDCHAR
STARTCHAR F815
ENCODING 63509
SWIDTH 514 0
DWIDTH 10 0
BBX 5 7 3 -2
BITMAP
60
E0
A0
20
20
F8
F8
ENDCHAR
STARTCHAR F816
ENCODING 63510
SWIDTH 514 0
DWIDTH 10 0
BBX 5 7 2 -2
BITMAP
78
F8
58
38
60
78
F8
ENDCHAR
STARTCHAR F817
ENCODING 63511
SWIDTH 514 0
DWIDTH 10 0
BBX 5 7 2 -2
BITMAP
70
F8
58
38
B8
F8
F0
ENDCHAR
STARTCHAR F818
ENCODING 63512
SWIDTH 514 0
DWIDTH 10 0
BBX 5 7 2 -2
BITMAP
30
70
50
D0
F8
10
10
ENDCHAR
STARTCHAR F819
ENCODING 63513
SWIDTH 514 0
DWIDTH 10 0
BBX 5 7 2 -2
BITMAP
78
78
40
78
78
F8
F8
ENDCHAR
STARTCHAR F81A
ENCODING 63514
SWIDTH 514 0
DWIDTH 10 0
BBX 5 7 2 -2
BITMAP
38
78
C0
F8
D8
F8
70
ENDCHAR
STARTCHAR F81B
ENCODING 63515
SWIDTH 514 0
DWIDTH 10 0
BBX 5 7 2 -2
BITMAP
F8
F8
18
30
30
60
60
ENDCHAR
STARTCHAR F81C
ENCODING 63516
SWIDTH 514 0
DWIDTH 10 0
BBX 5 7 2 -2
BITMAP
78
D8
D8
78
C8
D8
78
ENDCHAR
STARTCHAR F81D
ENCODING 63517
SWIDTH 514 0
DWIDTH 10 0
BBX 6 7 2 -2
BITMAP
78
78
CC
7C
78
78
70
ENDCHAR
STARTCHAR FB01
ENCODING 64257
SWIDTH 514 0
DWIDTH 10 0
BBX 9 13 0 0
BITMAP
1F80
3F80
7000
7000
F980
F980
7180
7180
7180
7180
7180
7180
7180
ENDCHAR
STARTCHAR FB02
ENCODING 64258
SWIDTH 514 0
DWIDTH 10 0
BBX 9 13 0 0
BITMAP
1F80
3F80
7380
7380
FB80
FB80
7380
7380
7380
7380
7380
7180
7180
ENDCHAR
STARTCHAR FFFD
ENCODING 65533
SWIDTH 514 0
DWIDTH 10 0
BBX 9 9 0 0
BITMAP
0800
1C00
2200
7900
FB80
7700
3E00
1400
0800
ENDCHAR
ENDFONT
